<svg width="40" height="40" viewBox="0 0 40 40" fill="none" xmlns="http://www.w3.org/2000/svg">
<path fill-rule="evenodd" clip-rule="evenodd" d="M23.1643 23.3506C22.6491 23.3506 22.156 23.1372 21.8174 22.7692C21.0446 21.9448 20.9783 20.6053 21.6628 19.7221C22.0455 19.2289 22.5755 18.9566 23.1569 18.9566C23.812 18.9566 24.4229 19.3099 24.7836 19.9061C25.0338 20.3256 25.109 20.648 25.1074 21.1499C25.1054 21.7717 24.9823 22.1804 24.5996 22.6588C24.261 23.1004 23.7384 23.3506 23.1643 23.3506ZM23.1864 19.8325C22.9361 19.8325 22.6932 19.9281 22.4871 20.1195C22.2369 20.3477 22.0971 20.6421 22.0676 20.9954C22.0161 21.5915 22.2222 22.0479 22.6785 22.3496C22.8331 22.4527 22.995 22.5042 23.1569 22.5042C23.2379 22.5042 23.3189 22.4895 23.3925 22.4674C23.9298 22.3055 24.2846 21.766 24.283 21.1426C24.2822 20.8044 24.18 20.5611 24.0181 20.3182C23.812 20.0091 23.5102 19.8325 23.1864 19.8325Z" fill="#EAEEF4"/>
<path fill-rule="evenodd" clip-rule="evenodd" d="M15.4655 22.7397C15.782 23.1151 16.3193 23.3506 16.8566 23.3506C17.1069 23.3506 17.3497 23.2991 17.5705 23.2034C18.1446 22.9311 18.5274 22.4895 18.704 21.8933C18.9837 20.9586 18.785 20.149 18.1226 19.4939C17.7693 19.148 17.3129 18.9566 16.8419 18.9566C16.3414 18.9566 15.863 19.1627 15.495 19.5454C15.0533 19.9944 14.8773 20.4831 14.8767 21.1573C14.8762 21.8167 15.0386 22.2466 15.4655 22.7397ZM16.1279 20.1342C16.3267 19.9355 16.5622 19.8251 16.8198 19.8251C17.1216 19.8251 17.4233 19.987 17.6589 20.2741C17.8944 20.5611 17.9901 20.9659 17.9312 21.3634C17.8723 21.7682 17.6515 22.1141 17.3424 22.3276C17.1878 22.4306 17.0112 22.4821 16.8345 22.4821C16.6064 22.4821 16.3856 22.3938 16.2016 22.2319C15.9071 21.9669 15.7064 21.6095 15.7084 21.1426C15.7102 20.7161 15.8851 20.3845 16.1279 20.1342Z" fill="#EAEEF4"/>
<path fill-rule="evenodd" clip-rule="evenodd" d="M15.7305 28.2086C15.6716 28.2086 15.598 28.2012 15.5171 28.1865C14.6559 28.054 13.8169 27.8479 12.9999 27.5609C11.9694 27.2002 11.0347 26.6924 10.2324 26.0447C9.87598 25.7646 9.55182 25.4446 9.23144 25.1246C9.10631 24.9995 9.09896 24.8376 9.12104 24.7198C9.27078 23.837 9.4063 22.9542 9.57737 22.0775C9.86442 20.5466 10.203 19.1923 10.6004 17.9337C10.9832 16.734 11.4542 15.549 11.9989 14.4302C12.1166 14.18 12.2933 14.0107 12.573 13.8561C13.6034 13.2894 14.6854 12.8404 15.782 12.5166C16.334 12.3546 16.8125 12.2516 17.2025 12.2222C17.6589 12.2222 17.7472 12.3546 17.784 12.6564C17.8232 13.0087 17.8369 13.3654 17.887 13.7163C17.9091 13.9224 17.9827 14.0033 18.1741 14.0033C19.3807 13.9537 20.5757 13.8839 21.7806 13.996C21.9844 13.996 22.105 13.9382 22.1339 13.7163C22.1741 13.3414 22.1955 12.9641 22.2443 12.5902C22.2664 12.362 22.3989 12.2222 22.5976 12.2222C23.1423 12.2737 23.5691 12.3399 23.9445 12.4356C24.9161 12.6711 25.8214 13.0539 26.5721 13.3998C26.9716 13.5807 27.3492 13.805 27.7277 14.0254C27.8086 14.0769 27.897 14.1726 27.9411 14.2757C28.2797 15.0264 28.5962 15.733 28.8906 16.4469C29.2807 17.3964 29.6045 18.4416 29.921 19.7149C30.0903 20.4067 30.2596 21.106 30.3994 21.8052C30.495 22.29 30.578 22.7812 30.66 23.267L30.6791 23.3803L30.7748 23.9617C30.7748 23.9617 30.8558 24.5211 30.8779 24.6389C30.9147 24.8597 30.8631 25.0363 30.6939 25.213C30.0094 25.9269 29.2218 26.5231 28.3533 26.9794C27.5142 27.421 26.6163 27.7449 25.6889 27.9436C25.4392 27.9997 25.193 28.0487 24.9454 28.098C24.8355 28.1198 24.7252 28.1418 24.6143 28.1644C24.5324 28.1781 24.4442 28.1854 24.3613 28.1922L24.342 28.1938H24.2684C24.0917 28.1938 23.9666 28.1129 23.8783 27.9436L23.7458 27.686C23.5397 27.2885 23.341 26.8984 23.1496 26.4936C23.0981 26.3832 23.0098 26.2581 22.8184 26.2581C21.6776 26.4053 20.8606 26.4642 20.0804 26.4642C19.1167 26.4642 18.1675 26.3525 17.2099 26.2655C17.0554 26.2655 16.9744 26.317 16.9229 26.4274L16.2236 27.8258C16.0544 28.1202 15.9513 28.2086 15.7305 28.2086ZM27.2125 23.3729C27.3983 23.3569 27.551 23.4907 27.6099 23.6379C27.6909 23.8366 27.6467 24.0206 27.4995 24.1384C27.2345 24.3518 26.9622 24.5653 26.6825 24.7566C25.9391 25.2645 25.1001 25.6619 24.1801 25.9343C24.0917 25.9564 24.0034 25.9931 23.9666 26.0815C23.9298 26.1624 23.9666 26.2581 24.0108 26.3464L24.342 27.0015C24.4303 27.1708 24.4965 27.2738 24.6585 27.2738C24.7041 27.2738 24.7498 27.265 24.8057 27.2541C25.7404 27.0481 26.8886 26.7512 27.9338 26.1992C28.5962 25.8459 29.2144 25.397 29.8327 24.8229C29.9431 24.7198 29.9799 24.6021 29.9578 24.4549L29.8916 23.9912C29.8621 23.7556 29.8253 23.5201 29.7812 23.2846L29.6929 22.8283C29.5751 22.1879 29.45 21.5255 29.288 20.8778C29.0525 19.9136 28.7728 18.9273 28.4416 17.8527C28.1619 16.9327 27.7718 15.9759 27.2198 14.8424C27.1757 14.7467 27.08 14.651 26.9769 14.5922C26.2483 14.18 25.446 13.8193 24.5996 13.5249C24.1939 13.3834 23.6659 13.1422 23.2306 13.1422C22.9442 13.1422 22.973 13.5814 22.973 13.7752C22.973 14.0917 23.0098 14.1432 23.3115 14.2315C24.2978 14.5038 25.2546 14.916 26.1526 15.468C26.3072 15.5637 26.4912 15.6815 26.6384 15.814C26.7488 15.9096 26.7782 16.0495 26.7341 16.2041C26.6299 16.5464 26.269 16.5716 26.0127 16.3954C25.2546 15.8875 24.445 15.4975 23.6207 15.2325L23.4661 15.181C23.076 15.0558 22.6712 14.9307 22.2664 14.8718C21.1426 14.7192 20.023 14.7909 18.8954 14.7909C18.0711 14.7982 17.335 14.916 16.6432 15.1442C15.8777 15.3944 14.8841 15.7698 13.9935 16.3954C13.4491 16.7843 12.9464 16.0509 13.4636 15.6888C14.3836 15.0853 15.4214 14.6069 16.5401 14.2683C17.0038 14.1285 17.0333 14.0843 16.9744 13.6059C16.9449 13.3556 16.9155 13.1495 16.7168 13.1495C16.6579 13.1495 16.5843 13.1716 16.4886 13.1937C15.2079 13.5323 14.045 14.0033 12.9631 14.6142C12.8747 14.6658 12.7864 14.7688 12.7349 14.8792C12.492 15.4239 12.2491 15.9685 12.0136 16.5132C11.6456 17.3817 11.3364 18.3017 11.0788 19.3174C10.836 20.2669 10.6299 21.1354 10.4532 21.9745C10.3134 22.6516 10.1956 23.3361 10.0852 24.0206L10.0043 24.4843C9.98953 24.5873 10.0484 24.7125 10.1073 24.7861C10.2103 24.8965 10.3207 24.9995 10.4385 25.0952C11.1451 25.7061 11.7854 26.1256 12.4479 26.4053C12.9851 26.6335 13.5593 26.8175 14.1113 26.9941C14.4769 27.1104 14.9205 27.2665 15.311 27.2665C15.4636 27.2665 15.5247 27.1618 15.5929 27.0449C15.714 26.838 15.8158 26.6171 15.9291 26.4056C16.0027 26.2731 16.047 26.1771 16.0102 26.0815C15.9747 25.9891 15.8774 25.9584 15.7449 25.9167C14.8635 25.6388 14.0256 25.2641 13.2648 24.7346C12.9778 24.5358 12.7128 24.315 12.4626 24.0942C12.3006 23.9544 12.3227 23.7704 12.3742 23.6452C12.4478 23.4686 12.5582 23.4023 12.779 23.395C12.9263 23.395 13.0367 23.4686 13.1471 23.5569L13.3164 23.6968C13.4709 23.8219 13.6255 23.947 13.7948 24.0574C14.9503 24.7934 16.2016 25.2424 17.5043 25.4043C18.049 25.4706 18.5274 25.5147 18.969 25.5294C19.8249 25.5628 20.7059 25.6123 21.5598 25.5147C22.0309 25.4559 22.5019 25.3896 22.9656 25.316C23.7311 25.1909 24.4965 24.9333 25.3798 24.4917C25.9097 24.2267 26.3955 23.9102 26.8886 23.5054C26.9686 23.4368 27.1054 23.3821 27.2125 23.3729Z" fill="#EAEEF4"/>

</svg>
