<svg width="40" height="40" viewBox="0 0 40 40" fill="none" xmlns="http://www.w3.org/2000/svg">
<path fill-rule="evenodd" clip-rule="evenodd" d="M17.4905 29.4371H21.2446C21.5042 29.4371 21.7207 29.2327 21.7056 28.9729V20.474H23.7647C23.9976 20.474 24.1881 20.3075 24.23 20.0856C24.2472 20.0034 24.4791 18.5582 24.5632 17.0119C24.5796 16.7452 24.3666 16.5124 24.0959 16.5124H21.712V14.8625C21.712 14.7216 21.8881 14.5959 22.0565 14.5959C22.8527 14.5959 23.8373 14.5959 24.0959 14.5959C24.3546 14.5959 24.5634 14.3871 24.5634 14.1285V11.0304C24.5634 10.7718 24.3546 10.563 24.0959 10.563H21.3226C19.9088 10.563 18.8004 10.938 18.0474 11.6908C17.386 12.3459 17.1311 13.1764 17.0402 14.0394C16.9761 14.6475 16.993 15.2803 17.0091 15.8839L17.0092 15.8857C17.0149 16.0989 17.0204 16.3084 17.0224 16.5124H15.6979C15.4393 16.5124 15.2305 16.7212 15.2305 16.9798V20C15.2305 20.2586 15.4393 20.4675 15.6979 20.4675H17.0231V28.9696C17.0231 29.2283 17.2319 29.4371 17.4905 29.4371ZM23.6008 17.4473C23.5337 18.2965 23.4332 19.0772 23.3695 19.5261H21.2446C20.986 19.5261 20.7772 19.7349 20.7772 19.9935V28.4957H17.9644V19.9935C17.9644 19.7349 17.7556 19.5261 17.497 19.5261H16.1718V17.4473H17.497C17.7556 17.4473 17.9644 17.2385 17.9644 16.9798C17.9644 16.6994 17.9513 16.3978 17.9377 16.0881L17.9377 16.0872C17.9332 15.9851 17.9287 15.882 17.9247 15.7783C17.9081 15.3584 17.8982 14.9287 17.9239 14.5102C17.9754 13.6711 18.1691 12.8951 18.7199 12.3443C19.2779 11.7863 20.1494 11.4913 21.3291 11.4913H23.635V13.6481H22.063C21.7389 13.6481 21.4191 13.8019 21.1819 14.0235C20.9453 14.2446 20.7772 14.5463 20.7772 14.856V16.9798C20.7772 17.2385 20.986 17.4473 21.2446 17.4473H23.6008Z" fill="#EAEEF4"/>

</svg>
