<svg width="192" height="192" viewBox="0 0 192 192" fill="none" xmlns="http://www.w3.org/2000/svg">
<g filter="url(#filter0_ii_103_11)">
<rect width="192" height="192" rx="55" fill="#090208"/>
</g>
<g filter="url(#filter1_d_103_11)">
<path d="M63.7143 89.5H66.3962C71.3031 100.724 82.4679 108.571 95.5 108.571C108.532 108.571 119.697 100.724 124.604 89.5H127.286C129.034 89.5 130.464 88.0697 130.464 86.3214V67.25C130.464 65.5018 129.034 64.0714 127.286 64.0714H124.604C119.697 52.8471 108.532 45 95.5 45C82.4679 45 71.3031 52.8471 66.3962 64.0714H63.7143C61.9661 64.0714 60.5357 65.5018 60.5357 67.25V86.3214C60.5357 88.0697 61.9661 89.5 63.7143 89.5ZM71.6607 72.0179C71.6607 67.6275 75.9319 64.0714 81.1964 64.0714H109.804C115.068 64.0714 119.339 67.6275 119.339 72.0179V76.7857C119.339 87.3147 110.797 95.8572 100.268 95.8572H90.7321C80.2031 95.8572 71.6607 87.3147 71.6607 76.7857V72.0179ZM85.9643 86.3214L88.3482 79.1697L95.5 76.7857L88.3482 74.4018L85.9643 67.25L83.5804 74.4018L76.4286 76.7857L83.5804 79.1697L85.9643 86.3214ZM116.081 108.85C110.141 112.684 103.089 114.929 95.5 114.929C87.9112 114.929 80.8587 112.684 74.9187 108.85C61.5092 110.26 51 121.484 51 135.271V137.179C51 142.443 55.2712 146.714 60.5357 146.714H76.4286V134C76.4286 130.484 79.2694 127.643 82.7857 127.643H108.214C111.731 127.643 114.571 130.484 114.571 134V146.714H130.464C135.729 146.714 140 142.443 140 137.179V135.271C140 121.484 129.491 110.26 116.081 108.85ZM105.036 134C103.287 134 101.857 135.43 101.857 137.179C101.857 138.927 103.287 140.357 105.036 140.357C106.784 140.357 108.214 138.927 108.214 137.179C108.214 135.43 106.784 134 105.036 134ZM85.9643 134C84.2161 134 82.7857 135.43 82.7857 137.179V146.714H89.1429V137.179C89.1429 135.43 87.7125 134 85.9643 134Z" fill="#A706F1"/>
<path d="M122.2 142.416V130.756C122.2 130.09 122.636 129.55 123.173 129.55H129.014C129.552 129.55 129.988 130.09 129.988 130.756V142.416L126.094 139.602L122.2 142.416Z" fill="#090208"/>
<path d="M110.553 72.8133C109.706 72.8614 108.023 73.0363 106.984 73.6723C106.913 73.7162 106.872 73.7942 106.872 73.8758V79.4982C106.872 79.6767 107.067 79.7895 107.232 79.7066C108.301 79.1686 109.847 79.0218 110.611 78.9816C110.872 78.9679 111.075 78.7587 111.075 78.5079V73.2877C111.075 73.0141 110.838 72.7973 110.553 72.8133ZM106.266 73.6723C105.227 73.0363 103.544 72.8615 102.697 72.8133C102.412 72.7973 102.175 73.0141 102.175 73.2877V78.508C102.175 78.759 102.378 78.9682 102.639 78.9818C103.404 79.022 104.95 79.1689 106.019 79.7072C106.183 79.7899 106.378 79.6773 106.378 79.4993V73.873C106.378 73.7913 106.337 73.7163 106.266 73.6723Z" fill="#A706F1"/>
</g>
<defs>
<filter id="filter0_ii_103_11" x="-4" y="-4" width="209" height="209" filterUnits="userSpaceOnUse" color-interpolation-filters="sRGB">
<feFlood flood-opacity="0" result="BackgroundImageFix"/>
<feBlend mode="normal" in="SourceGraphic" in2="BackgroundImageFix" result="shape"/>
<feColorMatrix in="SourceAlpha" type="matrix" values="0 0 0 0 0 0 0 0 0 0 0 0 0 0 0 0 0 0 127 0" result="hardAlpha"/>
<feOffset dx="13" dy="13"/>
<feGaussianBlur stdDeviation="13"/>
<feComposite in2="hardAlpha" operator="arithmetic" k2="-1" k3="1"/>
<feColorMatrix type="matrix" values="0 0 0 0 0.145486 0 0 0 0 0 0 0 0 0 0.129321 0 0 0 0.2 0"/>
<feBlend mode="normal" in2="shape" result="effect1_innerShadow_103_11"/>
<feColorMatrix in="SourceAlpha" type="matrix" values="0 0 0 0 0 0 0 0 0 0 0 0 0 0 0 0 0 0 127 0" result="hardAlpha"/>
<feOffset dx="-4" dy="-4"/>
<feGaussianBlur stdDeviation="5"/>
<feComposite in2="hardAlpha" operator="arithmetic" k2="-1" k3="1"/>
<feColorMatrix type="matrix" values="0 0 0 0 0.976471 0 0 0 0 0.85098 0 0 0 0 0.976471 0 0 0 0.21 0"/>
<feBlend mode="normal" in2="effect1_innerShadow_103_11" result="effect2_innerShadow_103_11"/>
</filter>
<filter id="filter1_d_103_11" x="36" y="30" width="119" height="131.714" filterUnits="userSpaceOnUse" color-interpolation-filters="sRGB">
<feFlood flood-opacity="0" result="BackgroundImageFix"/>
<feColorMatrix in="SourceAlpha" type="matrix" values="0 0 0 0 0 0 0 0 0 0 0 0 0 0 0 0 0 0 127 0" result="hardAlpha"/>
<feOffset/>
<feGaussianBlur stdDeviation="7.5"/>
<feComposite in2="hardAlpha" operator="out"/>
<feColorMatrix type="matrix" values="0 0 0 0 0.654902 0 0 0 0 0.0235294 0 0 0 0 0.945098 0 0 0 0.8 0"/>
<feBlend mode="normal" in2="BackgroundImageFix" result="effect1_dropShadow_103_11"/>
<feBlend mode="normal" in="SourceGraphic" in2="effect1_dropShadow_103_11" result="shape"/>
</filter>
</defs>
</svg>
