<svg width="40" height="40" viewBox="0 0 40 40" fill="none" xmlns="http://www.w3.org/2000/svg">
<path fill-rule="evenodd" clip-rule="evenodd" d="M20.0416 24.8745C17.3618 24.8745 15.1885 22.6942 15.1885 20.0215C15.1885 17.3488 17.3689 15.1684 20.0416 15.1684C22.7143 15.1684 24.8946 17.3488 24.8946 20.0215C24.8946 22.6942 22.7143 24.8745 20.0416 24.8745ZM20.0416 16.0335C17.8401 16.0335 16.0536 17.82 16.0536 20.0215C16.0536 22.2229 17.8401 24.0094 20.0416 24.0094C22.243 24.0094 24.0295 22.2229 24.0295 20.0215C24.0295 17.82 22.236 16.0335 20.0416 16.0335Z" fill="#EAEEF4"/>
<path d="M26.2309 14.8937C26.2309 15.5502 25.6988 16.0823 25.0423 16.0823C24.3858 16.0823 23.8537 15.5502 23.8537 14.8937C23.8537 14.2372 24.3858 13.7051 25.0423 13.7051C25.6988 13.7051 26.2309 14.2372 26.2309 14.8937Z" fill="#EAEEF4"/>
<path fill-rule="evenodd" clip-rule="evenodd" d="M24.4656 29.3332H15.8004C12.966 29.3332 10.666 27.0262 10.666 24.1988V15.8009C10.666 12.9664 12.973 10.6665 15.8004 10.6665H24.4656C27.3 10.6665 29.607 12.9735 29.607 15.8009V24.1988C29.5999 27.0262 27.293 29.3332 24.4656 29.3332ZM15.7934 11.5246C13.4372 11.5246 11.5241 13.4377 11.5241 15.7939V24.1917C11.5241 26.5479 13.4372 28.461 15.7934 28.461H24.4585C26.8147 28.461 28.7278 26.5479 28.7278 24.1917V15.7939C28.7278 13.4377 26.8147 11.5246 24.4585 11.5246H15.7934Z" fill="#EAEEF4"/>

</svg>
