<svg width="40" height="40" viewBox="0 0 40 40" fill="none" xmlns="http://www.w3.org/2000/svg">
<path fill-rule="evenodd" clip-rule="evenodd" d="M17.3603 27.6323C17.3603 28.0562 17.7037 28.4 18.1275 28.4H21.3654C21.7892 28.4 22.1326 28.0562 22.1326 27.6323V21.6636C22.1326 21.2751 22.2967 20.854 22.5702 20.5301C22.8433 20.2066 23.2167 19.9899 23.6302 19.9899C24.1546 19.9899 24.5418 20.1536 24.7985 20.4273C25.0562 20.7021 25.1942 21.1003 25.1942 21.591V27.6323C25.1942 28.0562 25.5376 28.4 25.9614 28.4H29.1889C29.6127 28.4 29.9561 28.0562 29.9561 27.6323V20.3599C29.9561 19.1774 29.5448 18.0032 28.8301 17.1131C28.1108 16.2172 27.0529 15.5774 25.7822 15.5774C24.1853 15.5774 22.9666 16.1973 22.1326 16.815V16.5664C22.1326 16.1425 21.7892 15.7987 21.3654 15.7987H18.1275C17.7037 15.7987 17.3603 16.1425 17.3603 16.5664V27.6323ZM25.5274 19.8532C25.1376 19.3943 24.5225 19.1185 23.6302 19.1185C22.1889 19.1185 21.2617 20.3651 21.2617 21.6636V27.5286H18.2312V16.6701H21.2617V17.8071C21.2617 18.0347 21.4461 18.2193 21.6737 18.2193C21.7831 18.2193 21.8866 18.176 21.9642 18.1008C22.6459 17.4396 23.918 16.4488 25.7822 16.4488C26.7402 16.4488 27.564 16.9276 28.1511 17.6588C28.7389 18.3908 29.0852 19.3715 29.0852 20.3599V27.5286H26.0651V21.591C26.0651 20.929 25.9145 20.309 25.5274 19.8532Z" fill="#EAEEF4"/>
<path fill-rule="evenodd" clip-rule="evenodd" d="M11.082 27.6323C11.082 28.0562 11.4254 28.4 11.8492 28.4H15.3878C15.8115 28.4 16.1549 28.0562 16.1549 27.6323V16.5664C16.1549 16.1425 15.8115 15.7987 15.3878 15.7987H11.8492C11.4254 15.7987 11.082 16.1425 11.082 16.5664V27.6323ZM11.9529 27.5286V16.6701H15.2841V27.5286H11.9529Z" fill="#EAEEF4"/>
<path fill-rule="evenodd" clip-rule="evenodd" d="M13.6185 15.1209C15.0644 15.1209 16.1549 13.9499 16.1549 12.5776C16.1549 11.1994 15.0587 10.0444 13.6185 10.0444C12.1909 10.0444 11.082 11.1966 11.082 12.5776C11.082 13.9528 12.1852 15.1209 13.6185 15.1209ZM15.2841 12.5776C15.2841 13.4863 14.5659 14.2495 13.6185 14.2495C12.6804 14.2495 11.9529 13.486 11.9529 12.5776C11.9529 11.67 12.6797 10.9158 13.6185 10.9158C14.5667 10.9158 15.2841 11.6696 15.2841 12.5776Z" fill="#EAEEF4"/>

</svg>
