<svg width="160" height="179" viewBox="0 0 160 179" fill="none" xmlns="http://www.w3.org/2000/svg">
<g filter="url(#filter0_d_104_24)">
<path d="M33.5714 80H37.4888C44.6563 96.3951 60.9643 107.857 80 107.857C99.0357 107.857 115.344 96.3951 122.511 80H126.429C128.982 80 131.071 77.9107 131.071 75.3572V47.5C131.071 44.9464 128.982 42.8572 126.429 42.8572H122.511C115.344 26.4621 99.0357 15 80 15C60.9643 15 44.6563 26.4621 37.4888 42.8572H33.5714C31.0179 42.8572 28.9286 44.9464 28.9286 47.5V75.3572C28.9286 77.9107 31.0179 80 33.5714 80ZM45.1786 54.4643C45.1786 48.0514 51.4174 42.8572 59.1071 42.8572H100.893C108.583 42.8572 114.821 48.0514 114.821 54.4643V61.4286C114.821 76.8081 102.344 89.2858 86.9643 89.2858H73.0357C57.6563 89.2858 45.1786 76.8081 45.1786 61.4286V54.4643ZM66.0714 75.3572L69.5536 64.9107L80 61.4286L69.5536 57.9465L66.0714 47.5L62.5893 57.9465L52.1429 61.4286L62.5893 64.9107L66.0714 75.3572ZM110.063 108.263C101.386 113.864 91.0848 117.143 80 117.143C68.9152 117.143 58.6138 113.864 49.9375 108.263C30.3504 110.324 15 126.719 15 146.857V149.643C15 157.333 21.2388 163.572 28.9286 163.572H52.1429V145C52.1429 139.864 56.2924 135.714 61.4286 135.714H98.5714C103.708 135.714 107.857 139.864 107.857 145V163.572H131.071C138.761 163.572 145 157.333 145 149.643V146.857C145 126.719 129.65 110.324 110.063 108.263ZM93.9286 145C91.375 145 89.2857 147.089 89.2857 149.643C89.2857 152.196 91.375 154.286 93.9286 154.286C96.4821 154.286 98.5714 152.196 98.5714 149.643C98.5714 147.089 96.4821 145 93.9286 145ZM66.0714 145C63.5179 145 61.4286 147.089 61.4286 149.643V163.572H70.7143V149.643C70.7143 147.089 68.625 145 66.0714 145Z" fill="#A706F1"/>
<path d="M119 157.294V140.262C119 139.289 119.636 138.5 120.421 138.5H128.953C129.738 138.5 130.375 139.289 130.375 140.262V157.294L124.687 153.183L119 157.294Z" fill="#090208"/>
<path d="M101.988 55.6262C100.751 55.6964 98.2931 55.9519 96.7755 56.8809C96.6708 56.945 96.6114 57.059 96.6114 57.1781V65.3906C96.6114 65.6513 96.8965 65.8161 97.1368 65.6951C98.6982 64.9092 100.956 64.6948 102.073 64.6361C102.454 64.616 102.75 64.3104 102.75 63.9441V56.3191C102.751 55.9194 102.404 55.6028 101.988 55.6262ZM95.7253 56.8809C94.2079 55.9519 91.7496 55.6966 90.5128 55.6262C90.0971 55.6028 89.7504 55.9194 89.7504 56.3191V63.9443C89.7504 64.3109 90.0467 64.6165 90.4279 64.6363C91.5449 64.695 93.8042 64.9097 95.3656 65.696C95.6052 65.8167 95.8894 65.6522 95.8894 65.3922V57.1741C95.8894 57.0547 95.8303 56.9452 95.7253 56.8809Z" fill="#A706F1"/>
</g>
<defs>
<filter id="filter0_d_104_24" x="0" y="0" width="160" height="178.572" filterUnits="userSpaceOnUse" color-interpolation-filters="sRGB">
<feFlood flood-opacity="0" result="BackgroundImageFix"/>
<feColorMatrix in="SourceAlpha" type="matrix" values="0 0 0 0 0 0 0 0 0 0 0 0 0 0 0 0 0 0 127 0" result="hardAlpha"/>
<feOffset/>
<feGaussianBlur stdDeviation="7.5"/>
<feComposite in2="hardAlpha" operator="out"/>
<feColorMatrix type="matrix" values="0 0 0 0 0.654902 0 0 0 0 0.0235294 0 0 0 0 0.945098 0 0 0 0.2 0"/>
<feBlend mode="normal" in2="BackgroundImageFix" result="effect1_dropShadow_104_24"/>
<feBlend mode="normal" in="SourceGraphic" in2="effect1_dropShadow_104_24" result="shape"/>
</filter>
</defs>
</svg>
