<svg width="40" height="40" viewBox="0 0 40 40" fill="none" xmlns="http://www.w3.org/2000/svg">
<path fill-rule="evenodd" clip-rule="evenodd" d="M14.8923 21.6583C14.8767 22.7114 15.727 23.5773 16.7801 23.5851C17.8333 23.5929 18.6992 22.7348 18.707 21.6895C18.707 20.652 17.8645 19.7861 16.827 19.7783C15.766 19.7627 14.9001 20.6052 14.8923 21.6583ZM16.8035 20.7222C17.3184 20.73 17.7396 21.1512 17.7474 21.6661C17.7474 22.1965 17.3184 22.6334 16.788 22.6256C16.2731 22.6178 15.8518 22.1965 15.844 21.6817C15.844 21.1512 16.2731 20.7222 16.8035 20.7222Z" fill="#EAEEF4"/>
<path fill-rule="evenodd" clip-rule="evenodd" d="M25.3689 21.6889C25.3611 22.7421 24.503 23.5923 23.4421 23.5845C22.389 23.5767 21.5465 22.7108 21.5543 21.6499C21.5621 20.6124 22.4202 19.7699 23.4655 19.7699C24.5186 19.7777 25.3689 20.6358 25.3689 21.6889ZM24.4172 21.6889C24.425 21.1741 24.0038 20.7372 23.4889 20.7216C22.9585 20.706 22.5138 21.1351 22.506 21.6655C22.4982 22.1804 22.9195 22.6172 23.4343 22.6328C23.9648 22.6406 24.4094 22.2194 24.4172 21.6889Z" fill="#EAEEF4"/>
<path d="M16.3121 25.4656C17.451 26.3003 18.7303 26.6592 20.1267 26.6826C21.5152 26.6592 22.8024 26.3003 23.9413 25.4578C24.2455 25.2316 24.3158 24.982 24.1441 24.7324C23.9647 24.4827 23.6995 24.4671 23.3874 24.6856C21.3826 26.0741 18.8707 26.0819 16.8737 24.6934C16.5617 24.4749 16.2964 24.4905 16.117 24.7324C15.9376 24.982 16.0078 25.2394 16.3121 25.4656Z" fill="#EAEEF4"/>
<path fill-rule="evenodd" clip-rule="evenodd" d="M14.8053 18.2444C14.5982 18.3442 14.3886 18.4451 14.1746 18.5454C13.7768 18.1476 13.2541 17.9058 12.6691 17.8668C11.5457 17.8044 10.555 18.5064 10.243 19.5829C9.93875 20.6361 10.3834 21.7516 11.3663 22.3054C11.5769 22.4303 11.6159 22.5395 11.5925 22.7657C11.5223 23.4054 11.6237 24.0372 11.8421 24.6379C12.3804 26.1201 13.4335 27.1576 14.7753 27.9143C17.256 29.3184 19.9083 29.5993 22.662 29.0142C24.4016 28.6398 25.9695 27.8987 27.2177 26.5959C28.2474 25.5272 28.8169 24.2635 28.7077 22.7501C28.6921 22.5317 28.7311 22.4225 28.9261 22.3132C29.987 21.7126 30.416 20.48 29.9792 19.3645C29.5423 18.2646 28.3878 17.6327 27.2255 17.9292C26.9252 18.0042 26.6434 18.1567 26.3496 18.3156C26.216 18.3879 26.0798 18.4615 25.9383 18.5298C24.4094 17.5001 22.6386 17.0087 20.704 16.9151C20.9614 15.5031 21.211 14.1223 21.4606 12.7338C22.3499 12.9054 23.3952 13.077 24.2767 13.272C24.3626 13.2876 24.4484 13.4203 24.4718 13.5139C24.6278 14.1223 24.9866 14.5592 25.5483 14.8244C26.461 15.2535 27.5453 14.8712 28.0134 13.9663C28.4736 13.0692 28.1616 11.9693 27.2879 11.4544C26.4064 10.9318 25.2597 11.1892 24.7292 12.0629C24.5732 12.3125 24.4406 12.3359 24.1831 12.2813C23.5217 12.1385 22.8639 12.01 22.2048 11.8812C21.8922 11.8201 21.5793 11.759 21.2656 11.6963C20.8756 11.6183 20.6649 11.7509 20.5947 12.1565C20.4988 12.6855 20.4019 13.2136 20.305 13.7414C20.1263 14.7156 19.9477 15.6889 19.7756 16.6654C19.7444 16.8604 19.682 16.9307 19.4792 16.9385C18.4027 16.9775 17.3496 17.1491 16.3433 17.5469C15.8251 17.7531 15.3229 17.995 14.8053 18.2444ZM14.8611 26.8846C13.769 26.1747 12.8875 25.262 12.6145 23.9358C12.513 23.4444 12.5364 22.9139 12.5832 22.4069C12.63 21.892 12.5988 21.7672 12.1152 21.6268C11.4131 21.4161 10.9685 20.7219 11.0933 20.0198C11.2259 19.2865 11.8734 18.7717 12.6066 18.8263C13.0591 18.8653 13.4179 19.0759 13.6832 19.4425C13.9406 19.7936 14.1668 19.8404 14.5101 19.5908C16.4213 18.1944 18.5821 17.7731 20.899 17.9058C22.6776 18.015 24.3157 18.5454 25.7667 19.6063C26.0865 19.8326 26.3284 19.7858 26.5546 19.4737C26.9681 18.9043 27.5843 18.6936 28.2006 18.8965C28.7856 19.0915 29.1835 19.6609 29.1757 20.285C29.1679 20.9325 28.7466 21.4474 28.0836 21.6424C27.7091 21.7438 27.5687 21.931 27.6389 22.2586C27.99 23.8344 27.4205 25.106 26.2972 26.1669C25.0256 27.376 23.6669 27.9028 21.7415 28.2263C19.3722 28.6244 16.8826 28.2124 14.8611 26.8846ZM26.3362 12.1487C26.851 12.1565 27.2723 12.5856 27.2723 13.1004C27.2723 13.6309 26.8354 14.0599 26.305 14.0521C25.7901 14.0443 25.3689 13.6153 25.3689 13.1004C25.3689 12.57 25.8057 12.1409 26.3362 12.1487Z" fill="#EAEEF4"/>

</svg>
