<svg width="699" height="387" viewBox="0 0 699 387" fill="none" xmlns="http://www.w3.org/2000/svg"><rect y="131" width="248" height="236" rx="16" fill="url(#aestxpv1h)"/><rect x=".5" y="131.5" width="247" height="235" rx="15.5" stroke="url(#bestxpv1h)" stroke-opacity=".2"/><path fill="#3B404B" d="M0 178h248v1H0z"/><path fill="#313747" d="M0 327h248v1H0z"/><path d="M16.8 159h1.49v-6.51h.04l2.64 6.51h1.11l2.64-6.51h.05V159h1.48v-9.16h-1.9l-2.8 7h-.05l-2.8-7h-1.9V159Zm12.73.11c.89 0 1.63-.44 2.02-1.15h.04V159h1.58v-4.63c0-1.35-1.09-2.24-2.77-2.24-1.7 0-2.74.9-2.83 2.09l-.01.08h1.47v-.06c.11-.5.57-.84 1.32-.84.8 0 1.24.4 1.24 1.09v.46l-1.76.1c-1.63.11-2.56.83-2.56 2.02v.01c0 1.2.91 2.03 2.26 2.03Zm-.68-2.09c0-.54.42-.88 1.2-.93l1.54-.1v.51c0 .8-.69 1.4-1.6 1.4-.69 0-1.14-.33-1.14-.88Zm5.6 1.98h1.58v-3.94c0-.95.54-1.53 1.43-1.53a2 2 0 0 1 .64.1v-1.44a2.1 2.1 0 0 0-.5-.06c-.8 0-1.38.48-1.59 1.27h-.03v-1.13h-1.53V159Zm4.53 0h1.59v-2.34l.53-.56 2.13 2.9h1.82l-2.78-3.83 2.67-2.9H43.1l-2.51 2.8h-.03v-5.23h-1.59V159Zm9.32.13c1.76 0 2.75-1.04 2.95-2.07l.02-.07H49.8v.04c-.16.45-.67.87-1.46.87-1.03 0-1.68-.7-1.7-1.88h4.7v-.5c0-2.04-1.19-3.39-3.1-3.39-1.93 0-3.17 1.4-3.17 3.52 0 2.14 1.22 3.48 3.24 3.48Zm-.06-5.76c.84 0 1.45.53 1.56 1.6h-3.15c.12-1.03.75-1.6 1.59-1.6Zm6.62 5.76c.32 0 .6-.03.78-.05v-1.2c-.1.02-.23.03-.38.03-.58 0-.87-.2-.87-.87v-3.55h1.25v-1.22H54.4v-1.7h-1.6v1.7h-.96v1.22h.95v3.69c0 1.38.67 1.95 2.08 1.95Zm7.44 0c1.7 0 2.84-1.06 2.96-2.47v-.04h-1.49l-.01.06a1.4 1.4 0 0 1-1.45 1.18c-1 0-1.65-.82-1.65-2.22 0-1.38.64-2.23 1.64-2.23.84 0 1.32.53 1.45 1.19l.02.05h1.49v-.05c-.1-1.34-1.2-2.47-2.98-2.47-1.96 0-3.23 1.35-3.23 3.5 0 2.16 1.25 3.5 3.25 3.5Zm5.9-.02c.89 0 1.63-.44 2.02-1.15h.04V159h1.58v-4.63c0-1.35-1.09-2.24-2.77-2.24-1.7 0-2.74.9-2.83 2.09l-.01.08h1.47v-.06c.11-.5.57-.84 1.32-.84.8 0 1.24.4 1.24 1.09v.46l-1.76.1c-1.63.11-2.56.83-2.56 2.02v.01c0 1.2.91 2.03 2.26 2.03Zm-.68-2.09c0-.54.42-.88 1.2-.93l1.54-.1v.51c0 .8-.69 1.4-1.6 1.4-.69 0-1.14-.33-1.14-.88Zm5.6 4.2h1.58v-3.36h.03a2.26 2.26 0 0 0 2.1 1.27c1.7 0 2.77-1.33 2.77-3.49 0-2.17-1.08-3.5-2.78-3.5-.97 0-1.7.49-2.1 1.3h-.02v-1.17h-1.58v8.95Zm3.23-3.42c-.98 0-1.67-.84-1.67-2.16 0-1.32.69-2.17 1.67-2.17 1 0 1.64.82 1.64 2.17 0 1.33-.63 2.16-1.64 2.16Z" fill="#B2B5BE"/><rect x="16" y="259" width="51.9" height="23.62" rx="4" fill="#262E44"/><path d="M31.2 271.1v1.05l-4.77 1.94v-.93l4.72-1.8v.57l-4.72-1.8v-.96l4.77 1.93Zm5.93 3.11c-.43 0-.83-.07-1.19-.21a2.1 2.1 0 0 1-.86-.64 1.7 1.7 0 0 1-.35-1.01h.96c.03.2.1.37.2.53.12.16.28.28.48.37a2 2 0 0 0 .77.13c.32 0 .58-.04.78-.12.2-.08.35-.2.44-.34.1-.14.15-.3.15-.48 0-.17-.04-.3-.1-.42a.84.84 0 0 0-.36-.32c-.16-.08-.4-.16-.69-.23l-.69-.16c-.38-.1-.71-.22-.98-.37a1.71 1.71 0 0 1-.61-.56 1.5 1.5 0 0 1-.21-.8v-.02c0-.37.1-.69.3-.96.2-.27.46-.48.8-.63a2.9 2.9 0 0 1 1.16-.22c.43 0 .81.08 1.15.23.34.15.6.37.8.65.2.27.32.6.33.98h-.96c-.02-.22-.09-.4-.2-.56a1.12 1.12 0 0 0-.47-.35c-.19-.07-.4-.12-.65-.12-.28 0-.51.05-.7.13a1 1 0 0 0-.43.34.75.75 0 0 0-.15.44c0 .15.04.28.1.4.08.11.2.21.35.3.15.09.36.17.62.23l.69.16c.6.14 1.07.35 1.4.62.32.27.48.65.48 1.14v.01c0 .4-.11.74-.33 1.02a2 2 0 0 1-.85.63c-.36.14-.75.21-1.18.21Zm-.28.77v-8h.55v8h-.55Zm6.26-.67v-5.6h-.08l-1.67 1.2v-1.01l1.75-1.25h1.03v6.66h-1.03Zm5.82.16c-.51 0-.95-.14-1.31-.42a2.7 2.7 0 0 1-.84-1.2c-.2-.53-.3-1.15-.3-1.87 0-.72.1-1.34.3-1.86.2-.52.47-.92.84-1.2.36-.29.8-.43 1.3-.43.52 0 .95.14 1.32.43.36.28.65.68.84 1.2.2.52.3 1.14.3 1.86 0 .72-.1 1.34-.3 1.86-.2.52-.48.93-.84 1.2-.37.3-.8.43-1.31.43Zm0-.86c.3 0 .54-.1.75-.32.21-.21.37-.51.48-.9.11-.4.17-.86.17-1.4v-.01c0-.55-.06-1.01-.17-1.4a2.03 2.03 0 0 0-.48-.9c-.2-.22-.46-.32-.75-.32-.3 0-.55.1-.76.32-.2.2-.36.5-.47.9-.12.39-.17.85-.17 1.4 0 .55.05 1.01.17 1.4.1.4.26.7.47.91.21.21.46.32.76.32Zm4.21.7v-.84h2.02c.46 0 .82-.1 1.06-.29.24-.18.36-.45.36-.81v-.01c0-.24-.06-.44-.17-.6a1 1 0 0 0-.5-.36c-.22-.08-.49-.13-.81-.13h-1.96v-.78h1.75c.46 0 .8-.09 1.04-.25a.85.85 0 0 0 .35-.74v-.01c0-.31-.1-.56-.32-.73a1.36 1.36 0 0 0-.9-.26h-1.92v-.85h2.17c.41 0 .77.07 1.07.2.3.14.53.33.7.58.15.25.23.54.23.88 0 .24-.05.46-.16.66-.1.2-.24.37-.42.51-.17.14-.37.23-.6.26v.08c.31.03.57.12.8.27a1.53 1.53 0 0 1 .71 1.33v.01c0 .39-.09.73-.27 1-.19.29-.45.5-.78.65a3 3 0 0 1-1.22.23h-2.23Zm-.51 0v-6.66h1.03v6.66h-1.03Z" fill="#7E879C"/><rect x="71.9" y="259" width="70.9" height="23.62" rx="4" fill="#262E44"/><path d="M84.6 274.21c-.46 0-.86-.07-1.23-.21a2.08 2.08 0 0 1-.88-.64 1.71 1.71 0 0 1-.35-1.01l1.08-.01c.03.2.1.36.2.5.11.15.26.26.46.34.2.08.44.12.73.12.3 0 .55-.04.74-.11a.9.9 0 0 0 .43-.3c.1-.13.14-.28.14-.45v-.01a.7.7 0 0 0-.1-.4.84.84 0 0 0-.36-.28 3.12 3.12 0 0 0-.67-.23l-.69-.16c-.4-.09-.73-.21-1-.37a1.68 1.68 0 0 1-.62-.57c-.14-.23-.2-.5-.2-.82v-.01c0-.38.1-.7.3-.98.2-.28.47-.49.82-.63a3 3 0 0 1 1.19-.23c.45 0 .85.08 1.2.24.35.15.62.37.83.65.2.28.31.61.33 1h-1.07a.97.97 0 0 0-.21-.53 1.06 1.06 0 0 0-.44-.33 1.64 1.64 0 0 0-.63-.11c-.27 0-.49.04-.67.11a.95.95 0 0 0-.41.3.69.69 0 0 0-.14.42v.01c0 .14.04.26.1.37.08.1.2.2.35.28.15.09.36.16.62.22l.68.16a3.3 3.3 0 0 1 1.41.62c.32.27.48.66.48 1.16 0 .41-.1.76-.32 1.04a2 2 0 0 1-.87.64c-.37.14-.78.21-1.24.21Zm-.27.76v-7.99h.54v7.99h-.54Zm6.27-.66v-5.49h-.08L88.86 270v-1.11l1.74-1.23h1.19v6.66h-1.2Zm4.32 0v-.92h1.98c.44 0 .77-.1 1-.27a.94.94 0 0 0 .34-.78.99.99 0 0 0-.16-.58.94.94 0 0 0-.47-.34 2.2 2.2 0 0 0-.76-.12h-1.93v-.84h1.74c.42 0 .74-.08.96-.24a.8.8 0 0 0 .33-.7c0-.3-.1-.53-.3-.7-.2-.16-.48-.24-.84-.24h-1.9v-.93h2.2c.42 0 .78.07 1.08.2.3.14.53.33.7.58.16.24.24.54.24.88a1.47 1.47 0 0 1-.59 1.16 1.3 1.3 0 0 1-.6.27v.08c.3.03.56.12.79.26a1.56 1.56 0 0 1 .72 1.33v.01c0 .4-.09.73-.27 1-.18.3-.45.51-.79.66-.34.16-.75.23-1.22.23h-2.25Zm-.6 0v-6.66h1.2v6.66h-1.2Zm8.48-2.16v-1.05h3.08v1.05h-3.08Zm9.06 2.06c-.45 0-.86-.07-1.22-.21a2.09 2.09 0 0 1-.88-.64 1.71 1.71 0 0 1-.35-1.01l1.08-.01c.03.2.1.36.2.5.11.15.26.26.45.34.2.08.44.12.73.12.3 0 .55-.04.75-.11a.9.9 0 0 0 .43-.3c.09-.13.13-.28.13-.45v-.01a.7.7 0 0 0-.1-.4.83.83 0 0 0-.35-.28 3.13 3.13 0 0 0-.68-.23l-.68-.16c-.4-.09-.73-.21-1-.37a1.68 1.68 0 0 1-.62-.57c-.14-.23-.21-.5-.21-.82v-.01c0-.38.1-.7.3-.98.2-.28.48-.49.83-.63a3 3 0 0 1 1.19-.23c.45 0 .85.08 1.2.24a2 2 0 0 1 .83.65c.2.28.31.61.32 1h-1.07a.97.97 0 0 0-.2-.53 1.06 1.06 0 0 0-.45-.33 1.64 1.64 0 0 0-.62-.11c-.27 0-.5.04-.67.11a.96.96 0 0 0-.42.3.69.69 0 0 0-.13.42v.01c0 .14.03.26.1.37.08.1.2.2.34.28.16.09.37.16.62.22l.69.16a3.3 3.3 0 0 1 1.4.62c.33.27.5.66.5 1.16 0 .41-.12.76-.33 1.04a2 2 0 0 1-.88.64c-.36.14-.78.21-1.23.21Zm-.26.76v-7.99h.54v7.99h-.54Zm6.26-.66v-5.49h-.08l-1.65 1.17v-1.11l1.74-1.23h1.18v6.66h-1.19Zm6.01.17c-.53 0-.98-.15-1.35-.43a2.7 2.7 0 0 1-.86-1.2 5.2 5.2 0 0 1-.3-1.87c0-.72.1-1.34.3-1.86.2-.52.49-.93.86-1.2.37-.3.82-.43 1.35-.43.52 0 .97.14 1.35.42.37.28.66.69.86 1.21.2.52.3 1.14.3 1.86 0 .72-.1 1.34-.3 1.86-.2.53-.49.93-.86 1.21-.38.28-.83.43-1.35.43Zm0-.97c.28 0 .52-.1.71-.3.2-.2.35-.5.45-.87.1-.38.16-.83.16-1.36 0-.53-.05-.98-.16-1.36-.1-.38-.25-.66-.45-.86a.94.94 0 0 0-.71-.3c-.28 0-.51.1-.71.3-.2.2-.35.49-.45.86-.1.38-.15.83-.15 1.36 0 .53.05.98.15 1.36a2 2 0 0 0 .45.87c.2.2.43.3.71.3Zm4.33.8v-.92h1.98c.44 0 .77-.1 1-.27a.94.94 0 0 0 .34-.78.98.98 0 0 0-.16-.58.93.93 0 0 0-.47-.34 2.2 2.2 0 0 0-.76-.12h-1.93v-.84h1.74c.42 0 .74-.08.96-.24a.8.8 0 0 0 .33-.7c0-.3-.1-.53-.3-.7-.2-.16-.48-.24-.84-.24h-1.9v-.93h2.19c.42 0 .79.07 1.09.2.3.14.53.33.7.58.16.24.24.54.24.88a1.48 1.48 0 0 1-.58 1.16c-.18.15-.38.23-.6.27v.08c.3.03.55.12.78.26a1.56 1.56 0 0 1 .72 1.33v.01c0 .4-.09.73-.27 1-.19.3-.45.51-.79.66-.34.16-.75.23-1.22.23h-2.25Zm-.6 0v-6.66h1.2v6.66h-1.2Z" fill="#7E879C"/><g clip-path="url(#cestxpv1h)"><rect x="16" y="287.35" width="84.9" height="23.62" rx="4" fill="#262E44"/><path d="M28.5 302.56c-.4 0-.78-.07-1.13-.22a2.1 2.1 0 0 1-.86-.64c-.21-.28-.33-.6-.34-1h.8c.03.22.1.4.22.58.11.17.28.31.5.41.21.1.49.15.83.15.34 0 .62-.05.83-.14a1 1 0 0 0 .46-.38c.1-.16.15-.33.15-.52v-.01a.95.95 0 0 0-.1-.45.89.89 0 0 0-.36-.34c-.17-.1-.4-.19-.7-.26l-.7-.17c-.38-.09-.7-.2-.96-.36a1.64 1.64 0 0 1-.6-.55c-.13-.22-.2-.48-.2-.78 0-.37.1-.68.28-.94.2-.27.45-.48.78-.62.32-.15.7-.22 1.1-.22.4 0 .76.07 1.09.22.32.15.59.37.79.64.2.27.3.59.31.95l-.8.01a1.12 1.12 0 0 0-.7-.98 1.7 1.7 0 0 0-.68-.13c-.3 0-.55.06-.75.15-.2.1-.36.22-.47.38a.85.85 0 0 0-.05.9c.07.12.19.24.34.33.16.1.37.18.64.25l.69.16c.6.14 1.05.35 1.37.62.32.26.48.64.48 1.12v.01c0 .4-.1.73-.31 1-.21.28-.49.48-.83.62-.34.14-.71.2-1.11.2Zm-.29.76v-7.99h.56v8h-.56Zm6.23-.66v-5.74h-.07l-1.7 1.23v-.88l1.78-1.27h.82v6.66h-.83Zm5.56.15c-.49 0-.9-.14-1.26-.42a2.68 2.68 0 0 1-.8-1.2 5.5 5.5 0 0 1-.28-1.86v-.01c0-.71.09-1.33.28-1.85.18-.52.45-.92.8-1.2.35-.29.77-.43 1.26-.43.5 0 .92.14 1.27.43.35.28.62.68.8 1.2.2.52.3 1.14.3 1.85v.01c0 .71-.1 1.33-.3 1.85-.18.52-.45.93-.8 1.2-.35.3-.77.43-1.27.43Zm0-.72c.32 0 .6-.11.82-.34.23-.22.4-.54.52-.95.13-.42.19-.9.19-1.47v-.01c0-.56-.06-1.05-.19-1.46-.12-.41-.3-.73-.52-.95-.22-.23-.5-.34-.82-.34-.31 0-.58.11-.81.34-.23.22-.4.54-.52.95-.12.4-.18.9-.18 1.46v.01c0 .57.06 1.06.18 1.47.12.4.3.73.52.95.23.23.5.34.81.34Zm3.65.57V296h.96l2.28 5.55h.07l2.28-5.55h.97v6.66h-.78v-5.09h-.4l.93-1.39-2.68 6.48h-.7l-2.68-6.48.93 1.4h-.4v5.08h-.78Zm10.37-2.31v-.75h3.1v.75h-3.1Zm9.06 2.2c-.4 0-.79-.06-1.14-.21a2.1 2.1 0 0 1-.85-.64c-.22-.28-.33-.6-.35-1h.8c.04.22.1.4.22.58.12.17.28.31.5.41.21.1.5.15.83.15.35 0 .63-.05.84-.14.2-.1.36-.22.46-.38.1-.16.14-.33.14-.52v-.01a.95.95 0 0 0-.1-.45.88.88 0 0 0-.36-.34c-.16-.1-.4-.19-.7-.26l-.69-.17c-.38-.09-.7-.2-.97-.36a1.64 1.64 0 0 1-.6-.55c-.13-.22-.2-.48-.2-.78 0-.37.1-.68.29-.94.19-.27.44-.48.77-.62.33-.15.7-.22 1.11-.22.4 0 .76.07 1.08.22.33.15.6.37.8.64.19.27.3.59.3.95l-.8.01a1.12 1.12 0 0 0-.7-.98 1.7 1.7 0 0 0-.68-.13c-.3 0-.55.06-.75.15-.2.1-.36.22-.46.38a.85.85 0 0 0-.05.9c.07.12.18.24.34.33.16.1.37.18.64.25l.68.16c.6.14 1.05.35 1.37.62.32.26.48.64.48 1.12v.01c0 .4-.1.73-.31 1-.2.28-.48.48-.83.62-.34.14-.7.2-1.1.2Zm-.3.77v-7.99h.56v8h-.55Zm6.24-.66v-5.74h-.08l-1.69 1.23v-.88l1.77-1.27h.83v6.66h-.83Zm5.56.15c-.5 0-.92-.14-1.27-.42a2.68 2.68 0 0 1-.8-1.2 5.5 5.5 0 0 1-.28-1.86v-.01c0-.71.1-1.33.28-1.85.19-.52.46-.92.8-1.2.35-.29.78-.43 1.27-.43s.91.14 1.26.43c.35.28.62.68.81 1.2.2.52.29 1.14.29 1.85v.01c0 .71-.1 1.33-.29 1.85-.19.52-.46.93-.8 1.2-.36.3-.78.43-1.27.43Zm0-.72c.32 0 .6-.11.81-.34.23-.22.4-.54.53-.95.12-.42.18-.9.18-1.47v-.01c0-.56-.06-1.05-.18-1.46-.12-.41-.3-.73-.53-.95-.22-.23-.5-.34-.81-.34-.32 0-.6.11-.82.34-.22.22-.4.54-.51.95-.12.4-.18.9-.18 1.46v.01c0 .57.06 1.06.18 1.47.11.4.29.73.51.95.23.23.5.34.82.34Zm5.76.72c-.49 0-.91-.14-1.26-.42a2.68 2.68 0 0 1-.8-1.2 5.5 5.5 0 0 1-.29-1.86v-.01c0-.71.1-1.33.29-1.85.18-.52.45-.92.8-1.2.35-.29.77-.43 1.26-.43.5 0 .92.14 1.27.43.35.28.62.68.8 1.2.2.52.29 1.14.29 1.85v.01c0 .71-.1 1.33-.29 1.85-.18.52-.45.93-.8 1.2-.35.3-.78.43-1.27.43Zm0-.72c.32 0 .6-.11.82-.34.23-.22.4-.54.52-.95.12-.42.19-.9.19-1.47v-.01c0-.56-.07-1.05-.19-1.46-.12-.41-.3-.73-.52-.95-.23-.23-.5-.34-.82-.34-.31 0-.59.11-.81.34-.23.22-.4.54-.52.95-.12.4-.18.9-.18 1.46v.01c0 .57.06 1.06.18 1.47.12.4.3.73.52.95.22.23.5.34.81.34Zm3.64.57V296h.97l2.28 5.55h.07l2.28-5.55h.97v6.66h-.78v-5.09h-.4l.93-1.39-2.68 6.48h-.7l-2.68-6.48.93 1.4h-.41v5.08h-.78Z" fill="#7E879C"/></g><g clip-path="url(#destxpv1h)"><rect x="104.9" y="287.35" width="73.9" height="23.62" rx="4" fill="#262E44"/><path d="M117.67 302.56c-.41 0-.79-.07-1.14-.22a2.1 2.1 0 0 1-.86-.64 1.7 1.7 0 0 1-.34-1h.8c.03.22.1.4.22.58.11.17.28.31.5.41.21.1.49.15.83.15.34 0 .62-.05.83-.14.21-.1.37-.22.46-.38.1-.16.15-.33.15-.52v-.01a.96.96 0 0 0-.1-.45.88.88 0 0 0-.36-.34c-.17-.1-.4-.19-.7-.26l-.7-.17c-.37-.09-.7-.2-.96-.36a1.64 1.64 0 0 1-.6-.55c-.13-.22-.2-.48-.2-.78 0-.37.1-.68.28-.94.2-.27.45-.48.78-.62.32-.15.7-.22 1.1-.22.4 0 .77.07 1.09.22.32.15.59.37.79.64.2.27.3.59.31.95l-.8.01a1.12 1.12 0 0 0-.7-.98 1.7 1.7 0 0 0-.68-.13c-.3 0-.55.06-.75.15-.2.1-.36.22-.47.38a.86.86 0 0 0-.05.9c.08.12.19.24.35.33.15.1.36.18.63.25l.69.16c.6.14 1.05.35 1.37.62.32.26.48.64.48 1.12v.01c0 .4-.1.73-.31 1-.21.28-.49.48-.83.62-.34.14-.71.2-1.11.2Zm-.3.76v-7.99h.56v8h-.56Zm6.23-.66v-5.74h-.07l-1.7 1.23v-.88l1.78-1.27h.82v6.66h-.83Zm3.44 0V296h.97l2.28 5.55h.07l2.28-5.55h.96v6.66h-.77v-5.09h-.4l.92-1.39-2.68 6.48h-.7l-2.67-6.48.92 1.4h-.4v5.08h-.78Zm10.37-2.31v-.75h3.1v.75h-3.1Zm9.07 2.2c-.41 0-.79-.06-1.14-.21a2.1 2.1 0 0 1-.85-.64 1.7 1.7 0 0 1-.35-1h.8c.03.22.1.4.22.58.11.17.28.31.5.41.21.1.49.15.83.15.34 0 .62-.05.83-.14.22-.1.37-.22.46-.38.1-.16.15-.33.15-.52v-.01a.96.96 0 0 0-.1-.45.88.88 0 0 0-.36-.34c-.17-.1-.4-.19-.7-.26l-.7-.17c-.37-.09-.7-.2-.96-.36a1.64 1.64 0 0 1-.6-.55c-.13-.22-.2-.48-.2-.78 0-.37.1-.68.28-.94.2-.27.45-.48.78-.62.32-.15.7-.22 1.1-.22.4 0 .77.07 1.09.22.32.15.59.37.79.64.2.27.3.59.31.95l-.8.01a1.12 1.12 0 0 0-.7-.98 1.7 1.7 0 0 0-.68-.13c-.3 0-.55.06-.75.15-.2.1-.36.22-.47.38a.86.86 0 0 0-.05.9c.07.12.19.24.35.33.15.1.37.18.63.25l.69.16c.6.14 1.05.35 1.37.62.32.26.48.64.48 1.12v.01c0 .4-.1.73-.31 1-.21.28-.49.48-.83.62-.34.14-.71.2-1.11.2Zm-.3.77v-7.99h.56v8h-.56Zm6.23-.66v-5.74h-.07l-1.7 1.23v-.88l1.78-1.27h.82v6.66h-.83Zm5.56.15c-.49 0-.9-.14-1.26-.42a2.68 2.68 0 0 1-.8-1.2 5.49 5.49 0 0 1-.28-1.86v-.01c0-.71.09-1.33.28-1.85.19-.52.45-.92.8-1.2.35-.29.77-.43 1.26-.43.5 0 .92.14 1.27.43.35.28.62.68.8 1.2.2.52.3 1.14.3 1.85v.01c0 .71-.1 1.33-.3 1.85-.18.52-.45.93-.8 1.2-.35.3-.77.43-1.27.43Zm0-.72c.32 0 .6-.11.82-.34.23-.22.4-.54.52-.95.13-.42.19-.9.19-1.47v-.01c0-.56-.06-1.05-.19-1.46-.12-.41-.3-.73-.52-.95a1.1 1.1 0 0 0-.81-.34c-.32 0-.6.11-.82.34-.23.22-.4.54-.52.95-.12.4-.18.9-.18 1.46v.01c0 .57.06 1.06.18 1.47.12.4.3.73.52.95.23.23.5.34.81.34Zm3.65.57V296h.96l2.28 5.55h.07l2.28-5.55h.97v6.66h-.78v-5.09h-.4l.93-1.39-2.68 6.48h-.7l-2.68-6.48.93 1.4h-.4v5.08h-.78Z" fill="#7E879C"/></g><rect x="192" y="336" width="40" height="20" rx="4.38" fill="#2962FF"/><path d="M201.1 349h.84l.64-1.82h2.53l.64 1.82h.84l-2.35-6.37h-.78L201.1 349Zm2.74-5.41h.02l1.02 2.91h-2.06l1.02-2.91Zm3.36 6.95h.77v-2.3h.01c.29.52.82.85 1.47.85 1.15 0 1.94-.93 1.94-2.38 0-1.45-.78-2.39-1.95-2.39a1.6 1.6 0 0 0-1.46.87h-.01v-.78h-.77v6.13Zm2.09-2.13c-.77 0-1.33-.68-1.33-1.7 0-1.03.55-1.7 1.33-1.7.81 0 1.31.64 1.31 1.7 0 1.05-.5 1.7-1.31 1.7Zm2.88 2.13h.76v-2.3h.02c.29.52.82.85 1.47.85 1.15 0 1.94-.93 1.94-2.38 0-1.45-.78-2.39-1.95-2.39a1.6 1.6 0 0 0-1.46.87h-.02v-.78h-.76v6.13Zm2.09-2.13c-.77 0-1.33-.68-1.33-1.7 0-1.03.55-1.7 1.33-1.7.81 0 1.31.64 1.31 1.7 0 1.05-.5 1.7-1.31 1.7Zm2.92.59h.76v-6.37h-.76V349Zm2.24 1.54c.83 0 1.23-.38 1.56-1.25l1.79-4.88h-.8l-1.28 3.82h-.02l-1.26-3.82h-.82l1.7 4.6-.1.25c-.18.53-.45.65-.93.65-.1 0-.18-.01-.25-.03v.63c.1.02.26.03.41.03Z" fill="#F8F9FD"/><path d="M155.78 349.1c1.33 0 2.35-.78 2.6-2v-.05h-.8l-.02.04c-.27.84-.9 1.28-1.78 1.28-1.27 0-2.1-1-2.1-2.56 0-1.55.83-2.55 2.1-2.55.9 0 1.52.45 1.77 1.22l.03.1h.8v-.05c-.25-1.2-1.28-2-2.6-2-1.78 0-2.91 1.28-2.91 3.28 0 2 1.14 3.3 2.9 3.3Zm4.76-.01c.62 0 1.17-.33 1.44-.84h.01v.75h.77v-3.17c0-.92-.68-1.5-1.76-1.5s-1.74.6-1.8 1.36l-.01.05h.74v-.05c.1-.4.47-.69 1.06-.69.64 0 1 .34 1 .9v.39l-1.31.07c-1.06.06-1.67.55-1.67 1.33v.01c0 .84.62 1.39 1.53 1.39Zm-.74-1.39c0-.43.35-.7.97-.74l1.22-.08v.38c0 .66-.55 1.16-1.28 1.16-.55 0-.9-.28-.9-.72Zm3.94 1.3h.76v-2.7c0-.78.48-1.3 1.2-1.3.7 0 1.06.41 1.06 1.16V349h.76v-2.98c0-1.04-.58-1.7-1.59-1.7-.7 0-1.16.32-1.4.74h-.03v-.65h-.76V349Zm6.66.09c1.04 0 1.8-.68 1.92-1.55v-.03h-.75l-.01.03c-.13.52-.53.87-1.16.87-.79 0-1.34-.63-1.34-1.7 0-1.05.54-1.7 1.34-1.7.67 0 1.04.4 1.16.86v.03h.75v-.03c-.1-.79-.77-1.55-1.91-1.55-1.28 0-2.12.93-2.12 2.38 0 1.46.82 2.39 2.12 2.39Zm4.52 0c1 0 1.75-.6 1.9-1.36v-.05h-.75v.05c-.14.39-.55.68-1.13.68-.82 0-1.34-.55-1.36-1.5h3.3v-.28c0-1.38-.76-2.3-2.01-2.3-1.25 0-2.06.97-2.06 2.39 0 1.45.79 2.37 2.1 2.37Zm-.05-4.09c.67 0 1.16.42 1.23 1.31h-2.5c.08-.85.6-1.3 1.27-1.3Zm2.83 4h.77v-6.37h-.77V349Z" fill="#D1D4DC"/><rect x="146.41" y="336.41" width="39.18" height="19.18" rx="3.97" stroke="#434651" stroke-width=".82"/><path d="M16.55 246h.65v-4.35h.03l1.8 4.35h.6l1.8-4.35h.02V246h.65v-5.64h-.81l-1.95 4.75h-.03l-1.95-4.75h-.81V246Zm9.43.1c1.6 0 2.6-1.13 2.6-2.92s-1-2.91-2.6-2.91-2.6 1.12-2.6 2.9v.01c0 1.8 1 2.91 2.6 2.91Zm0-.66c-1.16 0-1.88-.87-1.88-2.26 0-1.4.73-2.26 1.88-2.26s1.87.87 1.87 2.26c0 1.38-.71 2.26-1.87 2.26Zm5.71.65c1.29 0 2.08-.63 2.08-1.63 0-.86-.48-1.33-1.64-1.59l-.62-.13c-.74-.16-1.08-.45-1.08-.91 0-.55.5-.9 1.25-.91.71 0 1.2.34 1.28.91v.06h.71v-.06c-.07-.92-.87-1.56-1.97-1.56-1.16 0-1.98.65-1.99 1.57 0 .83.52 1.33 1.62 1.57l.63.14c.77.17 1.1.45 1.1.94 0 .59-.52.95-1.33.95-.82 0-1.36-.34-1.45-.9v-.06h-.7v.05c.07.97.9 1.56 2.11 1.56Zm4.58-.09h.7v-5h1.78v-.64h-4.26v.64h1.78v5Zm7.5.1c1.3 0 2.09-.64 2.09-1.64 0-.86-.49-1.33-1.65-1.59l-.62-.13c-.73-.16-1.07-.45-1.07-.91 0-.55.49-.9 1.24-.91.72 0 1.2.34 1.28.91l.01.06h.7v-.06c-.06-.92-.87-1.56-1.97-1.56-1.16 0-1.98.65-1.98 1.57 0 .83.51 1.33 1.61 1.57l.63.14c.77.17 1.1.45 1.1.94 0 .59-.52.95-1.33.95s-1.36-.34-1.44-.9l-.01-.06h-.7v.05c.07.97.9 1.56 2.11 1.56Zm3.31-.1h3.5v-.63h-2.8v-1.94h2.65v-.63h-2.65V241h2.8v-.64h-3.5V246Zm4.37 0h.74l.57-1.61H55l.57 1.61h.73l-2.07-5.64h-.7L51.45 246Zm2.42-4.8h.02l.9 2.59h-1.83l.91-2.58Zm3.48 4.8h.7v-2.23h1.35l1.2 2.23h.83l-1.3-2.34a1.6 1.6 0 0 0 1.13-1.6v-.02c0-1.01-.71-1.68-1.8-1.68h-2.11V246Zm.7-2.85v-2.16h1.32c.72 0 1.16.4 1.16 1.07 0 .7-.4 1.09-1.13 1.09h-1.35Zm6.85 2.94c1.18 0 2.08-.7 2.3-1.77v-.04h-.7l-.02.03c-.24.75-.79 1.13-1.58 1.13-1.12 0-1.85-.89-1.85-2.26 0-1.38.73-2.26 1.85-2.26.8 0 1.35.4 1.57 1.08l.02.09h.72l-.01-.04c-.22-1.07-1.13-1.78-2.3-1.78-1.57 0-2.57 1.13-2.57 2.9v.01c0 1.77 1 2.91 2.57 2.91Zm3.54-.09h.7v-2.57h3.1V246h.7v-5.64h-.7v2.44h-3.1v-2.44h-.7V246Zm6 0h3.48v-.63h-2.79v-1.94h2.65v-.63h-2.65V241h2.8v-.64h-3.5V246Zm4.81 0h1.9c1.67 0 2.66-1.04 2.66-2.82 0-1.78-1-2.82-2.66-2.82h-1.9V246Zm.7-.63V241h1.15c1.28 0 1.99.77 1.99 2.18 0 1.4-.71 2.19-1.99 2.19h-1.14Zm7.17.63h.7v-2.23h1.35l1.21 2.23h.83l-1.3-2.34a1.6 1.6 0 0 0 1.12-1.6v-.02c0-1.01-.7-1.68-1.8-1.68h-2.1V246Zm.7-2.85v-2.16h1.32c.73 0 1.17.4 1.17 1.07 0 .7-.41 1.09-1.14 1.09h-1.34Zm4.05 2.85h.74l.57-1.61h2.24l.56 1.61h.74l-2.08-5.64h-.7L91.88 246Zm2.42-4.8h.01l.91 2.59h-1.83l.9-2.58Zm3.48 4.8h.7v-4.45h.01l3.1 4.45h.69v-5.64h-.7v4.45h-.02l-3.1-4.45h-.68V246Zm8.35.1c1.5 0 2.4-.9 2.4-2.43v-.54h-2.3v.62h1.6v.1c0 .95-.7 1.6-1.7 1.6-1.14 0-1.86-.88-1.86-2.3 0-1.4.7-2.23 1.86-2.23.8 0 1.34.4 1.6 1.12l.02.05h.74l-.02-.08c-.26-1-1.04-1.74-2.34-1.74-1.57 0-2.58 1.12-2.58 2.88 0 1.8 1.01 2.94 2.58 2.94Zm3.7-.1h3.49v-.63h-2.79v-1.94h2.65v-.63h-2.65V241h2.79v-.64h-3.5V246Zm6.66.1c1.3 0 2.08-.64 2.08-1.64 0-.86-.48-1.33-1.64-1.59l-.62-.13c-.73-.16-1.08-.45-1.08-.91 0-.55.5-.9 1.25-.91.72 0 1.2.34 1.28.91l.01.06h.7v-.06c-.06-.92-.87-1.56-1.97-1.56-1.16 0-1.98.65-1.98 1.57 0 .83.51 1.33 1.61 1.57l.63.14c.77.17 1.1.45 1.1.94 0 .59-.52.95-1.33.95s-1.36-.34-1.44-.9l-.01-.06h-.7v.05c.07.97.9 1.56 2.11 1.56Z" fill="#9598A1"/><path d="M25.62 349h.79v-2.52h1.52L29.3 349h.93l-1.48-2.64c.8-.25 1.28-.94 1.28-1.82v-.01c0-1.15-.8-1.9-2.03-1.9h-2.38V349Zm.79-3.22v-2.44h1.49c.81 0 1.31.45 1.31 1.2v.02c0 .78-.46 1.22-1.28 1.22h-1.52Zm6.4 3.3c1 0 1.75-.6 1.9-1.35v-.05h-.75l-.01.05c-.14.39-.55.68-1.13.68-.81 0-1.34-.55-1.35-1.5h3.3v-.28c0-1.38-.76-2.3-2.01-2.3-1.26 0-2.07.97-2.07 2.39 0 1.45.8 2.37 2.11 2.37Zm-.06-4.08c.67 0 1.17.42 1.24 1.31h-2.51c.08-.85.6-1.3 1.27-1.3Zm4.43 4.09c1.02 0 1.78-.57 1.78-1.37 0-.66-.34-1.02-1.26-1.25l-.73-.18c-.5-.12-.72-.34-.72-.65 0-.4.35-.68.9-.68.57 0 .91.3.98.74v.04h.73v-.06c-.06-.77-.7-1.36-1.7-1.36s-1.7.56-1.7 1.35c0 .67.43 1.07 1.3 1.28l.72.18c.52.12.7.3.7.64 0 .42-.38.68-1 .68-.63 0-.97-.27-1.06-.73v-.04h-.77v.04c.1.82.75 1.37 1.83 1.37Zm4.47 0c1 0 1.75-.6 1.9-1.36v-.05h-.75l-.01.05c-.13.39-.54.68-1.13.68-.81 0-1.33-.55-1.35-1.5h3.3v-.28c0-1.38-.76-2.3-2.01-2.3-1.26 0-2.07.97-2.07 2.39 0 1.45.8 2.37 2.12 2.37Zm-.06-4.09c.67 0 1.17.42 1.24 1.31h-2.5c.08-.85.6-1.3 1.26-1.3Zm4.3 4.09c.14 0 .3-.02.4-.03v-.63l-.24.02c-.41 0-.63-.13-.63-.62v-2.78h.87v-.64h-.87v-1.24h-.8v1.24h-.67v.64h.68v2.78c0 .88.41 1.26 1.25 1.26Z" fill="#D1D4DC"/><rect x="16.41" y="336.41" width="39.18" height="19.18" rx="3.97" stroke="#434651" stroke-width=".82"/><rect x="16.5" y="195.5" width="102" height="25" rx="3.5" stroke="#3A404E"/><path d="M26.23 211h.85v-7.05h-.86l-1.87 1.35v.89l1.86-1.3h.02V211Zm7.88.12c1.62 0 2.59-1.4 2.59-3.64v-.01c0-2.24-.97-3.63-2.59-3.63-1.62 0-2.57 1.4-2.57 3.63 0 2.25.95 3.65 2.57 3.65Zm0-.77c-1.07 0-1.7-1.1-1.7-2.87v-.01c0-1.77.63-2.86 1.7-2.86 1.07 0 1.7 1.1 1.7 2.86 0 1.78-.63 2.88-1.7 2.88Zm6.05.77c1.61 0 2.58-1.4 2.58-3.64v-.01c0-2.24-.97-3.63-2.58-3.63-1.62 0-2.58 1.4-2.58 3.63 0 2.25.96 3.65 2.58 3.65Zm0-.77c-1.08 0-1.7-1.1-1.7-2.87v-.01c0-1.77.62-2.86 1.7-2.86 1.07 0 1.7 1.1 1.7 2.86 0 1.78-.63 2.88-1.7 2.88Zm6.04.77c1.62 0 2.59-1.4 2.59-3.64v-.01c0-2.24-.97-3.63-2.59-3.63-1.62 0-2.58 1.4-2.58 3.63 0 2.25.96 3.65 2.58 3.65Zm0-.77c-1.07 0-1.7-1.1-1.7-2.87v-.01c0-1.77.63-2.86 1.7-2.86 1.07 0 1.7 1.1 1.7 2.86 0 1.78-.63 2.88-1.7 2.88Zm8.1.77c1.62 0 2.58-1.4 2.58-3.64v-.01c0-2.24-.97-3.63-2.58-3.63-1.62 0-2.58 1.4-2.58 3.63 0 2.25.96 3.65 2.58 3.65Zm0-.77c-1.08 0-1.7-1.1-1.7-2.87v-.01c0-1.77.62-2.86 1.7-2.86 1.07 0 1.7 1.1 1.7 2.86 0 1.78-.63 2.88-1.7 2.88Zm6.04.77c1.62 0 2.59-1.4 2.59-3.64v-.01c0-2.24-.97-3.63-2.59-3.63-1.62 0-2.57 1.4-2.57 3.63 0 2.25.95 3.65 2.57 3.65Zm0-.77c-1.07 0-1.7-1.1-1.7-2.87v-.01c0-1.77.63-2.86 1.7-2.86 1.07 0 1.7 1.1 1.7 2.86 0 1.78-.63 2.88-1.7 2.88Zm6.05.77c1.61 0 2.58-1.4 2.58-3.64v-.01c0-2.24-.97-3.63-2.58-3.63-1.62 0-2.58 1.4-2.58 3.63 0 2.25.96 3.65 2.58 3.65Zm0-.77c-1.08 0-1.7-1.1-1.7-2.87v-.01c0-1.77.62-2.86 1.7-2.86 1.07 0 1.7 1.1 1.7 2.86 0 1.78-.63 2.88-1.7 2.88Zm8.1.77c1.61 0 2.58-1.4 2.58-3.64v-.01c0-2.24-.97-3.63-2.59-3.63-1.62 0-2.57 1.4-2.57 3.63 0 2.25.95 3.65 2.57 3.65Zm0-.77c-1.08 0-1.7-1.1-1.7-2.87v-.01c0-1.77.62-2.86 1.7-2.86 1.06 0 1.7 1.1 1.7 2.86 0 1.78-.64 2.88-1.7 2.88Zm6.04.77c1.62 0 2.58-1.4 2.58-3.64v-.01c0-2.24-.96-3.63-2.58-3.63s-2.58 1.4-2.58 3.63c0 2.25.96 3.65 2.58 3.65Zm0-.77c-1.07 0-1.7-1.1-1.7-2.87v-.01c0-1.77.63-2.86 1.7-2.86 1.07 0 1.7 1.1 1.7 2.86 0 1.78-.63 2.88-1.7 2.88Zm6.04.77c1.62 0 2.59-1.4 2.59-3.64v-.01c0-2.24-.97-3.63-2.59-3.63-1.62 0-2.57 1.4-2.57 3.63 0 2.25.95 3.65 2.57 3.65Zm0-.77c-1.07 0-1.69-1.1-1.69-2.87v-.01c0-1.77.62-2.86 1.7-2.86 1.06 0 1.7 1.1 1.7 2.86 0 1.78-.64 2.88-1.7 2.88Z" fill="#9598A1"/><g filter="url(#eestxpv1h)"><rect x="108" y="48" width="511.4" height="293.19" rx="16" fill="#000" fill-opacity=".2"/></g><rect x="131.12" width="525.9" height="310.55" rx="16" fill="url(#festxpv1h)"/><rect x="131.62" y=".5" width="524.9" height="309.55" rx="15.5" stroke="url(#gestxpv1h)" stroke-opacity=".2"/><g clip-path="url(#hestxpv1h)"><path d="M191.3 27.67h1.54l.7-2.13h3.04l.69 2.13h1.54l-2.92-8.24h-1.66l-2.93 8.24Zm3.74-6.78h.03l1.14 3.51h-2.3l1.13-3.5Zm4.66 6.78h1.47v-2.73h1.7c1.67 0 2.8-1.1 2.8-2.75v-.01c0-1.65-1.13-2.75-2.8-2.75h-3.17v8.24Zm2.8-7.04c1.06 0 1.68.57 1.68 1.56 0 1-.62 1.57-1.67 1.57h-1.34v-3.13h1.34Zm4.26 7.04h1.47v-2.73h1.7c1.67 0 2.8-1.1 2.8-2.75v-.01c0-1.65-1.13-2.75-2.8-2.75h-3.17v8.24Zm2.8-7.04c1.06 0 1.68.57 1.68 1.56 0 1-.62 1.57-1.67 1.57h-1.34v-3.13h1.34Zm4.25 7.04h5.22v-1.24h-3.74v-7h-1.47v8.24Z" fill="#2962FF"/><path d="M191.23 39.54h.65l.5-1.42h1.96l.5 1.42h.65l-1.83-4.95h-.6l-1.83 4.95Zm2.12-4.21h.02l.8 2.27h-1.61l.8-2.27Zm2.7 4.2h.62v-1.76h1.15c.92 0 1.58-.65 1.58-1.6 0-.94-.66-1.58-1.59-1.58h-1.76v4.95Zm1.6-4.4c.71 0 1.12.4 1.12 1.05s-.4 1.04-1.11 1.04h-.99v-2.08h.99Zm2.46 4.4h.62v-1.76h1.14c.93 0 1.59-.65 1.59-1.6 0-.94-.66-1.58-1.59-1.58h-1.76v4.95Zm1.6-4.4c.71 0 1.12.4 1.12 1.05s-.4 1.04-1.12 1.04h-.98v-2.08h.99Zm2.46 4.4h3v-.55h-2.38v-4.39h-.62v4.95Zm3.68 0h3.06v-.55h-2.44v-1.7h2.32v-.55h-2.32v-1.58h2.44v-.56h-3.06v4.95Zm5.32 0h.61V34.6h-.61v4.95Zm1.57 0h.61v-3.9h.02l2.72 3.9h.6V34.6h-.6v3.9h-.03l-2.72-3.9h-.6v4.95Zm6.98.09c1.03 0 1.82-.62 2.01-1.56v-.04h-.61l-.02.03c-.21.66-.7 1-1.38 1-.99 0-1.63-.79-1.63-1.99s.64-1.98 1.63-1.98c.7 0 1.18.35 1.37.95l.03.07h.62v-.03c-.2-.94-1-1.56-2.02-1.56-1.38 0-2.26 1-2.26 2.55 0 1.56.88 2.56 2.26 2.56Zm3.02-.04c.22 0 .4-.17.4-.39s-.18-.39-.4-.39c-.22 0-.39.17-.39.4 0 .21.17.38.4.38Z" fill="#F8F9FD"/><circle cx="166.58" cy="30.72" r="15.21" fill="url(#iestxpv1h)"/><path d="M173.34 33.42c-.09.24-.18.48-.28.7a8.2 8.2 0 0 1-.87 1.47 7.5 7.5 0 0 1-1.1 1.28 2.2 2.2 0 0 1-1.44.6c-.36 0-.8-.1-1.31-.3-.52-.2-1-.3-1.43-.3-.45 0-.94.1-1.45.3-.53.2-.95.3-1.27.3-.49.03-.97-.17-1.46-.6a8.92 8.92 0 0 1-2.9-6.39c0-1.02.23-1.9.7-2.64a4.1 4.1 0 0 1 3.44-1.93c.38 0 .89.12 1.52.34.63.23 1.03.34 1.21.34.13 0 .58-.13 1.34-.4a4.66 4.66 0 0 1 1.83-.3c1.35.1 2.37.6 3.04 1.51-1.2.7-1.8 1.66-1.8 2.91.02.97.39 1.78 1.12 2.42.33.3.7.53 1.11.69Zm-3.4-11.15a3.15 3.15 0 0 1-.86 2.43c-.7.79-1.56 1.24-2.48 1.17l-.02-.3c0-.72.34-1.5.93-2.14.3-.32.68-.6 1.14-.8.45-.22.89-.34 1.3-.36Z" fill="#fff"/><rect x="151.49" y="15.63" width="30.18" height="30.18" rx="15.09" stroke="url(#jestxpv1h)" stroke-opacity=".3" stroke-width=".23"/><path d="M284.37 35.68h1.76V25.67h-1.77l-2.62 1.84v1.64l2.59-1.78h.04v8.31Zm8 .18c2.16 0 3.75-1.45 3.75-3.47v-.02a3.16 3.16 0 0 0-3.29-3.27c-1.36 0-2.36.7-2.75 1.61h-.04c0-2.02.66-3.75 2.36-3.75.9 0 1.52.44 1.78 1.13l.03.06h1.78l-.02-.07c-.32-1.52-1.7-2.59-3.55-2.59-2.56 0-4.1 1.98-4.1 5.3 0 3.52 1.84 5.07 4.06 5.07Zm-2.02-3.45c0-1.12.87-1.93 2.02-1.93a1.9 1.9 0 0 1 1.98 1.95v.02c0 1.08-.89 1.94-2 1.94-1.12 0-2-.87-2-1.98Zm11.12 3.45c2.16 0 3.74-1.45 3.74-3.47v-.02a3.16 3.16 0 0 0-3.28-3.27c-1.36 0-2.36.7-2.76 1.61h-.03c-.01-2.02.66-3.75 2.36-3.75.9 0 1.51.44 1.77 1.13l.03.06h1.78l-.02-.07c-.31-1.52-1.7-2.59-3.55-2.59-2.55 0-4.09 1.98-4.09 5.3 0 3.52 1.83 5.07 4.05 5.07Zm-2.03-3.45c0-1.12.88-1.93 2.02-1.93a1.9 1.9 0 0 1 1.99 1.95v.02c0 1.08-.9 1.94-2 1.94-1.13 0-2-.87-2-1.98Zm8.03 3.38a1 1 0 0 0 1-1 1 1 0 0 0-1-1 1 1 0 0 0-1 1 1 1 0 0 0 1 1Zm6.12.07c2.21 0 3.76-1.42 3.76-3.48v-.01c0-1.9-1.37-3.29-3.28-3.29-1 0-1.83.4-2.27 1.07h-.04l.28-3.02h4.72v-1.46h-6.15l-.48 5.82h1.56c.12-.22.29-.42.48-.57.38-.32.87-.5 1.44-.5 1.17 0 2.01.83 2.01 1.97v.02c0 1.17-.82 1.99-2.02 1.99-1.05 0-1.82-.65-1.96-1.49v-.04h-1.69v.09c.14 1.65 1.56 2.9 3.64 2.9Zm8.87 0c2.16 0 3.74-1.45 3.74-3.47v-.02a3.16 3.16 0 0 0-3.28-3.27c-1.36 0-2.36.7-2.76 1.61h-.03c0-2.02.66-3.75 2.36-3.75.9 0 1.51.44 1.77 1.13l.03.06h1.78l-.01-.07c-.32-1.52-1.7-2.59-3.56-2.59-2.55 0-4.09 1.98-4.09 5.3 0 3.52 1.84 5.07 4.05 5.07Zm-2.03-3.45c0-1.12.88-1.93 2.02-1.93a1.9 1.9 0 0 1 1.99 1.95v.02c0 1.08-.89 1.94-2 1.94-1.13 0-2-.87-2-1.98Z" fill="#D1D4DC"/><path opacity=".4" d="M332 36.78c1.45 0 2.32-.87 2.32-2.15v-3.79h-.73v3.75c0 .9-.58 1.52-1.59 1.52-1.01 0-1.6-.63-1.6-1.52v-3.75h-.72v3.8c0 1.27.87 2.14 2.32 2.14Zm5.36 0c1.34 0 2.16-.66 2.16-1.7 0-.89-.5-1.37-1.7-1.64l-.65-.14c-.76-.16-1.11-.46-1.11-.94 0-.57.5-.94 1.29-.94.74 0 1.24.35 1.33.94v.06h.74v-.06c-.07-.96-.9-1.62-2.05-1.62-1.2 0-2.05.68-2.06 1.64 0 .85.54 1.37 1.68 1.62l.65.14c.8.18 1.13.47 1.13.98 0 .6-.52.99-1.37.99-.84 0-1.41-.36-1.5-.95v-.06h-.73v.06c.07 1 .93 1.62 2.2 1.62Zm3.01-.1h1.97c1.74 0 2.76-1.08 2.76-2.92 0-1.84-1.03-2.92-2.76-2.92h-1.96v5.84Zm.73-.65V31.5h1.19c1.32 0 2.06.8 2.06 2.26 0 1.46-.74 2.27-2.06 2.27h-1.19Z" fill="#fff"/><path d="M466.46 31.2v-1.34h1.14c1.1 0 1.84-.63 1.84-1.52 0-.88-.58-1.45-1.69-1.45-1.05 0-1.8.56-1.87 1.5h-1.67c.12-1.79 1.53-2.92 3.54-2.92 2.08 0 3.41 1.08 3.41 2.63 0 1.26-.9 2.1-2.1 2.34v.04c1.48.14 2.46 1.02 2.46 2.42 0 1.78-1.56 2.98-3.75 2.98-2.2 0-3.68-1.2-3.77-2.97h1.71c.07.91.87 1.51 2.06 1.51 1.14 0 1.93-.65 1.93-1.56 0-1.07-.77-1.67-2.06-1.67h-1.18Zm7.5 4.56c-.56 0-1-.44-1-1a1 1 0 0 1 1-1c.56 0 1 .45 1 1 0 .56-.44 1-1 1Zm4.84-4.57v-1.33h1.14c1.1 0 1.84-.63 1.84-1.52 0-.88-.58-1.45-1.68-1.45-1.06 0-1.81.56-1.88 1.5h-1.66c.11-1.79 1.52-2.92 3.54-2.92 2.07 0 3.4 1.08 3.4 2.63 0 1.26-.89 2.1-2.1 2.34v.04c1.48.14 2.46 1.02 2.46 2.42 0 1.78-1.56 2.98-3.75 2.98-2.2 0-3.68-1.2-3.77-2.97h1.72c.06.91.86 1.51 2.05 1.51 1.15 0 1.93-.65 1.93-1.56 0-1.07-.77-1.67-2.05-1.67h-1.2Zm10.34 4.7c-2.2 0-4.04-1.55-4.04-5.1 0-3.34 1.52-5.33 4.07-5.33 1.86 0 3.29 1.08 3.58 2.7h-1.78c-.25-.8-.9-1.24-1.8-1.24-1.54 0-2.35 1.43-2.36 3.8h.03c.4-.92 1.4-1.62 2.76-1.62a3.17 3.17 0 0 1 3.28 3.29c0 2.03-1.57 3.5-3.74 3.5Zm-.03-1.46c1.12 0 2.01-.88 2.01-1.97a1.9 1.9 0 0 0-1.99-1.98c-1.15 0-2.01.82-2.01 1.94 0 1.13.88 2 2 2Z" fill="#089981"/><path opacity=".4" d="M498.33 36.78c1.45 0 2.31-.87 2.31-2.15v-3.79h-.72v3.75c0 .9-.58 1.52-1.6 1.52-1 0-1.59-.63-1.59-1.52v-3.75H496v3.8c0 1.27.88 2.14 2.33 2.14Zm5.36 0c1.34 0 2.16-.66 2.16-1.7 0-.89-.5-1.37-1.7-1.64l-.65-.14c-.76-.16-1.11-.46-1.11-.94 0-.57.5-.94 1.29-.94.74 0 1.24.35 1.33.94v.06h.73v-.06c-.07-.96-.9-1.62-2.04-1.62-1.2 0-2.06.68-2.06 1.64 0 .85.54 1.37 1.68 1.62l.64.14c.8.18 1.14.47 1.14.98 0 .6-.53.99-1.37.99-.85 0-1.41-.36-1.5-.95v-.06h-.74v.06c.08 1 .94 1.62 2.2 1.62Zm3.01-.1h1.97c1.73 0 2.75-1.08 2.75-2.92 0-1.84-1.02-2.92-2.75-2.92h-1.97v5.84Zm.73-.65V31.5h1.19c1.32 0 2.06.8 2.06 2.26 0 1.46-.74 2.27-2.06 2.27h-1.19Z" fill="#fff"/><path d="M543.86 33.68V27.1h4.09v.74h-3.27v2.12h3.1v.73h-3.1v2.26h3.27v.74h-4.09Zm5.09 0V27.1h.8v6.6h-.8Zm3.82.1c-1.36 0-2.18-.96-2.18-2.45 0-1.48.84-2.49 2.13-2.49 1.3 0 2.1.96 2.1 2.39v.3h-3.43c.02.97.56 1.54 1.4 1.54.6 0 1.03-.3 1.17-.7l.01-.05h.78v.05c-.16.78-.94 1.4-1.98 1.4Zm-.05-4.24c-.69 0-1.23.47-1.32 1.36h2.6c-.07-.92-.59-1.36-1.28-1.36Zm4.87 4.23c-1.35 0-2.2-.95-2.2-2.47 0-1.5.87-2.46 2.19-2.46 1.18 0 1.88.79 1.98 1.6v.04h-.77l-.01-.04c-.12-.48-.5-.9-1.2-.9-.83 0-1.38.69-1.38 1.77 0 1.1.56 1.76 1.39 1.76.64 0 1.06-.36 1.2-.9v-.03h.78v.03c-.13.9-.91 1.6-1.98 1.6Zm4.26 0c-.87 0-1.3-.39-1.3-1.3V29.6h-.7v-.66h.7v-1.28h.82v1.28h.9v.66h-.9v2.88c0 .5.22.65.65.65l.25-.02v.64c-.1.02-.27.03-.42.03Zm1.28-.09v-4.75h.8v.8h.01c.16-.54.57-.89 1.1-.89.14 0 .26.02.33.03v.77a1.6 1.6 0 0 0-.43-.04c-.62 0-1.02.43-1.02 1.15v2.93h-.8Zm4.63.1c-1.32 0-2.2-.96-2.2-2.47v-.01c0-1.51.88-2.46 2.2-2.46 1.3 0 2.2.94 2.2 2.46s-.9 2.47-2.2 2.47Zm0-.7c.84 0 1.38-.66 1.38-1.77v-.01c0-1.12-.55-1.76-1.39-1.76-.83 0-1.38.65-1.38 1.76 0 1.13.55 1.77 1.4 1.77Zm3 .6v-4.75h.8v.68h.01c.26-.45.74-.77 1.46-.77 1.05 0 1.65.68 1.65 1.76v3.08h-.8v-2.94c0-.77-.36-1.2-1.09-1.2-.75 0-1.24.54-1.24 1.35v2.8h-.8Zm5.38-5.55a.5.5 0 0 1 0-1c.28 0 .5.22.5.5a.5.5 0 0 1-.5.5Zm-.4 5.55v-4.75h.8v4.75h-.8Zm3.85.1c-1.35 0-2.2-.96-2.2-2.48 0-1.5.87-2.46 2.2-2.46 1.17 0 1.87.79 1.98 1.6v.04h-.78v-.04c-.13-.48-.5-.9-1.2-.9-.84 0-1.39.69-1.39 1.77 0 1.1.57 1.76 1.4 1.76.64 0 1.05-.36 1.19-.9v-.03h.79v.03c-.13.9-.92 1.6-1.99 1.6Zm6.43-.1v-5.85h-2.08v-.74h4.98v.74h-2.08v5.85h-.82Zm4.37.1c-1.37 0-2.2-.96-2.2-2.45 0-1.48.85-2.49 2.15-2.49 1.3 0 2.08.96 2.08 2.39v.3H589c.02.97.56 1.54 1.4 1.54.6 0 1.03-.3 1.17-.7l.01-.05h.79l-.01.05c-.16.78-.94 1.4-1.97 1.4Zm-.06-4.24c-.69 0-1.23.47-1.31 1.36h2.6c-.08-.92-.6-1.36-1.29-1.36Zm4.87 4.23c-1.35 0-2.2-.95-2.2-2.47 0-1.5.87-2.46 2.19-2.46 1.18 0 1.88.79 1.98 1.6v.04h-.77v-.04c-.13-.48-.51-.9-1.21-.9-.83 0-1.38.69-1.38 1.77 0 1.1.57 1.76 1.39 1.76.65 0 1.06-.36 1.2-.9v-.03h.79v.03c-.14.9-.92 1.6-2 1.6Zm2.76-.09V27.1h.8v2.6h.01c.26-.53.77-.85 1.48-.85 1.01 0 1.7.78 1.7 1.93v2.91h-.8v-2.77c0-.86-.43-1.37-1.17-1.37s-1.23.56-1.23 1.37v2.77h-.8Zm5 0v-4.75h.8v.68h.01c.26-.45.75-.77 1.47-.77 1.04 0 1.64.68 1.64 1.76v3.08h-.8v-2.94c0-.77-.35-1.2-1.09-1.2-.74 0-1.23.54-1.23 1.35v2.8h-.8Zm6.9.1c-1.32 0-2.2-.96-2.2-2.47v-.01c0-1.51.89-2.46 2.2-2.46s2.2.94 2.2 2.46-.88 2.47-2.2 2.47Zm.01-.7c.84 0 1.38-.66 1.38-1.77v-.01c0-1.12-.55-1.76-1.39-1.76-.83 0-1.38.65-1.38 1.76 0 1.13.55 1.77 1.39 1.77Zm3.04.6V27.1h.8v6.6h-.8Zm3.84.1c-1.32 0-2.2-.96-2.2-2.47v-.01c0-1.51.88-2.46 2.2-2.46 1.3 0 2.2.94 2.2 2.46s-.9 2.47-2.2 2.47Zm0-.7c.84 0 1.38-.66 1.38-1.77v-.01c0-1.12-.55-1.76-1.39-1.76-.83 0-1.38.65-1.38 1.76 0 1.13.55 1.77 1.4 1.77Zm5 2.3c-1.16 0-1.9-.56-2.06-1.26l-.01-.04h.8l.02.04c.15.34.6.55 1.25.55.84 0 1.31-.46 1.31-1.2v-.6h-.02c-.28.52-.83.86-1.51.86-1.2 0-2.01-.96-2.01-2.45 0-1.48.82-2.44 2.03-2.44.67 0 1.2.37 1.5.9h.01v-.8h.8v4.61c0 1.1-.81 1.82-2.1 1.82Zm-.05-2.35c.81 0 1.36-.7 1.36-1.75s-.55-1.74-1.36-1.74c-.84 0-1.37.68-1.37 1.74 0 1.08.53 1.75 1.37 1.75Zm3.64 2.25c-.15 0-.32-.02-.42-.03v-.65l.25.02c.5 0 .78-.12.98-.66l.1-.27-1.77-4.76h.85l1.3 3.96h.03l1.31-3.96h.84l-1.86 5.05c-.33.91-.75 1.3-1.6 1.3Z" fill="#B2B5BE"/><path d="M393.07 28.66c0-1.87 1.5-3.2 3.59-3.2 2.04 0 3.4 1.26 3.4 2.87 0 1.19-.56 1.97-2.31 3.69l-2.21 2.16v.04h4.67v1.46h-7.04v-1.22l3.54-3.48c1.3-1.29 1.6-1.79 1.6-2.54 0-.87-.66-1.54-1.65-1.54-1.09 0-1.9.74-1.9 1.76h-1.69Zm9.66 7.1c-.56 0-1-.44-1-1a1 1 0 0 1 1-1c.56 0 1 .45 1 1 0 .56-.44 1-1 1Zm6.41.12c-2.2 0-4.04-1.54-4.04-5.09 0-3.34 1.52-5.33 4.07-5.33 1.86 0 3.3 1.08 3.58 2.7h-1.77c-.26-.8-.91-1.24-1.81-1.24-1.54 0-2.34 1.43-2.36 3.8h.04c.4-.92 1.4-1.62 2.75-1.62a3.17 3.17 0 0 1 3.29 3.29c0 2.03-1.58 3.5-3.75 3.5Zm-.02-1.45c1.11 0 2-.88 2-1.97a1.9 1.9 0 0 0-1.98-1.98c-1.15 0-2.02.82-2.02 1.94 0 1.13.88 2 2 2Zm7.57 1.25v-8.3h-.04l-2.6 1.77v-1.64l2.63-1.84h1.77v10.01h-1.76Zm5.97-5.11c-1.38 0-2.3-.99-2.3-2.52 0-1.56.93-2.52 2.3-2.52 1.37 0 2.29.96 2.29 2.51 0 1.54-.9 2.53-2.29 2.53Zm.62 5.11h-1.36l6.85-10.01h1.37l-6.86 10.01Zm-.62-6.16c.62 0 1.03-.53 1.03-1.47 0-.96-.41-1.47-1.03-1.47-.61 0-1.03.51-1.03 1.47 0 .94.42 1.47 1.03 1.47Zm6.74 6.3c-1.38 0-2.3-.99-2.3-2.52 0-1.56.92-2.52 2.3-2.52 1.37 0 2.28.96 2.28 2.5 0 1.55-.9 2.54-2.28 2.54Zm0-1.05c.61 0 1.03-.53 1.03-1.47 0-.96-.41-1.47-1.03-1.47-.61 0-1.03.5-1.03 1.47 0 .94.42 1.47 1.03 1.47Z" fill="#089981"/><path d="m132 53 524.52.64" stroke="url(#kestxpv1h)"/></g><g clip-path="url(#lestxpv1h)"><path d="M194.64 128.3c2.26 0 3.6-1.34 3.6-3.58v-.9h-3.43v1.16h1.99v.12c-.04 1.16-.9 1.93-2.14 1.93-1.49 0-2.42-1.14-2.42-3.04 0-1.86.9-2.94 2.38-2.94 1.01 0 1.73.51 2.04 1.4l.02.06h1.5l-.03-.1c-.31-1.51-1.58-2.65-3.54-2.65-2.38 0-3.88 1.62-3.88 4.24 0 2.67 1.5 4.3 3.91 4.3Zm8.45 0c2.41 0 3.91-1.64 3.91-4.26v-.01c0-2.62-1.5-4.27-3.91-4.27-2.4 0-3.92 1.65-3.92 4.27 0 2.64 1.5 4.28 3.92 4.28Zm0-1.28c-1.48 0-2.42-1.14-2.42-2.98v-.01c0-1.84.95-2.98 2.42-2.98s2.41 1.15 2.41 2.98-.92 3-2.41 3Zm8.73 1.29c2.41 0 3.91-1.64 3.91-4.27v-.01c0-2.62-1.5-4.27-3.91-4.27-2.4 0-3.92 1.65-3.92 4.27 0 2.64 1.5 4.28 3.92 4.28Zm0-1.28c-1.48 0-2.41-1.16-2.41-3s.94-2.98 2.41-2.98c1.48 0 2.41 1.15 2.41 2.98s-.92 3-2.41 3Zm8.72 1.28c2.26 0 3.6-1.35 3.6-3.6v-.88h-3.43v1.15h1.99v.12c-.04 1.16-.9 1.93-2.14 1.93-1.49 0-2.42-1.14-2.42-3.04 0-1.86.89-2.94 2.38-2.94 1.01 0 1.73.51 2.04 1.4l.02.06h1.5l-.03-.1c-.31-1.51-1.58-2.65-3.54-2.65-2.38 0-3.88 1.62-3.88 4.24 0 2.67 1.5 4.3 3.91 4.3Z" fill="#2962FF"/><path d="M190.37 140.06h.65l.5-1.42h1.97l.5 1.42h.65l-1.83-4.96h-.61l-1.83 4.96Zm2.13-4.21h.01l.8 2.27h-1.6l.79-2.27Zm2.7 4.2h3.01v-.55h-2.39v-4.4h-.62v4.96Zm3.7 0h.6v-1.76h1.16c.93 0 1.59-.66 1.59-1.6 0-.94-.66-1.59-1.6-1.59h-1.76v4.96Zm1.6-4.4c.7 0 1.11.4 1.11 1.04v.01c0 .65-.4 1.04-1.11 1.04h-1v-2.09h1Zm2.46 4.4h.61v-2.25h2.72v2.26h.62v-4.96h-.62v2.15h-2.72v-2.15h-.61v4.96Zm4.52 0h.65l.5-1.4h1.97l.5 1.4h.64l-1.83-4.95h-.6l-1.83 4.96Zm2.12-4.2h.02l.8 2.27h-1.61l.8-2.27Zm2.7 4.2h1.88c1.05 0 1.68-.51 1.68-1.38 0-.66-.43-1.14-1.15-1.23v-.01c.51-.07.9-.57.9-1.08v-.01c0-.74-.58-1.24-1.42-1.24h-1.88v4.96Zm1.75-4.4c.6 0 .93.27.93.76 0 .54-.4.83-1.13.83h-.92v-1.59h1.12Zm-.02 2.12c.79 0 1.2.3 1.2.87 0 .57-.4.87-1.14.87h-1.16v-1.74h1.1Zm2.53 2.29h3.07v-.56h-2.45v-1.7h2.32v-.55h-2.32v-1.59h2.45v-.56h-3.07v4.96Zm5.14 0h.62v-4.4h1.56v-.56h-3.74v.56h1.56v4.4Zm4.27 0h.62v-4.96h-.62v4.96Zm1.58 0h.61v-3.91h.02l2.73 3.9h.6v-4.95h-.61v3.91h-.02l-2.73-3.9h-.6v4.95Zm6.99.08c1.04 0 1.83-.61 2.02-1.56v-.04h-.62l-.01.03c-.22.66-.7 1-1.4 1-.98 0-1.62-.78-1.62-1.99 0-1.2.64-1.99 1.63-1.99.7 0 1.18.35 1.38.95l.02.08h.63l-.01-.04c-.2-.93-1-1.56-2.02-1.56-1.38 0-2.26 1-2.26 2.56s.88 2.56 2.26 2.56Zm3.03-.03c.22 0 .4-.18.4-.4 0-.21-.18-.39-.4-.39-.22 0-.4.18-.4.4 0 .22.18.39.4.39Z" fill="#F8F9FD"/><circle cx="165.68" cy="131.26" r="15.23" fill="url(#mestxpv1h)"/><circle cx="165.68" cy="131.26" r="15.12" stroke="url(#nestxpv1h)" stroke-opacity=".3" stroke-width=".23"/><path d="M173.98 130.05h-8.3v3.03h4.78a4.96 4.96 0 0 1-4.78 3.25 5.08 5.08 0 1 1 3.37-8.87l2.4-2.39a8.46 8.46 0 1 0 2.7 6.19c0-.46-.07-.68-.17-1.21Z" fill="#FFC107"/><path d="m158.19 127.32 2.78 2.04a5.07 5.07 0 0 1 8.08-1.9l2.4-2.39a8.42 8.42 0 0 0-13.26 2.25Z" fill="#FF3D00"/><path d="M165.68 139.72c2.19 0 4.17-.84 5.67-2.2l-2.62-2.21a5.04 5.04 0 0 1-7.82-2.34l-2.76 2.13a8.46 8.46 0 0 0 7.53 4.62Z" fill="#4CAF50"/><path d="M173.98 130.05h-8.3v3.04h4.78a4.74 4.74 0 0 1-1.73 2.22l2.62 2.22c-.18.16 2.8-2.04 2.8-6.27 0-.57-.07-.67-.17-1.2Z" fill="#1976D2"/><rect x="150.56" y="116.14" width="30.24" height="30.24" rx="15.12" stroke="url(#oestxpv1h)" stroke-opacity=".3" stroke-width=".23"/><path d="M284.77 136.37c2.21 0 3.75-1.22 3.75-2.97v-.01c0-1.4-.99-2.27-2.47-2.4v-.04c1.2-.25 2.11-1.08 2.11-2.32v-.02c0-1.56-1.34-2.62-3.42-2.62-2.02 0-3.39 1.13-3.54 2.82v.09h1.67v-.07c.1-.87.82-1.42 1.88-1.42 1.07 0 1.69.53 1.69 1.44v.01c0 .88-.74 1.5-1.85 1.5h-1.15v1.34h1.2c1.27 0 2.05.58 2.05 1.64v.01c0 .92-.77 1.56-1.93 1.56-1.18 0-1.95-.6-2.05-1.4l-.01-.09h-1.72v.09c.15 1.68 1.58 2.86 3.79 2.86Zm7.7-.17h1.75v-10.04h-1.77l-2.62 1.85v1.65l2.6-1.79h.03v8.33Zm6.64 0h1.76v-10.04h-1.77l-2.62 1.85v1.65l2.6-1.79h.03v8.33Zm4.79.11a1 1 0 0 0 1-1 1 1 0 0 0-1-1 1 1 0 0 0-1.01 1 1 1 0 0 0 1 1Zm4.16-.11h1.76v-10.04h-1.78l-2.62 1.85v1.65l2.6-1.79h.04v8.33Zm7.82.17c2.22 0 3.77-1.42 3.77-3.48v-.01c0-1.91-1.38-3.3-3.29-3.3-1 0-1.83.4-2.27 1.08h-.04l.28-3.03h4.73v-1.47h-6.16l-.48 5.84h1.56c.12-.22.29-.42.48-.57.38-.32.87-.5 1.44-.5 1.18 0 2.02.82 2.02 1.97v.02c0 1.17-.83 2-2.02 2-1.06 0-1.83-.65-1.97-1.5v-.04h-1.7l.01.09c.14 1.66 1.56 2.9 3.64 2.9Z" fill="#D1D4DC"/><path opacity=".4" d="M325.32 137.3c1.45 0 2.32-.88 2.32-2.15v-3.8h-.73v3.75c0 .9-.58 1.52-1.6 1.52-1 0-1.6-.62-1.6-1.52v-3.75H323v3.8c0 1.27.87 2.15 2.33 2.15Zm5.37 0c1.34 0 2.16-.66 2.16-1.7 0-.9-.5-1.38-1.7-1.65l-.65-.14c-.76-.16-1.12-.47-1.12-.94 0-.57.51-.94 1.3-.95.74 0 1.24.35 1.33.95v.06h.74v-.06c-.07-.96-.91-1.62-2.05-1.62-1.2 0-2.06.67-2.06 1.63 0 .86.53 1.38 1.68 1.63l.64.14c.8.18 1.14.47 1.14.98 0 .61-.53 1-1.37 1-.85 0-1.42-.37-1.5-.96l-.01-.05h-.73v.05c.08 1 .93 1.63 2.2 1.63Zm3.02-.1h1.96c1.75 0 2.77-1.08 2.77-2.93s-1.03-2.93-2.77-2.93h-1.96v5.86Zm.73-.66V132h1.19c1.32 0 2.06.81 2.06 2.27s-.74 2.27-2.06 2.27h-1.2Z" fill="#fff"/><path d="m464.37 136.2 4.4-8.53v-.04h-5.21v-1.47h6.98v1.5l-4.29 8.54h-1.88Zm7.14.08c-.56 0-1-.44-1-1a1 1 0 0 1 1-1 1 1 0 0 1 1 1c0 .56-.44 1-1 1Zm4.85-4.58v-1.34h1.14c1.1 0 1.85-.63 1.85-1.52 0-.88-.59-1.45-1.7-1.45-1.05 0-1.8.56-1.87 1.5h-1.67c.12-1.79 1.53-2.93 3.55-2.93 2.08 0 3.41 1.09 3.41 2.64 0 1.26-.9 2.1-2.1 2.35v.03c1.47.14 2.46 1.03 2.46 2.43 0 1.78-1.56 3-3.76 3-2.2 0-3.69-1.21-3.78-2.99h1.72c.07.92.87 1.51 2.06 1.51 1.15 0 1.93-.64 1.93-1.56.01-1.07-.77-1.67-2.06-1.67h-1.18Zm6.39-2.54c0-1.87 1.5-3.2 3.59-3.2 2.04 0 3.4 1.26 3.4 2.87 0 1.2-.56 1.97-2.31 3.7l-2.21 2.17v.03h4.68v1.47h-7.05v-1.22l3.54-3.5c1.3-1.28 1.6-1.78 1.6-2.53 0-.88-.66-1.55-1.65-1.55-1.09 0-1.91.74-1.91 1.76h-1.68Z" fill="#089981"/><path opacity=".4" d="M495.99 137.3c1.45 0 2.32-.88 2.32-2.15v-3.8h-.73v3.75c0 .9-.57 1.52-1.59 1.52-1.01 0-1.6-.62-1.6-1.52v-3.75h-.73v3.8c0 1.27.88 2.15 2.33 2.15Zm5.37 0c1.34 0 2.16-.66 2.16-1.7 0-.9-.5-1.38-1.7-1.65l-.65-.14c-.76-.16-1.11-.47-1.11-.94 0-.57.5-.94 1.29-.95.74 0 1.24.35 1.33.95v.06h.74v-.06c-.07-.96-.9-1.62-2.05-1.62-1.2 0-2.06.67-2.06 1.63 0 .86.54 1.38 1.68 1.63l.65.14c.8.18 1.14.47 1.14.98 0 .61-.53 1-1.38 1-.84 0-1.41-.37-1.5-.96v-.05h-.74v.05c.08 1 .94 1.63 2.2 1.63Zm3.02-.1h1.97c1.74 0 2.76-1.08 2.76-2.93s-1.03-2.93-2.76-2.93h-1.97v5.86Zm.73-.66V132h1.19c1.33 0 2.06.81 2.06 2.27s-.73 2.27-2.06 2.27h-1.19Z" fill="#fff"/><path d="M545.34 134.2h.83v-5.86h2.08v-.75h-4.99v.75h2.08v5.86Zm4.38.1c1.04 0 1.82-.63 1.97-1.42l.01-.04h-.78l-.01.04c-.14.4-.57.7-1.17.7-.85 0-1.39-.57-1.4-1.55h3.42v-.29c0-1.43-.8-2.4-2.1-2.4s-2.13 1.02-2.13 2.5c0 1.5.82 2.45 2.19 2.45Zm-.06-4.25c.7 0 1.21.44 1.3 1.36h-2.61c.08-.89.62-1.36 1.31-1.36Zm4.88 4.24c1.08 0 1.86-.7 1.99-1.6v-.04h-.78l-.01.04c-.13.53-.55.9-1.2.9-.82 0-1.4-.66-1.4-1.77 0-1.08.56-1.77 1.4-1.77.7 0 1.08.42 1.2.9v.04h.78v-.04c-.1-.82-.8-1.6-1.99-1.6-1.32 0-2.2.96-2.2 2.46 0 1.52.86 2.48 2.21 2.48Zm2.76-.1h.8v-2.77c0-.81.5-1.37 1.23-1.37.74 0 1.18.51 1.18 1.37v2.78h.8v-2.92c0-1.15-.7-1.93-1.7-1.93-.72 0-1.23.31-1.49.85h-.02v-2.6h-.8v6.6Zm5.02 0h.8v-2.8c0-.8.48-1.34 1.23-1.34.74 0 1.1.43 1.1 1.2v2.95h.8v-3.1c0-1.08-.6-1.75-1.65-1.75-.73 0-1.21.32-1.47.77h-.02v-.68h-.8v4.76Zm6.91.1c1.32 0 2.2-.95 2.2-2.47v-.01c0-1.52-.89-2.46-2.2-2.46s-2.2.94-2.2 2.46.88 2.48 2.2 2.48Zm0-.7c-.83 0-1.39-.65-1.39-1.77v-.01c0-1.11.56-1.76 1.39-1.76.84 0 1.4.64 1.4 1.76 0 1.13-.55 1.78-1.4 1.78Zm3.05.6h.8v-6.6h-.8v6.6Zm3.85.1c1.31 0 2.2-.95 2.2-2.47v-.01c0-1.52-.9-2.46-2.2-2.46-1.32 0-2.2.94-2.2 2.46s.88 2.48 2.2 2.48Zm0-.7c-.84 0-1.4-.65-1.4-1.77v-.01c0-1.11.56-1.76 1.4-1.76.84 0 1.38.64 1.38 1.76 0 1.13-.54 1.78-1.38 1.78Zm5.02 2.3c1.3 0 2.1-.72 2.1-1.82v-4.63h-.8v.8h-.01c-.3-.53-.83-.9-1.5-.9-1.2 0-2.04.97-2.04 2.45 0 1.49.82 2.46 2.02 2.46.68 0 1.23-.34 1.52-.87h.01v.6c0 .75-.47 1.2-1.3 1.2-.66 0-1.11-.2-1.26-.55l-.02-.04h-.8v.04c.16.7.9 1.26 2.08 1.26Zm-.05-2.35c-.85 0-1.38-.67-1.38-1.75 0-1.06.53-1.74 1.38-1.74.8 0 1.36.69 1.36 1.74 0 1.06-.55 1.75-1.37 1.75Zm3.64 2.26c.86 0 1.28-.4 1.62-1.3l1.85-5.06h-.83l-1.32 3.96h-.02l-1.31-3.96h-.86l1.77 4.76-.1.27c-.19.54-.47.67-.97.67l-.26-.02v.64c.1.02.27.04.43.04Zm8.3-1.5c1.52 0 2.45-.73 2.45-1.9 0-1.02-.57-1.56-1.92-1.86l-.74-.16c-.86-.2-1.26-.53-1.26-1.07 0-.64.58-1.06 1.46-1.07.84 0 1.4.4 1.5 1.07l.01.07h.83v-.07c-.08-1.08-1.02-1.83-2.31-1.83-1.36 0-2.32.76-2.33 1.85 0 .97.6 1.55 1.9 1.83l.73.16c.9.2 1.28.53 1.28 1.11 0 .69-.6 1.12-1.55 1.12-.95 0-1.6-.4-1.69-1.07v-.07h-.83v.07c.08 1.13 1.05 1.83 2.48 1.83Zm5.25 0c1.04 0 1.82-.63 1.97-1.42l.01-.04h-.78l-.01.04c-.14.4-.57.7-1.17.7-.85 0-1.39-.57-1.4-1.55h3.42v-.29c0-1.43-.8-2.4-2.1-2.4s-2.13 1.02-2.13 2.5c0 1.5.82 2.45 2.19 2.45Zm-.06-4.25c.7 0 1.21.44 1.3 1.36h-2.61c.08-.89.62-1.36 1.31-1.36Zm2.9 4.15h.8v-2.98c0-.67.4-1.11 1.02-1.11.2 0 .37.02.43.04v-.77c-.06-.01-.18-.03-.32-.03-.56 0-1 .33-1.15.86h-.02v-.77h-.75v4.76Zm4.24 0h.82l1.74-4.76h-.82l-1.32 3.91h-.02l-1.31-3.91h-.84l1.75 4.76Zm3.64-5.57a.5.5 0 0 0 .5-.5.5.5 0 0 0-.5-.5.5.5 0 0 0-.5.5c0 .28.23.5.5.5Zm-.4 5.57h.8v-4.76h-.8v4.76Zm3.86.1c1.07 0 1.86-.71 1.98-1.62v-.03h-.78v.04c-.14.53-.55.9-1.2.9-.83 0-1.4-.66-1.4-1.77 0-1.08.56-1.77 1.39-1.77.7 0 1.08.42 1.2.9l.01.04h.78v-.04c-.1-.82-.8-1.6-2-1.6-1.32 0-2.19.96-2.19 2.46 0 1.52.86 2.48 2.2 2.48Zm4.68 0c1.04 0 1.82-.63 1.97-1.42l.01-.04h-.78l-.01.04c-.14.4-.57.7-1.17.7-.85 0-1.39-.57-1.4-1.55h3.42v-.29c0-1.43-.8-2.4-2.1-2.4s-2.13 1.02-2.13 2.5c0 1.5.82 2.45 2.19 2.45Zm-.05-4.25c.69 0 1.2.44 1.28 1.36h-2.6c.08-.89.62-1.36 1.32-1.36Zm4.59 4.24c1.06 0 1.85-.58 1.85-1.42 0-.68-.35-1.06-1.31-1.3l-.76-.18c-.52-.13-.74-.35-.74-.67 0-.43.36-.7.93-.7.6 0 .95.3 1.01.76v.03h.76v-.06c-.06-.8-.72-1.4-1.77-1.4-1.03 0-1.75.58-1.75 1.4 0 .69.44 1.1 1.34 1.32l.75.18c.54.14.72.33.72.67 0 .44-.38.7-1.03.7s-1-.27-1.1-.75v-.04h-.8v.04c.1.85.78 1.42 1.9 1.42Z" fill="#B2B5BE"/><path d="M397.2 136.4c-2.47 0-3.95-2-3.95-5.23 0-3.2 1.5-5.2 3.95-5.2 2.46 0 3.94 1.98 3.94 5.2 0 3.2-1.47 5.23-3.94 5.23Zm0-1.47c1.36 0 2.13-1.38 2.13-3.76 0-2.35-.78-3.74-2.13-3.74-1.35 0-2.14 1.4-2.14 3.73 0 2.38.78 3.77 2.14 3.77Zm6.14 1.35c-.57 0-1-.44-1-1a1 1 0 0 1 1-1 1 1 0 0 1 1 1c0 .56-.45 1-1 1Zm4.43-.08v-8.33h-.04l-2.6 1.78v-1.64l2.62-1.85h1.78v10.04h-1.76Zm4.02-7.04c0-1.87 1.5-3.2 3.59-3.2 2.04 0 3.4 1.26 3.4 2.87 0 1.2-.56 1.97-2.31 3.7l-2.21 2.17v.03h4.68v1.47h-7.06v-1.22l3.55-3.5c1.3-1.28 1.6-1.78 1.6-2.53 0-.88-.66-1.55-1.65-1.55-1.09 0-1.91.74-1.91 1.76h-1.68Zm10.36 1.91c-1.38 0-2.3-.98-2.3-2.52 0-1.56.92-2.53 2.3-2.53s2.3.97 2.3 2.52-.92 2.53-2.3 2.53Zm.63 5.13h-1.38l6.88-10.04h1.37l-6.87 10.04Zm-.63-6.18c.62 0 1.03-.53 1.03-1.47 0-.96-.41-1.47-1.03-1.47-.61 0-1.03.5-1.03 1.47 0 .94.42 1.47 1.03 1.47Zm6.75 6.31c-1.38 0-2.3-.99-2.3-2.52 0-1.56.93-2.53 2.3-2.53 1.38 0 2.3.97 2.3 2.52 0 1.54-.91 2.53-2.3 2.53Zm0-1.05c.62 0 1.03-.53 1.03-1.47 0-.96-.4-1.47-1.03-1.47-.6 0-1.03.5-1.03 1.47 0 .94.42 1.47 1.03 1.47Z" fill="#089981"/><path stroke="url(#pestxpv1h)" d="M131.92 154.28h524.62"/></g><path d="M191.2 178.5h1.34v-5.88h.04l2.38 5.87h1l2.38-5.87h.05v5.87h1.32v-8.25h-1.7l-2.53 6.3h-.04l-2.53-6.3h-1.7v8.25Zm9.4 0h1.54l.7-2.14h3.04l.7 2.13h1.54l-2.93-8.25h-1.66l-2.93 8.25Zm3.75-6.8h.02l1.14 3.52h-2.3l1.14-3.51Z" fill="#2962FF"/><path d="M190.96 190.38h.58v-3.83h.02l1.58 3.83h.52l1.59-3.83h.02v3.83h.57v-4.95h-.71l-1.72 4.17h-.02l-1.71-4.17h-.72v4.95Zm5.45 0h.65l.5-1.42h1.97l.5 1.42h.64l-1.82-4.95h-.62l-1.82 4.95Zm2.12-4.21h.02l.8 2.27h-1.61l.8-2.27Zm4.33 4.3c1.13 0 1.83-.56 1.83-1.44 0-.76-.43-1.17-1.45-1.4l-.55-.12c-.64-.14-.94-.4-.94-.8 0-.48.43-.8 1.1-.8.62 0 1.05.3 1.12.8v.05h.63v-.05c-.06-.8-.77-1.37-1.74-1.37-1.02 0-1.74.57-1.74 1.39 0 .73.45 1.16 1.42 1.37l.55.12c.68.16.96.4.96.83 0 .52-.45.84-1.16.84-.72 0-1.2-.3-1.27-.8v-.05H201v.05c.06.85.79 1.37 1.86 1.37Zm3.66-.1h.62v-4.39h1.56v-.55h-3.74v.55h1.56v4.4Zm2.84 0h3.06v-.55h-2.45v-1.7h2.33v-.55h-2.33v-1.59h2.45v-.55h-3.06v4.95Zm3.88 0h.62v-1.95h1.18l1.06 1.96h.73l-1.15-2.06c.62-.2 1-.72 1-1.41 0-.9-.63-1.48-1.58-1.48h-1.86v4.95Zm.62-2.5v-1.9H215c.64 0 1.03.36 1.03.95 0 .61-.36.95-1 .95h-1.18Zm5.66 2.6c1.04 0 1.83-.62 2.02-1.57v-.03h-.62v.03c-.22.65-.7 1-1.4 1-.98 0-1.62-.8-1.62-2s.63-1.99 1.62-1.99c.7 0 1.19.35 1.38.96l.02.07h.63v-.03c-.2-.94-1-1.56-2.03-1.56-1.38 0-2.26.99-2.26 2.55 0 1.56.89 2.56 2.26 2.56Zm2.36-.1h.65l.5-1.4H225l.5 1.4h.65l-1.83-4.94h-.61l-1.83 4.95Zm2.13-4.2h.01l.8 2.27h-1.6l.79-2.27Zm2.7 4.2h.62v-1.95h1.18l1.06 1.96h.73l-1.15-2.06c.62-.2 1-.72 1-1.41 0-.9-.63-1.48-1.58-1.48h-1.86v4.95Zm.62-2.5v-1.9h1.16c.63 0 1.02.36 1.02.95 0 .61-.36.95-1 .95h-1.18Zm3.6 2.5h1.66c1.47 0 2.34-.9 2.34-2.47 0-1.56-.87-2.47-2.34-2.47h-1.66v4.95Zm.61-.55v-3.84h1.01c1.12 0 1.75.69 1.75 1.92 0 1.24-.63 1.92-1.75 1.92h-1Zm5.6.56h.62v-4.95h-.62v4.95Zm1.58 0h.6v-3.91h.02l2.73 3.9h.6v-4.94h-.61v3.9h-.02l-2.72-3.9h-.6v4.95Zm6.98.08c1.04 0 1.83-.61 2.02-1.56v-.03h-.62l-.01.03c-.22.65-.7 1-1.39 1-.98 0-1.63-.8-1.63-2s.64-1.99 1.63-1.99c.7 0 1.18.35 1.38.96l.02.07h.62v-.03c-.2-.94-1-1.56-2.02-1.56-1.38 0-2.26.99-2.26 2.55 0 1.56.88 2.56 2.26 2.56Zm3.03-.03c.22 0 .4-.18.4-.4 0-.21-.18-.38-.4-.38-.22 0-.4.17-.4.39s.18.39.4.39Z" fill="#F8F9FD"/><circle cx="165.89" cy="181.57" r="15.23" fill="url(#qestxpv1h)"/><circle cx="165.89" cy="181.57" r="15.11" stroke="url(#restxpv1h)" stroke-opacity=".3" stroke-width=".23"/><circle cx="162.5" cy="181.57" r="5.08" fill="#EB001B"/><circle cx="169.27" cy="181.57" fill="#F79E1B" r="5.08"/><path d="M165.88 185.36a5.06 5.06 0 0 0 0-7.57 5.06 5.06 0 0 0 0 7.57Z" fill="#FF5F00"/><path d="M283.84 186.52h1.76v-10.03h-1.77l-2.62 1.84v1.65l2.59-1.78h.04v8.32Zm4.12 0H295v-1.47h-4.68v-.07l2.2-2.1c1.77-1.7 2.32-2.5 2.32-3.68v-.01c0-1.66-1.4-2.88-3.41-2.88-2.04 0-3.58 1.32-3.58 3.15v.05h1.68v-.05c.02-.96.8-1.7 1.91-1.7.97 0 1.64.63 1.65 1.53v.01c0 .75-.29 1.25-1.6 2.54l-3.54 3.46v1.22Zm10.92 0h1.76v-10.03h-1.77l-2.62 1.84v1.65l2.6-1.78h.03v8.32Zm4.79.11a1 1 0 0 0 1-1 1 1 0 0 0-1-1 1 1 0 0 0-1.01 1 1 1 0 0 0 1 1Zm6.12.06c2.22 0 3.77-1.41 3.77-3.48v-.01c0-1.9-1.38-3.3-3.3-3.3-1 0-1.83.4-2.26 1.08h-.04l.28-3.02h4.73v-1.47h-6.16l-.48 5.83h1.56c.12-.22.29-.42.48-.57.38-.32.87-.5 1.44-.5 1.18 0 2.02.83 2.02 1.97v.02c0 1.17-.83 2-2.03 2-1.05 0-1.82-.65-1.96-1.5l-.01-.04h-1.68v.09c.14 1.66 1.55 2.9 3.64 2.9Zm9.76-.17h1.7v-1.93h1.37v-1.47h-1.36v-6.63h-2.55l-4.17 6.57v1.53h5v1.93Zm-3.4-3.36v-.05l3.39-5.27h.04v5.32h-3.42Z" fill="#D1D4DC"/><path opacity=".4" d="M328.47 187.62c1.45 0 2.32-.88 2.32-2.15v-3.8h-.73v3.75c0 .9-.58 1.52-1.6 1.52-1 0-1.59-.62-1.59-1.52v-3.75h-.73v3.8c0 1.27.88 2.15 2.33 2.15Zm5.37 0c1.34 0 2.16-.66 2.16-1.7 0-.9-.5-1.38-1.7-1.64l-.65-.15c-.76-.16-1.12-.46-1.12-.94 0-.57.51-.94 1.3-.95.74 0 1.24.36 1.33.95v.06h.73v-.06c-.06-.96-.9-1.62-2.04-1.62-1.2 0-2.06.67-2.06 1.64 0 .85.53 1.37 1.67 1.62l.65.14c.8.18 1.14.47 1.14.98 0 .61-.53 1-1.37 1-.85 0-1.42-.37-1.5-.95l-.01-.06h-.73v.06c.08 1 .93 1.62 2.2 1.62Zm3.02-.1h1.96c1.74 0 2.76-1.08 2.76-2.93 0-1.84-1.03-2.92-2.76-2.92h-1.96v5.85Zm.72-.66v-4.54h1.2c1.32 0 2.06.81 2.06 2.27v.01c0 1.45-.74 2.26-2.07 2.26h-1.19Z" fill="#fff"/><path d="M467.6 186.72c-2.07 0-3.57-1.24-3.65-3.02h1.68c.11.94.92 1.57 1.98 1.57 1.2 0 2.02-.83 2.02-2.01 0-1.17-.83-2-2.02-2-.86 0-1.53.38-1.91 1.06h-1.57l.48-5.83h6.16v1.47h-4.73l-.28 3.02h.04c.44-.67 1.26-1.07 2.27-1.07a3.18 3.18 0 0 1 3.3 3.3c0 2.08-1.55 3.51-3.78 3.51Zm6.11-.12c-.56 0-1-.44-1-1a1 1 0 0 1 1-1 1 1 0 0 1 1 1c0 .56-.44 1-1 1Zm4.43-.08v-8.32h-.04l-2.6 1.78v-1.65l2.63-1.84h1.77v10.03h-1.76Zm7.6.2c-1.87 0-3.33-1.08-3.6-2.66h1.78c.25.8.92 1.2 1.84 1.2 1.57 0 2.34-1.47 2.34-3.8h-.03c-.39.97-1.42 1.62-2.72 1.62a3.21 3.21 0 0 1-3.33-3.29c0-2.04 1.58-3.51 3.75-3.51 2.06 0 4.05 1.4 4.05 5.1 0 3.35-1.53 5.34-4.08 5.34Zm.03-5.03c1.16 0 2.03-.81 2.03-1.93 0-1.13-.88-2-2-2-1.13 0-2.02.86-2.02 1.96 0 1.15.85 1.97 2 1.97Z" fill="#089981"/><path opacity=".4" d="M496.05 187.62c1.45 0 2.32-.88 2.32-2.15v-3.8h-.73v3.75c0 .9-.58 1.52-1.6 1.52-1 0-1.59-.62-1.59-1.52v-3.75h-.73v3.8c0 1.27.88 2.15 2.33 2.15Zm5.37 0c1.33 0 2.16-.66 2.16-1.7 0-.9-.5-1.38-1.7-1.64l-.65-.15c-.77-.16-1.12-.46-1.12-.94 0-.57.51-.94 1.3-.95.74 0 1.23.36 1.32.95l.01.06h.73v-.06c-.07-.96-.9-1.62-2.05-1.62-1.2 0-2.05.67-2.06 1.64 0 .85.54 1.37 1.68 1.62l.65.14c.8.18 1.14.47 1.14.98 0 .61-.53 1-1.37 1-.85 0-1.42-.37-1.5-.95l-.01-.06h-.73v.06c.08 1 .93 1.62 2.2 1.62Zm3.01-.1h1.97c1.74 0 2.76-1.08 2.76-2.93 0-1.84-1.03-2.92-2.76-2.92h-1.97v5.85Zm.73-.66v-4.54h1.2c1.32 0 2.06.81 2.06 2.27v.01c0 1.45-.74 2.26-2.07 2.26h-1.19Z" fill="#fff"/><path d="M543.69 184.52h.82v-2.86h2.92v-.73h-2.92v-2.27h3.19v-.74h-4.01v6.6Zm5.27-5.56a.5.5 0 0 0 .5-.5.5.5 0 0 0-.5-.5.5.5 0 0 0 0 1Zm-.4 5.56h.8v-4.76h-.8v4.76Zm1.89 0h.8v-2.8c0-.81.48-1.35 1.23-1.35.73 0 1.1.43 1.1 1.2v2.95h.8v-3.09c0-1.08-.61-1.76-1.66-1.76-.72 0-1.2.32-1.46.77h-.02v-.68h-.8v4.76Zm6.33.1c.63 0 1.2-.35 1.49-.87h.01v.77h.8v-3.29c0-.95-.7-1.56-1.83-1.56-1.12 0-1.8.63-1.87 1.41v.05h.76l.01-.04c.1-.42.48-.72 1.09-.72.66 0 1.04.36 1.04.94v.4l-1.36.07c-1.1.07-1.72.57-1.72 1.38v.01c0 .87.63 1.44 1.58 1.44Zm-.77-1.45c0-.45.37-.73 1-.77l1.27-.08v.4c0 .68-.57 1.2-1.32 1.2-.58 0-.95-.29-.95-.75Zm4.08 1.35h.8v-2.8c0-.81.49-1.35 1.24-1.35.73 0 1.09.43 1.09 1.2v2.95h.8v-3.09c0-1.08-.6-1.76-1.65-1.76-.72 0-1.2.32-1.47.77h-.01v-.68h-.8v4.76Zm6.91.1c1.08 0 1.86-.7 1.99-1.62v-.03h-.78v.04c-.14.53-.56.9-1.2.9-.83 0-1.4-.66-1.4-1.76v-.01c0-1.08.56-1.77 1.38-1.77.7 0 1.09.42 1.2.9l.02.04h.77v-.04c-.1-.81-.8-1.6-1.99-1.6-1.32 0-2.2.96-2.2 2.46 0 1.52.86 2.48 2.21 2.48Zm4.68 0c1.04 0 1.82-.63 1.98-1.42v-.04h-.78l-.01.04c-.14.4-.56.7-1.17.7-.84 0-1.38-.56-1.4-1.55h3.43v-.29c0-1.43-.8-2.39-2.1-2.39s-2.14 1.01-2.14 2.48c0 1.5.83 2.46 2.2 2.46Zm-.05-4.25c.7 0 1.2.44 1.28 1.36h-2.6c.09-.88.63-1.36 1.32-1.36Z" fill="#B2B5BE"/><path d="m392.6 186.52 4.4-8.53v-.03h-5.21v-1.47h6.98v1.5l-4.3 8.53h-1.87Zm7.14.08c-.56 0-1-.44-1-1a1 1 0 0 1 1-1 1 1 0 0 1 1 1c0 .56-.44 1-1 1Zm7.53-.08v-1.93h-5v-1.53a68 68 0 0 1 4.16-6.57h2.55v6.63h1.37v1.47h-1.37v1.93h-1.7Zm-3.39-3.4v.04h3.42v-5.34h-.03a57.33 57.33 0 0 0-3.39 5.3Zm11.49 3.6c-2.2 0-4.06-1.54-4.06-5.1 0-3.34 1.53-5.34 4.08-5.34 1.87 0 3.3 1.09 3.59 2.7h-1.78c-.26-.79-.91-1.24-1.81-1.24-1.54 0-2.35 1.44-2.36 3.8h.03c.4-.91 1.4-1.61 2.76-1.61a3.17 3.17 0 0 1 3.3 3.29c0 2.03-1.59 3.5-3.75 3.5Zm-.03-1.46c1.12 0 2-.88 2-1.97a1.9 1.9 0 0 0-1.98-1.98c-1.16 0-2.02.82-2.02 1.94 0 1.13.88 2.01 2 2.01Zm6.91-3.86c-1.38 0-2.29-1-2.29-2.53 0-1.55.92-2.52 2.3-2.52 1.37 0 2.29.97 2.29 2.52 0 1.54-.91 2.53-2.3 2.53Zm.63 5.12h-1.37l6.87-10.03h1.37l-6.87 10.03Zm-.63-6.17c.62 0 1.03-.53 1.03-1.48 0-.96-.4-1.46-1.03-1.46-.6 0-1.02.5-1.02 1.46 0 .95.41 1.48 1.02 1.48Zm6.75 6.3c-1.38 0-2.29-.99-2.29-2.52 0-1.56.92-2.53 2.3-2.53 1.37 0 2.28.97 2.28 2.52 0 1.54-.9 2.53-2.29 2.53Zm0-1.05c.62 0 1.03-.53 1.03-1.47 0-.96-.4-1.47-1.03-1.47-.6 0-1.03.5-1.03 1.47 0 .94.42 1.47 1.03 1.47Z" fill="#089981"/><path stroke="url(#sestxpv1h)" d="M132.15 204.17h524.36"/><g clip-path="url(#testxpv1h)"><path d="M191.01 228.72h1.34v-5.87h.04l2.38 5.87h1l2.38-5.87h.04v5.87h1.33v-8.25h-1.7l-2.53 6.3h-.04l-2.53-6.3h-1.7v8.25Zm9.97 0h5.35v-1.24h-3.87v-2.35h3.66v-1.2h-3.66v-2.22h3.87v-1.24h-5.35v8.25Zm8.65 0h1.47v-7.01h2.47v-1.24h-6.41v1.24h2.47v7.01Zm3.24 0h1.55l.69-2.13h3.05l.7 2.13h1.54l-2.93-8.25h-1.67l-2.93 8.25Zm3.75-6.78h.03l1.14 3.51h-2.3l1.13-3.51Z" fill="#2962FF"/><path d="M190.48 241h.58v-3.83h.02l1.58 3.83h.52l1.58-3.83h.03V241h.57v-4.95h-.71l-1.72 4.17h-.02l-1.72-4.17h-.7V241Zm5.84 0h3.07v-.56h-2.45v-1.7h2.33v-.55h-2.33v-1.59h2.45v-.55h-3.07V241Zm5.14 0h.62v-4.4h1.56v-.55h-3.74v.55h1.56v4.4Zm1.75 0h.65l.5-1.42h1.97l.5 1.42h.65l-1.83-4.95h-.6L203.2 241Zm2.13-4.21h.01l.8 2.27h-1.6l.79-2.27Zm4.15 4.21h.61v-1.77h1.15c.93 0 1.6-.65 1.6-1.6 0-.94-.67-1.58-1.6-1.58h-1.76V241Zm1.6-4.4c.71 0 1.12.38 1.12 1.03v.01c0 .66-.4 1.04-1.12 1.04h-.99v-2.09h1Zm2.46 4.4h3.01v-.56h-2.39v-4.4h-.62V241Zm3.3 0h.64l.5-1.42h1.97l.5 1.42h.65l-1.83-4.95h-.6l-1.84 4.95Zm2.12-4.21h.01l.8 2.27h-1.6l.79-2.27Zm3.27 4.21h.62v-4.4h1.56v-.55h-3.74v.55h1.56v4.4Zm2.83 0h.62v-2.15h2.2v-.54h-2.2v-1.7h2.4v-.56h-3.02V241Zm5.81.08c1.4 0 2.28-.98 2.28-2.56 0-1.57-.88-2.56-2.28-2.56s-2.28.99-2.28 2.56c0 1.58.88 2.56 2.28 2.56Zm0-.57c-1.01 0-1.65-.77-1.65-1.98v-.01c0-1.22.64-1.99 1.65-1.99 1.01 0 1.65.77 1.65 1.99 0 1.21-.63 2-1.65 2Zm3.05.49h.62v-1.96h1.19l1.06 1.96h.72l-1.15-2.06c.62-.2 1-.72 1-1.41 0-.9-.63-1.48-1.58-1.48h-1.86V241Zm.62-2.5v-1.9h1.16c.63 0 1.02.34 1.02.94 0 .61-.36.95-1 .95h-1.18Zm3.6 2.5h.58v-3.83h.02l1.58 3.83h.52l1.58-3.83h.02V241h.58v-4.95h-.71l-1.72 4.17h-.02l-1.72-4.17h-.71V241Zm7.46.08c1.14 0 1.83-.55 1.83-1.43 0-.76-.42-1.17-1.44-1.4l-.55-.12c-.64-.14-.94-.4-.94-.8 0-.48.43-.8 1.1-.8.62 0 1.04.3 1.12.8v.05h.62v-.05c-.06-.8-.76-1.37-1.73-1.37-1.02 0-1.74.57-1.74 1.39 0 .72.45 1.16 1.42 1.37l.55.12c.68.16.96.4.96.84 0 .51-.45.83-1.16.83-.72 0-1.2-.3-1.27-.8l-.01-.05h-.62v.05c.07.85.8 1.37 1.86 1.37Zm2.22.9h.43l.5-1.69h-.62l-.3 1.68Zm2.95-.98h.61v-4.95h-.61V241Zm1.58 0h.6v-3.91h.02l2.73 3.91h.6v-4.95h-.61v3.9h-.02l-2.72-3.9h-.6V241Zm6.98.08c1.04 0 1.83-.61 2.02-1.56v-.03h-.62v.03c-.22.65-.7 1-1.4 1-.98 0-1.63-.8-1.63-2s.64-1.99 1.63-1.99c.7 0 1.19.35 1.38.95l.02.08h.63v-.03c-.2-.94-1-1.57-2.03-1.57-1.38 0-2.26 1-2.26 2.56s.89 2.56 2.26 2.56Zm3.03-.03c.22 0 .4-.17.4-.4 0-.21-.18-.39-.4-.39-.22 0-.39.18-.39.4 0 .22.17.39.4.39Z" fill="#F8F9FD"/><circle cx="165.68" cy="231.82" r="15.23" fill="url(#uestxpv1h)"/><path fill-rule="evenodd" d="M166.25 228.53c-1.44-1.83-2.64-2.53-4.08-2.53-2.93 0-5.17 3.82-5.17 7.87 0 2.53 1.22 4.13 3.27 4.13 1.47 0 2.53-.7 4.41-4l1.32-2.34v-.03l.25-3.1Zm-5.91 7.52c.85 0 1.38-.54 2.9-2.94l1.84-2.87c-1.2-1.73-2-2.28-2.93-2.28-1.74 0-3.2 3-3.2 5.94 0 1.38.52 2.15 1.39 2.15Z" fill="url(#vestxpv1h)"/><path d="m166 231.66.25-2.91-.02-.23.01.01c1.05-1.41 2.2-2.53 3.68-2.53 2.79 0 5.08 3.56 5.08 7.8 0 2.58-1.1 4.2-3.1 4.2-1.74 0-2.7-.98-4.41-3.87l-.89-1.48-.6-.99Zm1.95-.62 1.06 1.77c1.65 2.66 2.06 3.24 2.93 3.24.9 0 1.34-.78 1.34-2.12 0-3.52-1.55-6.38-3.49-6.38-.93 0-1.71.73-2.66 2.2l.82 1.3Z" fill="url(#westxpv1h)"/><rect x="150.56" y="216.7" width="30.24" height="30.24" rx="15.12" stroke="url(#xestxpv1h)" stroke-opacity=".3" stroke-width=".23"/><path d="M281.16 236.75h7.05v-1.46h-4.68v-.08l2.21-2.1c1.77-1.7 2.31-2.5 2.31-3.68v-.01c0-1.66-1.4-2.88-3.4-2.88-2.05 0-3.6 1.32-3.6 3.16v.04h1.7v-.05c.01-.96.8-1.7 1.9-1.7.97 0 1.65.63 1.65 1.53v.01c0 .75-.28 1.26-1.6 2.54l-3.54 3.46v1.22Zm10.93 0h1.76v-10.03h-1.78l-2.62 1.84v1.65l2.6-1.78h.04v8.32Zm7.91.18c2.46 0 3.95-2 3.95-5.2s-1.5-5.19-3.95-5.19c-2.46 0-3.94 2-3.94 5.19 0 3.2 1.48 5.2 3.94 5.2Zm0-1.47c-1.35 0-2.13-1.4-2.13-3.72v-.01c0-2.32.78-3.71 2.13-3.71 1.35 0 2.14 1.39 2.14 3.7v.02c0 2.31-.79 3.72-2.14 3.72Zm5.87 1.4a1 1 0 0 0 1-1 1 1 0 0 0-1-1 1 1 0 0 0-1 1 1 1 0 0 0 1 1Zm6.14.07c2.3 0 3.9-1.2 3.9-2.9V234c0-1.28-.93-2.26-2.25-2.53v-.05c1.14-.3 1.89-1.14 1.89-2.2v-.02c0-1.54-1.46-2.67-3.54-2.67-2.06 0-3.53 1.13-3.53 2.67v.01c0 1.07.75 1.9 1.9 2.21v.04c-1.33.28-2.26 1.26-2.26 2.54v.01c0 1.71 1.6 2.9 3.9 2.9Zm0-6.07c-1.04 0-1.75-.6-1.75-1.47v-.01c0-.88.72-1.48 1.75-1.48 1.04 0 1.76.6 1.76 1.47v.02c0 .87-.71 1.47-1.75 1.47Zm0 4.7c-1.2 0-2.05-.7-2.05-1.65v-.01c0-.97.85-1.67 2.06-1.67 1.2 0 2.05.7 2.05 1.67s-.85 1.66-2.06 1.66Zm5.24 1.2h7.06v-1.47h-4.69v-.08l2.21-2.1c1.77-1.7 2.32-2.5 2.32-3.68v-.01c0-1.66-1.4-2.88-3.41-2.88-2.04 0-3.59 1.32-3.59 3.16v.04h1.69v-.05c.02-.96.8-1.7 1.91-1.7.97 0 1.64.63 1.65 1.53v.01c0 .75-.29 1.26-1.6 2.54l-3.55 3.46v1.22Z" fill="#D1D4DC"/><path opacity=".4" d="M330.32 237.85c1.45 0 2.32-.88 2.32-2.15v-3.8h-.73v3.75c0 .9-.58 1.53-1.6 1.53-1 0-1.6-.63-1.6-1.53v-3.75H328v3.8c0 1.28.87 2.15 2.33 2.15Zm5.37 0c1.34 0 2.16-.66 2.16-1.7 0-.9-.5-1.38-1.7-1.64l-.65-.14c-.76-.17-1.12-.47-1.12-.95 0-.57.51-.94 1.3-.94.74 0 1.24.35 1.33.95v.05h.74v-.06c-.07-.96-.91-1.62-2.05-1.62-1.2 0-2.06.68-2.06 1.64 0 .86.53 1.37 1.68 1.62l.64.15c.8.17 1.14.46 1.14.98 0 .6-.53.99-1.37.99-.85 0-1.42-.36-1.5-.95l-.01-.06h-.73v.06c.08 1 .93 1.62 2.2 1.62Zm3.02-.1h1.96c1.75 0 2.77-1.08 2.77-2.93 0-1.84-1.03-2.92-2.77-2.92h-1.96v5.85Zm.73-.65v-4.54h1.19c1.32 0 2.06.8 2.06 2.26v.01c0 1.45-.74 2.27-2.06 2.27h-1.2Z" fill="#fff"/><path d="M463.95 233.45h4.48v-1.54h-4.48v1.54Zm9.7 3.48c2.23 0 3.76-1.23 3.76-2.97v-.02c0-1.39-.99-2.26-2.47-2.4v-.04c1.2-.25 2.11-1.07 2.11-2.32v-.01c0-1.56-1.34-2.63-3.41-2.63-2.03 0-3.4 1.13-3.54 2.83l-.01.08h1.67v-.07c.1-.86.82-1.41 1.88-1.41 1.07 0 1.69.53 1.69 1.43v.02c0 .87-.74 1.5-1.85 1.5h-1.14v1.33h1.19c1.28 0 2.05.59 2.05 1.65 0 .92-.77 1.56-1.93 1.56-1.17 0-1.95-.6-2.05-1.4v-.08h-1.73l.01.08c.14 1.69 1.57 2.87 3.78 2.87Zm5.94-.06a1 1 0 0 0 1-1.01 1 1 0 0 0-1-1 1 1 0 0 0-1 1 1 1 0 0 0 1 1Zm5.9.06c2.2 0 3.74-1.23 3.74-2.97v-.02c0-1.39-.98-2.26-2.46-2.4v-.04c1.2-.25 2.1-1.07 2.1-2.32v-.01c0-1.56-1.34-2.63-3.41-2.63-2.02 0-3.4 1.13-3.54 2.83v.08h1.66v-.07c.1-.86.82-1.41 1.88-1.41 1.08 0 1.69.53 1.69 1.43v.02c0 .87-.74 1.5-1.84 1.5h-1.15v1.33h1.19c1.28 0 2.06.59 2.06 1.65 0 .92-.78 1.56-1.94 1.56-1.17 0-1.95-.6-2.05-1.4v-.08h-1.72v.08c.14 1.69 1.58 2.87 3.78 2.87Zm9.03 0c2.17 0 3.75-1.46 3.75-3.48v-.01a3.17 3.17 0 0 0-3.29-3.28c-1.36 0-2.36.7-2.76 1.61h-.04c0-2.03.67-3.76 2.37-3.76.9 0 1.52.45 1.78 1.14l.03.06h1.78l-.02-.08c-.31-1.51-1.7-2.59-3.56-2.59-2.56 0-4.1 1.99-4.1 5.3v.02c0 3.52 1.84 5.07 4.06 5.07Zm-2.03-3.45c0-1.13.88-1.94 2.02-1.94a1.9 1.9 0 0 1 2 1.96v.01c0 1.09-.9 1.95-2.02 1.95s-2-.87-2-1.98Z" fill="#CC2F3C"/><path opacity=".4" d="M503.99 237.85c1.45 0 2.32-.88 2.32-2.15v-3.8h-.73v3.75c0 .9-.57 1.53-1.59 1.53-1.01 0-1.6-.63-1.6-1.53v-3.75h-.73v3.8c0 1.28.88 2.15 2.33 2.15Zm5.37 0c1.34 0 2.16-.66 2.16-1.7 0-.9-.5-1.38-1.7-1.64l-.65-.14c-.76-.17-1.11-.47-1.11-.95 0-.57.5-.94 1.29-.94.74 0 1.24.35 1.33.95v.05h.74v-.06c-.07-.96-.9-1.62-2.05-1.62-1.2 0-2.06.68-2.06 1.64 0 .86.54 1.37 1.68 1.62l.65.15c.8.17 1.14.46 1.14.98 0 .6-.53.99-1.38.99-.84 0-1.41-.36-1.5-.95v-.06h-.74v.06c.08 1 .94 1.62 2.2 1.62Zm3.02-.1h1.97c1.74 0 2.76-1.08 2.76-2.93 0-1.84-1.03-2.92-2.76-2.92h-1.97v5.85Zm.73-.65v-4.54h1.19c1.33 0 2.06.8 2.06 2.26v.01c0 1.45-.73 2.27-2.06 2.27h-1.19Z" fill="#fff"/><path d="M398.07 236.75v-8.32h-.04l-2.6 1.78v-1.65l2.63-1.84h1.77v10.03h-1.76Zm5.06.08c-.57 0-1-.44-1-1a1 1 0 0 1 1-1 1 1 0 0 1 1 1c0 .56-.45 1-1 1Zm6.33.13c-2.48 0-3.95-2.01-3.95-5.23 0-3.21 1.48-5.21 3.95-5.21 2.45 0 3.93 1.98 3.93 5.2 0 3.21-1.46 5.24-3.93 5.24Zm0-1.47c1.35 0 2.12-1.39 2.12-3.76 0-2.35-.78-3.75-2.12-3.75-1.35 0-2.15 1.4-2.15 3.74 0 2.38.78 3.77 2.15 3.77Zm7.7 1.26v-8.32h-.03l-2.6 1.78v-1.65l2.63-1.84h1.77v10.03h-1.76Zm5.99-5.12c-1.38 0-2.3-.99-2.3-2.53 0-1.55.92-2.52 2.3-2.52s2.3.97 2.3 2.52c0 1.54-.92 2.53-2.3 2.53Zm.63 5.12h-1.38l6.88-10.03h1.37l-6.87 10.03Zm-.63-6.17c.62 0 1.03-.53 1.03-1.48 0-.96-.41-1.46-1.03-1.46-.61 0-1.03.5-1.03 1.46 0 .95.42 1.48 1.03 1.48Zm6.75 6.3c-1.38 0-2.3-.98-2.3-2.52 0-1.56.93-2.52 2.3-2.52 1.38 0 2.3.96 2.3 2.51 0 1.55-.91 2.54-2.3 2.54Zm0-1.04c.62 0 1.03-.53 1.03-1.48 0-.96-.4-1.47-1.03-1.47-.6 0-1.03.51-1.03 1.47 0 .95.42 1.48 1.03 1.48Z" fill="#089981"/><path stroke="url(#yestxpv1h)" d="M131.69 254.75h535.56"/></g><path d="M191.87 279.04h1.47v-2.73h1.7c1.68 0 2.81-1.1 2.81-2.75v-.01c0-1.65-1.13-2.75-2.8-2.75h-3.18v8.24Zm2.81-7.04c1.06 0 1.67.57 1.67 1.56 0 1-.61 1.57-1.67 1.57h-1.34V272h1.34Zm7.87 7.18c2.26 0 3.6-1.34 3.6-3.58v-.89h-3.43v1.15h1.99l-.01.12c-.03 1.16-.89 1.92-2.13 1.92-1.49 0-2.42-1.13-2.42-3.02v-.01c0-1.85.9-2.94 2.38-2.94 1.01 0 1.72.52 2.04 1.4l.02.07h1.5l-.03-.1c-.31-1.51-1.58-2.65-3.54-2.65-2.37 0-3.87 1.62-3.87 4.23 0 2.67 1.5 4.3 3.9 4.3Z" fill="#2962FF"/><path d="M191.63 290.9h.61v-1.76h1.15c.93 0 1.58-.65 1.58-1.6 0-.94-.65-1.58-1.58-1.58h-1.76v4.95Zm1.6-4.39c.7 0 1.11.39 1.11 1.04 0 .66-.4 1.04-1.11 1.04h-.99v-2.08h.99Zm2.45 4.4h.62v-1.96h1.18l1.06 1.96h.72l-1.14-2.06c.62-.2 1-.72 1-1.4v-.01c0-.9-.63-1.48-1.58-1.48h-1.86v4.95Zm.62-2.5v-1.9h1.16c.63 0 1.02.35 1.02.94 0 .61-.36.95-1 .95h-1.18Zm5.68 2.58c1.4 0 2.28-.99 2.28-2.55v-.01c0-1.57-.88-2.55-2.28-2.55s-2.28.98-2.28 2.55c0 1.57.88 2.56 2.28 2.56Zm0-.57c-1.01 0-1.65-.77-1.65-1.98v-.01c0-1.22.64-1.98 1.65-1.98 1.01 0 1.65.77 1.65 1.98s-.63 1.99-1.65 1.99Zm5.11.57c1.04 0 1.83-.62 2.02-1.56v-.04h-.62l-.01.04c-.22.65-.7.99-1.39.99-.98 0-1.62-.79-1.62-1.99s.63-1.98 1.62-1.98c.7 0 1.18.35 1.38.95l.02.07h.62v-.03c-.2-.94-.99-1.56-2.02-1.56-1.38 0-2.26 1-2.26 2.55 0 1.56.89 2.56 2.26 2.56Zm3.76-.08h.62v-4.4h1.56v-.55h-3.74v.56h1.56v4.39Zm2.83 0h3.06v-.56h-2.44v-1.7h2.32v-.55h-2.32v-1.58h2.44v-.56h-3.06v4.95Zm3.88 0h.62v-1.96h1.18l1.06 1.96h.72l-1.14-2.06c.61-.2 1-.72 1-1.4v-.01c0-.9-.63-1.48-1.59-1.48h-1.85v4.95Zm.62-2.5v-1.9h1.15c.64 0 1.02.35 1.02.94 0 .61-.36.95-1 .95h-1.17Zm6.49 2.58c.65 0 1.19-.2 1.58-.58l.46.5h.77l-.88-.94c.28-.45.42-1.03.42-1.71v-.15h-.57v.14c0 .51-.08.95-.24 1.3l-1.22-1.3c.78-.43 1.06-.78 1.06-1.27 0-.65-.53-1.1-1.25-1.1-.71 0-1.25.47-1.25 1.1 0 .36.19.66.61 1.14l-.18.1c-.65.34-.97.78-.97 1.37 0 .82.68 1.4 1.66 1.4Zm-.53-3.98c0-.38.28-.65.67-.65.4 0 .67.26.67.64 0 .34-.2.57-.8.9-.38-.4-.54-.62-.54-.89Zm-.52 2.54c0-.38.2-.67.72-.97l.16-.09 1.4 1.53c-.29.3-.68.45-1.18.45-.66 0-1.1-.37-1.1-.92Zm7.8 1.44c1.31 0 2.1-.8 2.1-2.13v-.47h-2.02v.54h1.4v.1c0 .82-.6 1.39-1.49 1.39-1 0-1.63-.77-1.63-2.01 0-1.23.62-1.96 1.63-1.96.7 0 1.18.36 1.41.99l.01.03h.65l-.02-.06c-.22-.88-.9-1.53-2.05-1.53-1.38 0-2.26.98-2.26 2.52 0 1.58.88 2.59 2.26 2.59Zm2.49-.08h.65l.5-1.42h1.96l.5 1.42h.65l-1.83-4.95h-.6l-1.83 4.95Zm2.12-4.2h.01l.8 2.26h-1.6l.8-2.27Zm2.7 4.2h.58v-3.83h.02l1.58 3.83h.52l1.58-3.83h.02v3.83h.57v-4.95h-.7l-1.72 4.17h-.02l-1.72-4.17h-.7v4.95Zm5.83 0h1.87c1.05 0 1.68-.52 1.68-1.4 0-.65-.44-1.13-1.15-1.21v-.02c.51-.07.9-.57.9-1.08 0-.75-.58-1.24-1.42-1.24h-1.88v4.95Zm1.74-4.4c.6 0 .93.26.93.75 0 .54-.4.83-1.12.83h-.93v-1.58h1.12Zm-.02 2.11c.79 0 1.2.3 1.2.87 0 .57-.4.87-1.14.87h-1.16v-1.74h1.1Zm2.53 2.29h3v-.56h-2.39v-4.39h-.61v4.95Zm3.68 0h3.06v-.56h-2.45v-1.7h2.32v-.55h-2.32v-1.58h2.45v-.56h-3.06v4.95Zm4.15.04c.22 0 .4-.17.4-.39s-.18-.39-.4-.39c-.22 0-.4.17-.4.4 0 .21.18.38.4.38Zm1.5 0c.23 0 .4-.17.4-.39s-.17-.39-.4-.39c-.21 0-.38.17-.38.4 0 .21.17.38.39.38Zm1.51 0c.23 0 .4-.17.4-.39s-.18-.39-.4-.39a.39.39 0 0 0-.38.4c0 .21.17.38.38.38Z" fill="#F8F9FD"/><circle cx="166.58" cy="282.1" r="15.21" fill="url(#zestxpv1h)"/><rect x="151.49" y="267.01" width="30.18" height="30.18" rx="15.09" stroke="url(#aaestxpv1h)" stroke-opacity=".3" stroke-width=".23"/><path d="M162.03 278.46c.44 0 1.7-.16.92 2.13-.83 2.4-2.66 1.91-2.66 1.91l1.3-4.04h.44Zm3.32 2.28c1.04-2.52-1.05-3.32-2.3-3.32h-4.17c.35.24.44.66.37.85l-2.43 7.7c-.1.31-.57.75-.76.8h3.37c-.2-.03-.34-.42-.24-.77l.88-2.79s4.05.55 5.28-2.47Z" fill="#fff"/><path d="M166.71 285.47c-.13.08-.66.34-1.15.39-.46.04-1.22-.13-1.22-1.04 0-.79.86-1.35 1.31-1.55.2.75.62 1.61 1.06 2.2Zm1.33-4.91c-.11.74-1.06 1.48-1.3 1.57a2.51 2.51 0 0 1 .32-1.6c.24-.34.54-.5.78-.41.2.07.23.24.2.44Zm0 6.22h2.28a6.64 6.64 0 0 1-2.23-1.53c.35-.37.77-.84.85-1.8h-1.18s.24.12.24.4c0 .25-.11.6-.3.85a4.54 4.54 0 0 1-.85-1.94c.46-.22 1.11-.47 1.62-.91.5-.43.6-.83.61-1.1v-.03c0-.27-.1-.52-.3-.72-.34-.34-.88-.47-1.45-.37a2.2 2.2 0 0 0-1.03.5c-.7.63-.78 1.7-.78 2.17l.01.25-.11.04c-.5.18-1.83.54-2.3 1.63-.07.13-.16.44-.16.79 0 .3.06.63.26.94.34.52.9.84 1.82.83 1-.02 1.98-.7 2.15-.81.17.16.63.7.85.8Z" fill="#fff"/><path d="M174.94 278.24c1.35-.32 2.47.73 2.57.8l.38-1.21c-.53-.16-4.4-1.47-7.13 1.63-1.68 1.91-2.1 5.82.03 6.86 2.29 1.12 4.81-.17 5-.26l1.1-3.13c.12-.4.37-.67.82-.83h-3.62c.52.22.49.61.44.77l-1.1 3.15c-.14.02-3.06.74-1.43-4.32.35-1.08 1.34-3.07 2.94-3.46Z" fill="#fff"/><path d="M284.37 287.06h1.76v-10.02h-1.77l-2.62 1.84v1.65l2.59-1.78h.04v8.3Zm6.64 0h1.75v-10.02H291l-2.61 1.84v1.65l2.59-1.78h.04v8.3Zm8 .17c2.16 0 3.74-1.45 3.74-3.47v-.01a3.16 3.16 0 0 0-3.28-3.27c-1.36 0-2.36.7-2.76 1.6h-.03c0-2.02.66-3.75 2.36-3.75.9 0 1.51.45 1.78 1.13l.02.07h1.78l-.01-.08c-.32-1.51-1.7-2.58-3.56-2.58-2.55 0-4.09 1.98-4.09 5.29v.01c0 3.51 1.84 5.06 4.05 5.06Zm-2.03-3.44c0-1.13.88-1.93 2.02-1.93a1.9 1.9 0 0 1 1.99 1.95v.01c0 1.09-.89 1.95-2 1.95-1.12 0-2-.87-2-1.98Zm8.04 3.38a1 1 0 0 0 1-1c0-.56-.44-1-1-1a1 1 0 0 0-1.01 1 1 1 0 0 0 1 1Zm2.38-.11h7.05v-1.47h-4.68v-.07l2.2-2.1c1.77-1.7 2.32-2.5 2.32-3.67v-.01c0-1.66-1.4-2.87-3.4-2.87-2.04 0-3.58 1.31-3.58 3.14v.05h1.68v-.05c.02-.96.8-1.7 1.9-1.7.97 0 1.64.63 1.65 1.53v.01c0 .75-.28 1.25-1.6 2.54l-3.54 3.45v1.22Zm8.39 0h7.04v-1.47h-4.67v-.07l2.2-2.1c1.77-1.7 2.31-2.5 2.31-3.67v-.01c0-1.66-1.4-2.87-3.4-2.87-2.04 0-3.58 1.31-3.58 3.14v.05h1.68v-.05c.02-.96.8-1.7 1.91-1.7.97 0 1.64.63 1.65 1.53v.01c0 .75-.29 1.25-1.6 2.54l-3.54 3.45v1.22Z" fill="#D1D4DC"/><path opacity=".4" d="M329 288.16c1.45 0 2.32-.88 2.32-2.15v-3.8h-.73v3.75c0 .9-.58 1.52-1.59 1.52-1.01 0-1.6-.62-1.6-1.52v-3.75h-.72v3.8c0 1.27.87 2.15 2.32 2.15Zm5.36 0c1.34 0 2.16-.66 2.16-1.7 0-.9-.5-1.38-1.7-1.64l-.65-.14c-.76-.17-1.11-.47-1.11-.95 0-.56.5-.94 1.29-.94.74 0 1.24.35 1.33.95v.06h.74v-.07c-.07-.95-.9-1.61-2.05-1.61-1.2 0-2.05.67-2.06 1.63 0 .86.54 1.37 1.68 1.62l.65.15c.8.17 1.13.46 1.13.98 0 .6-.52.98-1.37.98-.84 0-1.41-.36-1.5-.94v-.06h-.73v.06c.07 1 .93 1.62 2.2 1.62Zm3.01-.1h1.97c1.74 0 2.76-1.08 2.76-2.93 0-1.84-1.03-2.92-2.76-2.92h-1.96v5.85Zm.73-.66v-4.53h1.19c1.32 0 2.06.8 2.06 2.26v.01c0 1.45-.74 2.26-2.06 2.26h-1.19Z" fill="#fff"/><path d="M466.45 282.57v-1.33h1.15c1.1 0 1.84-.64 1.84-1.53 0-.88-.58-1.45-1.69-1.45-1.05 0-1.8.57-1.87 1.51h-1.67c.12-1.8 1.53-2.93 3.54-2.93 2.08 0 3.41 1.08 3.41 2.63 0 1.26-.9 2.1-2.1 2.35v.03c1.48.14 2.45 1.03 2.45 2.42 0 1.78-1.55 2.99-3.74 2.99-2.2 0-3.68-1.2-3.77-2.97h1.71c.07.9.87 1.5 2.06 1.5 1.14 0 1.93-.64 1.93-1.56 0-1.07-.77-1.66-2.06-1.66h-1.19Zm7.51 4.56c-.56 0-1-.43-1-1 0-.55.44-1 1-1s1 .45 1 1c0 .57-.44 1-1 1Zm4.84-4.56v-1.33h1.14c1.1 0 1.84-.64 1.84-1.53 0-.88-.58-1.45-1.68-1.45-1.06 0-1.82.57-1.88 1.51h-1.67c.12-1.8 1.53-2.93 3.55-2.93 2.07 0 3.4 1.08 3.4 2.63 0 1.26-.9 2.1-2.1 2.35v.03c1.48.14 2.46 1.03 2.46 2.42 0 1.78-1.56 2.99-3.75 2.99-2.2 0-3.68-1.2-3.77-2.97h1.71c.07.9.87 1.5 2.06 1.5 1.14 0 1.93-.64 1.93-1.56 0-1.07-.77-1.66-2.06-1.66h-1.18Zm10.34 4.69c-2.2 0-4.05-1.54-4.05-5.1 0-3.33 1.53-5.33 4.08-5.33 1.86 0 3.29 1.09 3.58 2.7h-1.78c-.25-.79-.9-1.24-1.8-1.24-1.54 0-2.35 1.44-2.36 3.8h.03c.4-.92 1.4-1.61 2.76-1.61a3.17 3.17 0 0 1 3.28 3.28c0 2.04-1.57 3.5-3.74 3.5Zm-.03-1.46c1.12 0 2-.87 2-1.97a1.9 1.9 0 0 0-1.98-1.97c-1.15 0-2.02.82-2.02 1.94s.88 2 2 2Z" fill="#089981"/><path opacity=".4" d="M498.33 288.16c1.45 0 2.31-.88 2.31-2.15v-3.8h-.73v3.75c0 .9-.57 1.52-1.58 1.52-1.02 0-1.6-.62-1.6-1.52v-3.75H496v3.8c0 1.27.88 2.15 2.33 2.15Zm5.36 0c1.33 0 2.16-.66 2.16-1.7 0-.9-.5-1.38-1.7-1.64l-.65-.14c-.76-.17-1.12-.47-1.12-.95 0-.56.51-.94 1.3-.94.74 0 1.24.35 1.32.95l.01.06h.73v-.07c-.07-.95-.9-1.61-2.04-1.61-1.2 0-2.06.67-2.06 1.63 0 .86.53 1.37 1.68 1.62l.64.15c.8.17 1.14.46 1.14.98 0 .6-.53.98-1.37.98-.85 0-1.42-.36-1.5-.94v-.06h-.74v.06c.08 1 .94 1.62 2.2 1.62Zm3.01-.1h1.97c1.73 0 2.75-1.08 2.75-2.93 0-1.84-1.03-2.92-2.75-2.92h-1.97v5.85Zm.73-.66v-4.53h1.19c1.32 0 2.06.8 2.06 2.26v.01c0 1.45-.74 2.26-2.06 2.26h-1.19Z" fill="#fff"/><path d="M394.98 287.26c-2.47 0-3.94-2-3.94-5.22 0-3.2 1.49-5.2 3.94-5.2s3.93 1.99 3.93 5.2c0 3.2-1.46 5.22-3.93 5.22Zm0-1.46c1.36 0 2.13-1.39 2.13-3.76 0-2.35-.79-3.74-2.13-3.74-1.34 0-2.13 1.4-2.13 3.73 0 2.38.77 3.77 2.13 3.77Zm6.13 1.33c-.57 0-1-.43-1-1a1 1 0 0 1 1-1c.55 0 .99.45.99 1 0 .57-.44 1-1 1Zm4.83-4.56v-1.33h1.14c1.1 0 1.84-.64 1.84-1.53 0-.88-.58-1.45-1.69-1.45-1.05 0-1.8.57-1.87 1.51h-1.67c.12-1.8 1.53-2.93 3.55-2.93 2.07 0 3.4 1.08 3.4 2.63 0 1.26-.9 2.1-2.1 2.35v.03c1.48.14 2.46 1.03 2.46 2.42 0 1.78-1.56 2.99-3.75 2.99-2.2 0-3.68-1.2-3.77-2.97h1.71c.07.9.87 1.5 2.06 1.5 1.14 0 1.93-.64 1.93-1.56 0-1.07-.77-1.66-2.06-1.66h-1.18Zm6.38-2.54c0-1.86 1.5-3.19 3.58-3.19 2.04 0 3.4 1.26 3.4 2.87 0 1.18-.56 1.96-2.31 3.68l-2.2 2.17v.03h4.66v1.47h-7.04v-1.22l3.54-3.49c1.3-1.28 1.6-1.78 1.6-2.53 0-.88-.66-1.54-1.65-1.54-1.08 0-1.9.73-1.9 1.75h-1.68Zm10.34 1.91c-1.38 0-2.3-.98-2.3-2.52 0-1.55.93-2.52 2.3-2.52 1.37 0 2.29.97 2.29 2.52 0 1.54-.9 2.52-2.29 2.52Zm.62 5.12h-1.36l6.85-10.02h1.37l-6.86 10.02Zm-.62-6.17c.62 0 1.03-.52 1.03-1.47 0-.96-.41-1.46-1.03-1.46-.61 0-1.03.5-1.03 1.46 0 .95.42 1.47 1.03 1.47Zm6.74 6.3c-1.38 0-2.3-.99-2.3-2.52 0-1.55.92-2.52 2.3-2.52 1.37 0 2.28.97 2.28 2.51 0 1.54-.9 2.53-2.28 2.53Zm0-1.05c.61 0 1.03-.52 1.03-1.47 0-.96-.41-1.46-1.03-1.46-.61 0-1.03.5-1.03 1.46 0 .94.42 1.47 1.03 1.47Z" fill="#089981"/><g clip-path="url(#abestxpv1h)"><path d="M190.44 77.9H192l.69-2.14h3.05l.7 2.13h1.54l-2.93-8.25h-1.67l-2.93 8.25Zm3.75-6.8h.03l1.14 3.52h-2.3l1.13-3.51Zm4.66 6.8h1.34v-5.88h.04l2.38 5.87h1l2.38-5.87h.04v5.87h1.33v-8.25h-1.7l-2.53 6.3h-.04l-2.53-6.3h-1.7v8.25Zm9.77 0h6.28v-1.25h-4.48v-.03l4.37-6v-.98h-6.05v1.24h4.27v.03l-4.39 6v.98Zm7.54 0h1.47v-5.81h.03l4.03 5.8h1.32v-8.25h-1.47v5.78h-.03l-4.02-5.78h-1.33v8.25Z" fill="#2962FF"/><path d="M190.37 89.79h.65l.5-1.42h1.97l.5 1.42h.65l-1.83-4.96h-.61l-1.83 4.96Zm2.13-4.22h.01l.8 2.27h-1.6l.79-2.27Zm2.7 4.22h.58v-3.83h.02l1.58 3.83h.53l1.58-3.83h.02v3.83h.58v-4.96h-.72l-1.72 4.18h-.02l-1.71-4.18h-.72v4.96Zm5.45 0h.65l.5-1.42h1.97l.5 1.42h.65l-1.83-4.96h-.61l-1.83 4.96Zm2.13-4.22h.01l.8 2.27h-1.6l.79-2.27Zm2.56 4.22H209v-.56h-2.88v-.01l2.82-3.95v-.44h-3.5v.56h2.73v.01l-2.83 3.95v.44Zm6.58.08c1.4 0 2.28-.99 2.28-2.56 0-1.58-.88-2.56-2.28-2.56s-2.29.98-2.29 2.55v.01c0 1.57.88 2.56 2.29 2.56Zm0-.57c-1.02 0-1.66-.77-1.66-1.99 0-1.23.64-2 1.66-2 1 0 1.65.78 1.65 2 0 1.2-.63 1.99-1.65 1.99Zm3.05.49h.6v-3.92h.02l2.73 3.92h.6v-4.96h-.61v3.91h-.02l-2.72-3.9h-.6v4.95Zm5.19.04c.22 0 .39-.17.39-.39s-.17-.39-.4-.39c-.21 0-.38.17-.38.4 0 .21.17.38.39.38Zm2.79.04c1.04 0 1.83-.62 2.02-1.56v-.04h-.62l-.01.03c-.22.65-.7 1-1.4 1-.98 0-1.62-.79-1.62-2 0-1.2.64-1.98 1.63-1.98.7 0 1.18.35 1.38.95l.02.08h.62v-.04c-.2-.94-1-1.56-2.02-1.56-1.38 0-2.26 1-2.26 2.55 0 1.56.88 2.57 2.26 2.57Zm4.85 0c1.4 0 2.28-.99 2.28-2.56 0-1.58-.88-2.56-2.28-2.56s-2.29.98-2.29 2.55v.01c0 1.57.88 2.56 2.29 2.56Zm0-.57c-1.02 0-1.66-.77-1.66-1.99 0-1.23.65-2 1.66-2 1 0 1.65.78 1.65 2 0 1.2-.63 1.99-1.65 1.99Zm3.05.49h.58v-3.83h.02l1.58 3.83h.52l1.58-3.83h.02v3.83h.58v-4.96h-.71l-1.72 4.18h-.02l-1.72-4.18h-.71v4.96Zm5.5.97h.43l.5-1.68h-.62l-.3 1.68Zm2.95-.97h.62v-4.96h-.62v4.96Zm1.58 0h.61v-3.92h.02l2.73 3.92h.6v-4.96h-.62v3.91h-.01l-2.73-3.9h-.6v4.95Zm6.99.08c1.03 0 1.83-.62 2.02-1.56v-.04h-.62l-.01.03c-.22.65-.7 1-1.4 1-.98 0-1.62-.79-1.62-2 0-1.2.64-1.98 1.63-1.98.7 0 1.18.35 1.37.95l.03.08h.62v-.04c-.2-.94-1-1.56-2.02-1.56-1.38 0-2.27 1-2.27 2.55 0 1.56.89 2.57 2.27 2.57Zm3.03-.04c.22 0 .39-.17.39-.39s-.17-.39-.4-.39c-.21 0-.38.17-.38.4 0 .21.17.38.39.38Z" fill="#F8F9FD"/><rect x="150.44" y="65.75" width="30.47" height="30.47" rx="15.23" fill="url(#acestxpv1h)"/><path d="M172.3 83.63c-.47-.58-.82-1-.82-2.12V77.8c0-1.57-.1-3.04-1.26-4.11-.93-.85-2.45-1.17-3.65-1.17-2.54 0-4.81 1.04-5.36 3.81-.05.32.18.45.37.5l2.4.22c.23 0 .37-.23.42-.45.18-.94 1.02-1.73 1.94-1.73.51 0 1.51.51 1.51 1.58v1.35c-1.48 0-3.13.1-4.42.63-1.53.63-2.83 1.84-2.83 3.76 0 2.47 1.9 3.81 3.93 3.81 1.7 0 2.64-.44 3.98-1.74.42.63.67 1.07 1.46 1.74.18.1.41.1.55-.04.46-.4 1.27-1.25 1.77-1.66.24-.18.19-.45 0-.67Zm-4.45-3.49c0 .9-.17 3.13-2.44 3.13-1.16 0-1.18-1.37-1.18-1.37 0-1.76 1.87-2.34 3.62-2.34v.58Z" fill="#fff"/><path d="M172.66 87.58a14.42 14.42 0 0 1-6.97 1.87c-3.26 0-6.17-1.08-8.4-2.76-.18-.15 0-.3.18-.23a18.68 18.68 0 0 0 8.17 1.83c2.06 0 4.65-.37 6.75-1.12.31-.07.58.23.27.41Zm.67-.78c-.22-.26-1.56-.11-2.15-.08-.18 0-.22-.1-.04-.22 1.03-.63 2.77-.45 2.95-.22.18.22-.05 1.68-1.03 2.35-.13.11-.31.04-.22-.07.22-.45.71-1.5.49-1.76Z" fill="#FFB300"/><rect x="150.56" y="65.87" width="30.24" height="30.24" rx="15.12" stroke="url(#adestxpv1h)" stroke-opacity=".3" stroke-width=".23"/><path d="M283.69 85.93h1.76V75.89h-1.78l-2.62 1.84v1.65l2.6-1.78h.04v8.33Zm7.73.17c2.21 0 3.74-1.22 3.74-2.97v-.01c0-1.4-.98-2.27-2.46-2.41v-.04c1.2-.25 2.1-1.07 2.1-2.32v-.01c0-1.56-1.33-2.62-3.4-2.62-2.03 0-3.4 1.12-3.55 2.82v.08h1.67v-.07c.1-.86.82-1.4 1.87-1.4 1.08 0 1.7.52 1.7 1.42v.02c0 .87-.74 1.5-1.85 1.5h-1.15v1.34h1.2c1.27 0 2.05.58 2.05 1.64v.01c0 .91-.77 1.55-1.93 1.55-1.18 0-1.96-.59-2.05-1.4l-.01-.08h-1.72v.08c.15 1.69 1.58 2.87 3.79 2.87Zm5.16-.17h7.06v-1.47h-4.69v-.08l2.22-2.1c1.76-1.7 2.31-2.5 2.31-3.68v-.01c0-1.66-1.4-2.87-3.41-2.87-2.04 0-3.58 1.31-3.58 3.15v.05h1.68v-.05c.02-.97.8-1.71 1.91-1.71.97 0 1.64.64 1.65 1.53v.02c0 .74-.29 1.25-1.6 2.54l-3.55 3.45v1.23Zm9.3.1a1 1 0 0 0 1-1 1 1 0 0 0-1-1 1 1 0 0 0-1 1 1 1 0 0 0 1 1Zm4.17-.1h1.76V75.89h-1.78l-2.62 1.84v1.65l2.6-1.78h.04v8.33Zm4.11 0h7.06v-1.47h-4.68v-.08l2.2-2.1c1.77-1.7 2.32-2.5 2.32-3.68v-.01c0-1.66-1.4-2.87-3.41-2.87-2.04 0-3.58 1.31-3.58 3.15v.05h1.68v-.05c.02-.97.8-1.71 1.91-1.71.97 0 1.64.64 1.65 1.53v.02c0 .74-.29 1.25-1.6 2.54l-3.55 3.45v1.23Z" fill="#D1D4DC"/><path opacity=".4" d="M327.32 87.02c1.45 0 2.32-.87 2.32-2.15v-3.8h-.73v3.75c0 .9-.58 1.53-1.6 1.53-1 0-1.6-.63-1.6-1.53v-3.75H325v3.8c0 1.28.87 2.15 2.33 2.15Zm5.37 0c1.34 0 2.16-.65 2.16-1.7 0-.89-.5-1.38-1.7-1.64l-.65-.14c-.76-.17-1.12-.47-1.12-.95 0-.57.51-.94 1.3-.94.74 0 1.24.35 1.33.95v.05h.74v-.06c-.07-.95-.91-1.62-2.05-1.62-1.2 0-2.06.68-2.06 1.64 0 .86.53 1.37 1.68 1.63l.64.14c.8.18 1.14.46 1.14.98 0 .6-.53.99-1.37.99-.85 0-1.42-.36-1.5-.95l-.01-.06h-.73v.06c.08 1 .93 1.62 2.2 1.62Zm3.02-.1h1.96c1.75 0 2.77-1.08 2.77-2.92v-.01c0-1.84-1.03-2.92-2.77-2.92h-1.96v5.86Zm.73-.65v-4.54h1.19c1.32 0 2.06.8 2.06 2.27 0 1.46-.74 2.27-2.06 2.27h-1.2Z" fill="#fff"/><path d="M467.54 86.13c-2.07 0-3.57-1.25-3.65-3.03h1.69c.1.94.91 1.57 1.97 1.57 1.2 0 2.02-.82 2.02-2 0-1.18-.83-2-2.01-2a2.1 2.1 0 0 0-1.92 1.06h-1.57l.48-5.84h6.16v1.47H466l-.28 3.02h.03c.44-.67 1.27-1.07 2.28-1.07 1.91 0 3.29 1.4 3.29 3.3 0 2.08-1.55 3.52-3.77 3.52Zm6.12-.13c-.57 0-1-.44-1-1a1 1 0 0 1 1-1 1 1 0 0 1 1 1c0 .56-.45 1-1 1Zm2.56-7.11c0-1.87 1.5-3.2 3.6-3.2 2.04 0 3.4 1.26 3.4 2.87 0 1.19-.56 1.97-2.32 3.7l-2.2 2.16v.04h4.67v1.47h-7.05V84.7l3.55-3.49c1.3-1.29 1.6-1.79 1.6-2.54 0-.87-.66-1.54-1.66-1.54-1.08 0-1.9.74-1.9 1.76h-1.69Zm11.03 7.04V77.6h-.04l-2.6 1.78v-1.65l2.63-1.84h1.77v10.04h-1.76Z" fill="#089981"/><path opacity=".4" d="M495.99 87.02c1.45 0 2.32-.87 2.32-2.15v-3.8h-.73v3.75c0 .9-.57 1.53-1.59 1.53-1.01 0-1.6-.63-1.6-1.53v-3.75h-.73v3.8c0 1.28.88 2.15 2.33 2.15Zm5.37 0c1.34 0 2.16-.65 2.16-1.7 0-.89-.5-1.38-1.7-1.64l-.65-.14c-.76-.17-1.11-.47-1.11-.95 0-.57.5-.94 1.29-.94.74 0 1.24.35 1.33.95v.05h.74v-.06c-.07-.95-.9-1.62-2.05-1.62-1.2 0-2.06.68-2.06 1.64 0 .86.54 1.37 1.68 1.63l.65.14c.8.18 1.14.46 1.14.98 0 .6-.53.99-1.38.99-.84 0-1.41-.36-1.5-.95v-.06h-.74v.06c.08 1 .94 1.62 2.2 1.62Zm3.02-.1h1.97c1.74 0 2.76-1.08 2.76-2.92v-.01c0-1.84-1.03-2.92-2.76-2.92h-1.97v5.86Zm.73-.65v-4.54h1.19c1.33 0 2.06.8 2.06 2.27 0 1.46-.73 2.27-2.06 2.27h-1.19Z" fill="#fff"/><path d="M543.67 83.93h.83V81.3h1.58l1.41 2.62h.97l-1.53-2.75a1.88 1.88 0 0 0 1.32-1.88v-.01c0-1.2-.83-1.97-2.1-1.97h-2.48v6.6Zm.83-3.35v-2.53h1.54c.85 0 1.36.47 1.36 1.26 0 .82-.48 1.27-1.32 1.27h-1.58Zm6.63 3.44c1.04 0 1.82-.63 1.97-1.41l.01-.05h-.78l-.01.04c-.14.41-.57.71-1.17.71-.85 0-1.39-.57-1.4-1.55h3.42v-.3c0-1.42-.8-2.39-2.1-2.39s-2.13 1.02-2.13 2.49c0 1.5.82 2.46 2.19 2.46Zm-.06-4.24c.7 0 1.21.43 1.3 1.36h-2.61c.08-.89.62-1.36 1.31-1.36Zm4.45 4.24c.16 0 .33-.02.43-.03v-.65l-.26.02c-.42 0-.65-.14-.65-.65v-2.89h.91v-.66h-.9v-1.28h-.83v1.28h-.7v.66h.7v2.9c0 .9.43 1.3 1.3 1.3Zm2.59 0c.63 0 1.2-.35 1.48-.87h.02v.78h.8v-3.3c0-.95-.7-1.56-1.83-1.56-1.12 0-1.8.64-1.88 1.42v.05h.77v-.04c.1-.43.49-.72 1.1-.72.66 0 1.04.35 1.04.93v.4l-1.36.08c-1.1.06-1.73.57-1.73 1.38v.01c0 .87.64 1.44 1.59 1.44Zm-.77-1.44c0-.45.36-.74 1-.77l1.27-.08v.39c0 .69-.58 1.2-1.33 1.2-.57 0-.94-.28-.94-.74Zm4.53-4.22a.5.5 0 0 0 .5-.5.5.5 0 0 0-.5-.5.5.5 0 0 0 0 1Zm-.4 5.57h.8v-4.77h-.8v4.77Zm1.92 0h.8v-6.61h-.8v6.6Zm5.6 0h.82v-5.87h2.08v-.74h-4.99v.74h2.08v5.87Zm2.6 0h.79v-2.98c0-.67.4-1.12 1.02-1.12.2 0 .36.03.43.05v-.77c-.07-.01-.19-.04-.33-.04-.55 0-1 .34-1.15.86h-.02v-.77h-.75v4.77Zm4.19.09c.63 0 1.2-.35 1.48-.87h.02v.78h.8v-3.3c0-.95-.7-1.56-1.83-1.56-1.12 0-1.8.64-1.88 1.42v.05h.77v-.04c.1-.43.49-.72 1.1-.72.66 0 1.04.35 1.04.93v.4l-1.36.08c-1.1.06-1.73.57-1.73 1.38v.01c0 .87.64 1.44 1.59 1.44Zm-.77-1.44c0-.45.36-.74 1-.77l1.27-.08v.39c0 .69-.57 1.2-1.33 1.2-.57 0-.94-.28-.94-.74Zm5.87 1.44c.68 0 1.21-.35 1.51-.9h.02v.8h.8v-6.6h-.8v2.64h-.02c-.3-.55-.85-.89-1.52-.89-1.2 0-2.01.97-2.01 2.47 0 1.5.8 2.48 2.02 2.48Zm.16-.7c-.85 0-1.37-.68-1.37-1.77 0-1.1.52-1.77 1.37-1.77.8 0 1.37.7 1.37 1.76 0 1.07-.57 1.77-1.37 1.77Zm5.2.7c1.04 0 1.82-.63 1.97-1.41l.01-.05h-.78l-.01.04c-.14.41-.57.71-1.17.71-.85 0-1.39-.57-1.4-1.55h3.42v-.3c0-1.42-.79-2.39-2.09-2.39-1.3 0-2.14 1.02-2.14 2.49 0 1.5.82 2.46 2.2 2.46Zm-.05-4.24c.7 0 1.2.43 1.28 1.36h-2.6c.08-.89.62-1.36 1.32-1.36Z" fill="#B2B5BE"/><path d="M384.66 82.62h4.48v-1.54h-4.48v1.54Zm9.9 3.48c2.45 0 3.94-2 3.94-5.19v-.01c0-3.2-1.5-5.18-3.95-5.18-2.46 0-3.94 1.99-3.94 5.18v.01c0 3.2 1.48 5.19 3.94 5.19Zm0-1.47c-1.36 0-2.14-1.4-2.14-3.72v-.01c0-2.32.78-3.71 2.13-3.71 1.35 0 2.14 1.4 2.14 3.7v.02c0 2.32-.79 3.72-2.14 3.72Zm5.86 1.4a1 1 0 0 0 1-1 1 1 0 0 0-1-1 1 1 0 0 0-1 1 1 1 0 0 0 1 1Zm2.4-.1h7.05v-1.47h-4.68v-.08l2.2-2.1c1.78-1.7 2.32-2.5 2.32-3.68v-.01c0-1.66-1.4-2.87-3.41-2.87-2.04 0-3.58 1.31-3.58 3.15v.05h1.68v-.05c.02-.97.8-1.71 1.91-1.71.97 0 1.64.64 1.65 1.53v.02c0 .74-.28 1.25-1.6 2.54l-3.55 3.45v1.23Zm12 .17c2.23 0 3.75-1.22 3.75-2.97v-.01c0-1.4-.98-2.27-2.46-2.41v-.04c1.2-.25 2.11-1.07 2.11-2.32v-.01c0-1.56-1.34-2.62-3.42-2.62-2.02 0-3.39 1.12-3.54 2.82v.08h1.67v-.07c.1-.86.82-1.4 1.88-1.4 1.07 0 1.69.52 1.69 1.42v.02c0 .87-.74 1.5-1.85 1.5h-1.14v1.34h1.18c1.28 0 2.06.58 2.06 1.64v.01c0 .91-.77 1.55-1.93 1.55-1.18 0-1.95-.59-2.05-1.4v-.08h-1.73l.01.08c.14 1.69 1.57 2.87 3.78 2.87Zm7.25-5.12c1.38 0 2.22-1 2.22-2.59 0-1.6-.84-2.6-2.22-2.6-1.38 0-2.22 1-2.22 2.6s.84 2.6 2.22 2.6Zm.82 4.95 6.37-10.04h-1.39l-6.38 10.04h1.4Zm-.82-6c-.6 0-.94-.55-.94-1.54 0-1 .34-1.55.94-1.55.6 0 .94.56.94 1.55 0 1-.34 1.55-.94 1.55Zm6.62 6.09c1.37 0 2.22-1 2.22-2.6s-.85-2.59-2.22-2.59c-1.38 0-2.22 1-2.22 2.59 0 1.6.84 2.6 2.22 2.6Zm0-1.05c-.6 0-.95-.55-.95-1.54 0-1 .34-1.55.95-1.55.6 0 .94.55.94 1.54 0 1-.34 1.55-.94 1.55Z" fill="#CC2F3C"/><path d="M130.95 103.95h526.73" stroke="url(#aeestxpv1h)"/></g><g filter="url(#afestxpv1h)"><rect x="510" y="199" width="144" height="143" rx="30.2" fill="#000" fill-opacity=".34"/></g><rect x="533" y="222" width="159" height="159" rx="16" fill="url(#agestxpv1h)"/><rect x="533.5" y="222.5" width="158" height="158" rx="15.5" stroke="url(#ahestxpv1h)" stroke-opacity=".2"/><g clip-path="url(#aiestxpv1h)"><g clip-path="url(#ajestxpv1h)"><path fill="#F8F9FD" d="M587.59 251.55h50v50h-50z"/><path d="M618.15 262.66h19.44v-11.11h-19.44v11.1ZM587.59 301.55h50v-11.11h-50v11.1ZM618.15 282.1h19.44V271h-19.44v11.1Z" fill="#F7525F"/><path fill="#1E53E5" d="M587.59 251.55h30.56v30.56h-30.56z"/><path d="M594.3 254.95a.25.25 0 0 1 .47 0l.74 1.97c.03.09.12.15.22.16l2.1.1c.23 0 .33.3.15.44l-1.64 1.31a.25.25 0 0 0-.09.26l.56 2.03c.06.23-.19.4-.38.28l-1.76-1.16a.25.25 0 0 0-.27 0l-1.76 1.16a.25.25 0 0 1-.38-.28l.56-2.03c.02-.1 0-.2-.09-.26l-1.64-1.31a.25.25 0 0 1 .14-.44l2.1-.1c.1 0 .2-.07.23-.16l.74-1.97Zm0 8.33a.25.25 0 0 1 .47 0l.74 1.97c.03.1.12.16.22.16l2.1.1c.23 0 .33.3.15.44l-1.64 1.32a.25.25 0 0 0-.09.26l.56 2.03c.06.22-.19.4-.38.27l-1.76-1.15a.25.25 0 0 0-.27 0l-1.76 1.15a.25.25 0 0 1-.38-.27l.56-2.03c.02-.1 0-.2-.09-.26l-1.64-1.32a.25.25 0 0 1 .14-.44l2.1-.1c.1 0 .2-.07.23-.16l.74-1.97Zm.47 8.33a.25.25 0 0 0-.47 0l-.74 1.97a.25.25 0 0 1-.22.16l-2.1.1a.25.25 0 0 0-.15.45l1.64 1.31c.08.06.11.16.09.26l-.56 2.03c-.06.22.19.4.38.28l1.76-1.16c.08-.06.19-.06.27 0l1.76 1.16c.2.12.44-.06.38-.28l-.56-2.03c-.03-.1 0-.2.09-.26l1.64-1.31a.25.25 0 0 0-.15-.45l-2.1-.1a.25.25 0 0 1-.22-.16l-.74-1.97Zm7.86-16.66a.25.25 0 0 1 .47 0l.74 1.97c.04.09.13.15.23.16l2.1.1c.23 0 .32.3.14.44l-1.64 1.31a.25.25 0 0 0-.09.26l.56 2.03c.06.23-.19.4-.38.28l-1.76-1.16a.25.25 0 0 0-.27 0l-1.76 1.16a.25.25 0 0 1-.38-.28l.56-2.03c.03-.1 0-.2-.08-.26l-1.65-1.31a.25.25 0 0 1 .15-.44l2.1-.1c.1 0 .19-.07.22-.16l.74-1.97Zm.47 8.33a.25.25 0 0 0-.47 0l-.74 1.97a.25.25 0 0 1-.22.16l-2.1.1a.25.25 0 0 0-.15.44l1.65 1.32c.07.06.1.16.08.26l-.56 2.03c-.06.22.19.4.38.27l1.76-1.15c.08-.06.2-.06.27 0l1.76 1.15c.2.13.44-.05.38-.27l-.56-2.03c-.02-.1.01-.2.09-.26l1.64-1.32a.25.25 0 0 0-.14-.44l-2.1-.1a.25.25 0 0 1-.23-.16l-.74-1.97Zm-.47 8.33a.25.25 0 0 1 .47 0l.74 1.97c.04.1.13.16.23.16l2.1.1c.23.01.32.3.14.45l-1.64 1.31a.25.25 0 0 0-.09.26l.56 2.03c.06.22-.19.4-.38.28L603 277a.25.25 0 0 0-.27 0l-1.76 1.16a.25.25 0 0 1-.38-.28l.56-2.03c.03-.1 0-.2-.08-.26l-1.65-1.31a.25.25 0 0 1 .15-.45l2.1-.1c.1 0 .19-.06.22-.16l.74-1.97Zm8.8-16.66a.25.25 0 0 0-.46 0l-.75 1.97a.25.25 0 0 1-.22.16l-2.1.1a.25.25 0 0 0-.14.44l1.64 1.31c.08.07.11.17.08.26l-.55 2.03c-.06.23.18.4.38.28l1.75-1.16c.09-.05.2-.05.28 0l1.75 1.16c.2.13.44-.05.38-.28l-.55-2.03c-.03-.1 0-.2.08-.26l1.64-1.31a.25.25 0 0 0-.14-.44l-2.1-.1a.25.25 0 0 1-.22-.16l-.75-1.97Zm-.46 8.33a.25.25 0 0 1 .46 0l.75 1.97c.03.1.12.16.22.16l2.1.1c.23 0 .33.3.14.44l-1.64 1.32a.25.25 0 0 0-.08.26l.55 2.03c.06.22-.18.4-.38.27l-1.75-1.15a.25.25 0 0 0-.28 0l-1.75 1.15a.25.25 0 0 1-.38-.27l.55-2.03c.03-.1 0-.2-.08-.26l-1.64-1.32a.25.25 0 0 1 .14-.44l2.1-.1c.1 0 .19-.07.23-.16l.74-1.97Zm.46 8.33a.25.25 0 0 0-.46 0l-.75 1.97a.25.25 0 0 1-.22.16l-2.1.1a.25.25 0 0 0-.14.45l1.64 1.31c.08.06.11.16.08.26l-.55 2.03c-.06.22.18.4.38.28l1.75-1.16c.09-.06.2-.06.28 0l1.75 1.16c.2.12.44-.06.38-.28l-.55-2.03c-.03-.1 0-.2.08-.26l1.64-1.31a.25.25 0 0 0-.14-.45l-2.1-.1a.25.25 0 0 1-.22-.16l-.75-1.97Z" fill="#F8F9FD"/></g></g><path d="M573.05 332.98c2.86 0 4.62-1.68 4.62-4.17v-7.3h-2v7.13c0 1.57-.95 2.59-2.62 2.59-1.67 0-2.63-1.02-2.63-2.59v-7.13h-2.01v7.3c0 2.5 1.78 4.17 4.64 4.17Zm10.58 0c2.75 0 4.4-1.34 4.4-3.44 0-1.76-1.01-2.72-3.36-3.2l-1.22-.25c-1.36-.28-1.97-.75-1.97-1.55 0-.9.82-1.52 2.14-1.53 1.26 0 2.13.59 2.26 1.57l.02.1h1.93l-.01-.14c-.12-1.93-1.73-3.22-4.19-3.22-2.43 0-4.17 1.34-4.18 3.32v.01c0 1.68 1.1 2.71 3.32 3.17l1.2.25c1.46.3 2.05.76 2.05 1.6v.01c0 .97-.9 1.6-2.32 1.6-1.41 0-2.4-.6-2.55-1.56l-.02-.1h-1.93l.01.12c.13 2.02 1.84 3.24 4.42 3.24Zm12.16-.03c2.03 0 3.48-1.05 3.48-2.61 0-1.21-.67-1.88-2.38-2.27l-1.38-.3c-.86-.2-1.18-.5-1.18-.98v-.01c0-.61.54-1.01 1.4-1.01.9 0 1.43.48 1.52 1.15v.06h1.82v-.09c-.08-1.43-1.28-2.56-3.34-2.56-2 0-3.32 1.03-3.32 2.54 0 1.24.8 2 2.38 2.36l1.37.3c.86.2 1.15.48 1.15.98v.01c0 .6-.57 1-1.51 1-.99 0-1.53-.43-1.67-1.14l-.02-.07h-1.91v.07c.17 1.54 1.42 2.57 3.59 2.57Zm4.77-.16h1.95V328c0-1.2.72-2.04 1.82-2.04 1.12 0 1.76.77 1.76 2.04v4.78h1.94v-5.16c0-2-1.14-3.3-2.92-3.3-1.24 0-2.13.57-2.56 1.56h-.04v-4.38h-1.95v11.28Zm12.7.16c2.44 0 4.01-1.62 4.01-4.3v-.02c0-2.67-1.6-4.3-4.01-4.3-2.4 0-4 1.64-4 4.3v.01c0 2.68 1.57 4.3 4 4.3Zm.01-1.57c-1.24 0-2.03-1-2.03-2.74v-.01c0-1.72.8-2.72 2.02-2.72 1.23 0 2.03 1 2.03 2.72v.01c0 1.74-.79 2.74-2.02 2.74Zm5.25 1.4h1.95v-4.85c0-1.16.66-1.87 1.76-1.87.33 0 .63.05.8.1v-1.75a2.53 2.53 0 0 0-.62-.08c-.98 0-1.7.59-1.96 1.56h-.04v-1.39h-1.89v8.29Zm8.58.17c.4 0 .74-.04.96-.07v-1.46c-.13 0-.28.03-.47.03-.7 0-1.07-.26-1.07-1.07V326h1.54v-1.5h-1.54v-2.1h-1.97v2.1h-1.17v1.5h1.17v4.54c0 1.7.82 2.4 2.55 2.4Zm4.63-.02c1.1 0 2.02-.55 2.5-1.42h.04v1.28h1.95v-5.7c0-1.66-1.34-2.76-3.4-2.76-2.1 0-3.38 1.1-3.5 2.57v.1h1.8l.01-.07c.13-.61.69-1.04 1.61-1.04.99 0 1.53.5 1.53 1.34v.57l-2.16.13c-2 .13-3.15 1.01-3.15 2.48v.02c0 1.47 1.12 2.5 2.77 2.5Zm-.83-2.58v-.01c0-.66.52-1.07 1.48-1.13l1.9-.12v.63c0 .98-.85 1.72-1.97 1.72-.85 0-1.41-.41-1.41-1.1Zm11.51 2.6c2.1 0 3.43-1.64 3.43-4.3v-.01c0-2.68-1.34-4.3-3.42-4.3-1.17 0-2.12.6-2.58 1.59h-.05v-4.42h-1.95v11.28h1.95v-1.41h.05a2.73 2.73 0 0 0 2.57 1.57Zm-.58-1.64c-1.2 0-2.04-1.04-2.04-2.67 0-1.62.84-2.67 2.04-2.67 1.24 0 2.02 1.02 2.02 2.67s-.77 2.67-2.02 2.67Zm5.31 1.48h1.95V321.5h-1.95v11.28Zm7.24.16c2.17 0 3.39-1.28 3.64-2.56l.03-.08h-1.82l-.02.05c-.19.56-.82 1.07-1.79 1.07-1.26 0-2.06-.86-2.1-2.3h5.8v-.63c0-2.5-1.46-4.17-3.83-4.17s-3.9 1.72-3.9 4.33c0 2.64 1.5 4.29 4 4.29Zm-.07-7.1c1.03 0 1.78.66 1.92 1.97h-3.88c.16-1.27.93-1.96 1.96-1.96Z" fill="#D1D4DC"/><path d="M558.62 352.47h.78v-5h.02l3.49 5h.77v-6.34h-.78v5h-.03l-3.49-5h-.76v6.34Zm5.78 0h.83l.64-1.82h2.52l.64 1.82h.83l-2.34-6.34h-.78l-2.34 6.34Zm2.72-5.4h.02l1.02 2.91h-2.06l1.02-2.9Zm5.54 5.5c1.45 0 2.34-.7 2.34-1.83 0-.97-.54-1.5-1.84-1.79l-.7-.15c-.83-.18-1.22-.5-1.22-1.03 0-.61.56-1.01 1.4-1.02.81 0 1.35.38 1.45 1.03v.06h.8v-.06c-.08-1.04-.98-1.76-2.22-1.76-1.3 0-2.23.73-2.23 1.77 0 .94.58 1.5 1.82 1.76l.7.16c.87.2 1.23.5 1.23 1.06 0 .66-.57 1.08-1.49 1.08-.91 0-1.53-.4-1.62-1.03l-.01-.06h-.8l.01.06c.08 1.08 1 1.75 2.38 1.75Zm3.27-.1h2.13c1.89 0 3-1.18 3-3.17v-.01c0-2-1.12-3.16-3-3.16h-2.13v6.34Zm.8-.71v-4.92H578c1.44 0 2.24.87 2.24 2.46 0 1.58-.8 2.46-2.24 2.46h-1.29Zm4.63.7h.83l.63-1.8h2.53l.63 1.8h.84l-2.34-6.33h-.78l-2.34 6.34Zm2.72-5.38h.01l1.02 2.9h-2.05l1.02-2.9Zm5.96 5.5c.42 0 .8-.07 1.14-.2l.58.8h.9l-.85-1.15c.74-.55 1.15-1.5 1.15-2.73 0-2.02-1.12-3.28-2.92-3.28-1.8 0-2.92 1.26-2.92 3.27v.01c0 2.01 1.12 3.27 2.92 3.27Zm0-.73c-1.3 0-2.1-.99-2.1-2.55 0-1.57.8-2.55 2.1-2.55s2.11.99 2.11 2.54v.01c0 .93-.29 1.66-.8 2.1l-.54-.75h-.89l.8 1.1c-.2.06-.43.1-.68.1Zm2.82 1.86h.55l.64-2.15h-.8l-.39 2.15Zm3.77-1.24h.78v-5h.02l3.5 5h.76v-6.34h-.78v5h-.02l-3.5-5h-.76v6.34Zm8.04 0h.79v-2.73l2.25-3.61h-.9l-1.74 2.85h-.02l-1.73-2.85h-.9l2.25 3.61v2.73Zm5.53.1c1.45 0 2.34-.7 2.34-1.83 0-.97-.54-1.5-1.84-1.79l-.7-.15c-.83-.18-1.22-.5-1.22-1.03 0-.61.56-1.01 1.4-1.02.8 0 1.35.38 1.45 1.03v.06h.8v-.06c-.08-1.04-.98-1.76-2.22-1.76-1.3 0-2.23.73-2.24 1.77 0 .94.58 1.5 1.82 1.76l.7.16c.88.2 1.24.5 1.24 1.06 0 .66-.57 1.08-1.49 1.08s-1.53-.4-1.62-1.03l-.01-.06h-.8l.01.06c.08 1.08 1 1.75 2.38 1.75Zm3.27-.1h3.93v-.71h-3.14v-2.18h2.97v-.7h-2.97v-2.04h3.14v-.71h-3.93v6.34Zm4.55 1.24h.54l.64-2.15h-.8l-.38 2.15Zm3.76-1.24h.78v-5h.03l3.49 5h.76v-6.34h-.78v5h-.02l-3.49-5h-.77v6.34Zm8.04 0h.8v-2.73l2.24-3.61h-.9l-1.73 2.85h-.03l-1.73-2.85h-.9l2.25 3.61v2.73Zm5.53.1c1.45 0 2.35-.7 2.35-1.83 0-.97-.55-1.5-1.85-1.79l-.7-.15c-.83-.18-1.21-.5-1.21-1.03 0-.61.55-1.01 1.4-1.02.8 0 1.34.38 1.44 1.03l.01.06h.8l-.01-.06c-.07-1.04-.98-1.76-2.22-1.76-1.3 0-2.23.73-2.23 1.77 0 .94.58 1.5 1.82 1.76l.7.16c.87.2 1.24.5 1.24 1.06 0 .66-.58 1.08-1.5 1.08-.91 0-1.53-.4-1.62-1.03v-.06h-.8v.06c.08 1.08 1.01 1.75 2.38 1.75Zm3.27-.1h3.93v-.71h-3.14v-2.18h2.98v-.7h-2.98v-2.04h3.14v-.71h-3.93v6.34Zm6.32 0h.83l.63-1.82h2.53l.63 1.82h.84l-2.34-6.34h-.78l-2.34 6.34Zm2.72-5.4h.01l1.02 2.91h-2.05l1.02-2.9Zm3.46 5.4h.8v-2.51h1.5l1.37 2.5h.92l-1.47-2.62a1.8 1.8 0 0 0 1.28-1.81v-.01c0-1.14-.8-1.9-2.02-1.9h-2.38v6.35Zm.8-3.2v-2.44h1.47c.82 0 1.31.45 1.31 1.2v.01c0 .78-.46 1.22-1.27 1.22h-1.52Zm7.25 3.3c1.32 0 2.34-.78 2.58-2v-.04h-.8v.04c-.28.83-.9 1.28-1.78 1.28-1.26 0-2.09-1.01-2.09-2.55 0-1.55.82-2.55 2.09-2.55.89 0 1.51.45 1.76 1.22l.03.1h.8l-.01-.05c-.24-1.2-1.26-2-2.58-2-1.77 0-2.9 1.28-2.9 3.27 0 2 1.13 3.28 2.9 3.28Zm3.02-.1h.83l.64-1.82h2.52l.64 1.82h.83l-2.34-6.34h-.78l-2.34 6.34Zm2.72-5.4h.02l1.02 2.91h-2.06l1.02-2.9Z" fill="#787B86"/><defs><linearGradient id="aestxpv1h" x1="124" y1="131" x2="124" y2="367" gradientUnits="userSpaceOnUse"><stop stop-color="#191B1F"/><stop offset="1" stop-color="#0B0B0C"/></linearGradient><linearGradient id="bestxpv1h" x1="12.68" y1="124.56" x2="271.74" y2="449.06" gradientUnits="userSpaceOnUse"><stop stop-color="#fff"/><stop offset="1" stop-opacity="0"/></linearGradient><linearGradient id="festxpv1h" x1="394.07" y1="0" x2="394.07" y2="310.55" gradientUnits="userSpaceOnUse"><stop stop-color="#191B1F"/><stop offset="1" stop-color="#0B0B0C"/></linearGradient><linearGradient id="gestxpv1h" x1="158.01" y1="-8.47" x2="436.12" y2="552.9" gradientUnits="userSpaceOnUse"><stop stop-color="#fff"/><stop offset="1" stop-opacity="0"/></linearGradient><linearGradient id="iestxpv1h" x1="157.03" y1="20.79" x2="188.38" y2="56.8" gradientUnits="userSpaceOnUse"><stop stop-color="#1A1E21"/><stop offset="1" stop-color="#06060A"/></linearGradient><linearGradient id="jestxpv1h" x1="157.08" y1="15.52" x2="169.12" y2="40.23" gradientUnits="userSpaceOnUse"><stop stop-color="#fff"/><stop offset="1" stop-color="#fff" stop-opacity="0"/></linearGradient><linearGradient id="kestxpv1h" x1="140.39" y1="53.01" x2="695.55" y2="53.94" gradientUnits="userSpaceOnUse"><stop stop-color="#434651"/><stop offset="1" stop-color="#434651" stop-opacity="0"/></linearGradient><linearGradient id="mestxpv1h" x1="156.11" y1="121.31" x2="187.52" y2="157.39" gradientUnits="userSpaceOnUse"><stop stop-color="#1A1E21"/><stop offset="1" stop-color="#06060A"/></linearGradient><linearGradient id="nestxpv1h" x1="156.3" y1="116.03" x2="165.68" y2="146.5" gradientUnits="userSpaceOnUse"><stop stop-color="#fff"/><stop offset="1" stop-color="#fff" stop-opacity="0"/></linearGradient><linearGradient id="oestxpv1h" x1="157.47" y1="116.03" x2="165.68" y2="146.5" gradientUnits="userSpaceOnUse"><stop stop-color="#fff"/><stop offset="1" stop-color="#fff" stop-opacity="0"/></linearGradient><linearGradient id="pestxpv1h" x1="140.31" y1="247.33" x2="695.58" y2="247.33" gradientUnits="userSpaceOnUse"><stop stop-color="#434651"/><stop offset="1" stop-color="#434651" stop-opacity="0"/></linearGradient><linearGradient id="qestxpv1h" x1="156.33" y1="171.63" x2="187.72" y2="207.69" gradientUnits="userSpaceOnUse"><stop stop-color="#1A1E21"/><stop offset="1" stop-color="#06060A"/></linearGradient><linearGradient id="restxpv1h" x1="155.34" y1="166.35" x2="165.89" y2="196.8" gradientUnits="userSpaceOnUse"><stop stop-color="#fff"/><stop offset="1" stop-color="#fff" stop-opacity="0"/></linearGradient><linearGradient id="sestxpv1h" x1="140.54" y1="297.22" x2="695.52" y2="297.22" gradientUnits="userSpaceOnUse"><stop stop-color="#434651"/><stop offset="1" stop-color="#434651" stop-opacity="0"/></linearGradient><linearGradient id="uestxpv1h" x1="156.11" y1="221.87" x2="187.52" y2="257.94" gradientUnits="userSpaceOnUse"><stop stop-color="#1A1E21"/><stop offset="1" stop-color="#06060A"/></linearGradient><linearGradient id="vestxpv1h" x1="161.75" y1="227" x2="164.75" y2="233.25" gradientUnits="userSpaceOnUse"><stop stop-color="#0064E0"/><stop offset="1" stop-color="#0082FB"/></linearGradient><linearGradient id="westxpv1h" x1="173.25" y1="234" x2="168" y2="232" gradientUnits="userSpaceOnUse"><stop stop-color="#0181FA"/><stop offset="1" stop-color="#0967DF"/></linearGradient><linearGradient id="xestxpv1h" x1="156.15" y1="216.58" x2="168.22" y2="241.34" gradientUnits="userSpaceOnUse"><stop stop-color="#fff"/><stop offset="1" stop-color="#fff" stop-opacity="0"/></linearGradient><linearGradient id="yestxpv1h" x1="140.26" y1="347.8" x2="707.1" y2="347.8" gradientUnits="userSpaceOnUse"><stop stop-color="#434651"/><stop offset="1" stop-color="#434651" stop-opacity="0"/></linearGradient><linearGradient id="zestxpv1h" x1="157.03" y1="272.17" x2="188.38" y2="308.17" gradientUnits="userSpaceOnUse"><stop stop-color="#1A1E21"/><stop offset="1" stop-color="#06060A"/></linearGradient><linearGradient id="aaestxpv1h" x1="157.08" y1="266.89" x2="169.12" y2="291.6" gradientUnits="userSpaceOnUse"><stop stop-color="#fff"/><stop offset="1" stop-color="#fff" stop-opacity="0"/></linearGradient><linearGradient id="acestxpv1h" x1="156.11" y1="71.04" x2="187.52" y2="107.11" gradientUnits="userSpaceOnUse"><stop stop-color="#1A1E21"/><stop offset="1" stop-color="#06060A"/></linearGradient><linearGradient id="adestxpv1h" x1="157.47" y1="65.75" x2="165.68" y2="96.22" gradientUnits="userSpaceOnUse"><stop stop-color="#fff"/><stop offset="1" stop-color="#fff" stop-opacity="0"/></linearGradient><linearGradient id="aeestxpv1h" x1="139.38" y1="196.5" x2="696.88" y2="196.5" gradientUnits="userSpaceOnUse"><stop stop-color="#434651"/><stop offset="1" stop-color="#434651" stop-opacity="0"/></linearGradient><linearGradient id="agestxpv1h" x1="612.5" y1="222" x2="612.5" y2="381" gradientUnits="userSpaceOnUse"><stop stop-color="#191B1F"/><stop offset="1" stop-color="#0B0B0C"/></linearGradient><linearGradient id="ahestxpv1h" x1="541.13" y1="217.66" x2="717.38" y2="427.76" gradientUnits="userSpaceOnUse"><stop stop-color="#fff"/><stop offset="1" stop-opacity="0"/></linearGradient><clipPath id="cestxpv1h"><rect x="16" y="287.35" width="84.9" height="23.62" rx="4"/></clipPath><clipPath id="destxpv1h"><rect x="104.9" y="287.35" width="73.9" height="23.62" rx="4"/></clipPath><clipPath id="hestxpv1h"><path transform="translate(132 6)" d="M0 0h525v48H0z"/></clipPath><clipPath id="lestxpv1h"><path transform="translate(132 107)" d="M0 0h525v48H0z"/></clipPath><clipPath id="testxpv1h"><path transform="translate(132 207)" d="M0 0h525v49H0z"/></clipPath><clipPath id="abestxpv1h"><path transform="translate(132 56)" d="M0 0h525v49H0z"/></clipPath><clipPath id="aiestxpv1h"><rect x="587.59" y="251.55" width="50" height="50" rx="25"/></clipPath><clipPath id="ajestxpv1h"><path transform="translate(587.59 251.55)" d="M0 0h50v50H0z"/></clipPath><filter id="eestxpv1h" x="83" y="23" width="561.4" height="343.19" filterUnits="userSpaceOnUse" color-interpolation-filters="sRGB"><feFlood flood-opacity="0"/><feBlend in="SourceGraphic"/><feGaussianBlur stdDeviation="12.5"/></filter><filter id="afestxpv1h" x="465" y="154" width="234" height="233" filterUnits="userSpaceOnUse" color-interpolation-filters="sRGB"><feFlood flood-opacity="0"/><feBlend in="SourceGraphic"/><feGaussianBlur stdDeviation="22.5"/></filter></defs></svg>