<svg xmlns="http://www.w3.org/2000/svg" xmlns:xlink="http://www.w3.org/1999/xlink" id="visual" viewBox="0 0 900 600" width="900" height="600" version="1.1" preserveAspectRatio="none">
    <path d="M0 421L75 430L150 471L225 438L300 446L375 456L450 431L525 445L600 470L675 454L750 450L825 467L900 417L900 601L825 601L750 601L675 601L600 601L525 601L450 601L375 601L300 601L225 601L150 601L75 601L0 601Z" fill="#2418220e"/>
    <path d="M0 440L75 489L150 472L225 483L300 441L375 471L450 494L525 472L600 469L675 442L750 445L825 471L900 457L900 601L825 601L750 601L675 601L600 601L525 601L450 601L375 601L300 601L225 601L150 601L75 601L0 601Z" fill="#2418224e"/>
    <path d="M0 514L75 500L150 507L225 516L300 472L375 502L450 472L525 476L600 509L675 493L750 507L825 479L900 484L900 601L825 601L750 601L675 601L600 601L525 601L450 601L375 601L300 601L225 601L150 601L75 601L0 601Z" fill="#2418224e"/>
    <path d="M0 503L75 499L150 536L225 506L300 506L375 526L450 502L525 536L600 526L675 533L750 537L825 537L900 497L900 601L825 601L750 601L675 601L600 601L525 601L450 601L375 601L300 601L225 601L150 601L75 601L0 601Z" fill="#2418224e"/>
    <path d="M0 546L75 533L150 534L225 545L300 534L375 541L450 523L525 527L600 527L675 538L750 530L825 537L900 530L900 601L825 601L750 601L675 601L600 601L525 601L450 601L375 601L300 601L225 601L150 601L75 601L0 601Z" fill="#2418224e"/>
    <path d="M0 573L75 554L150 566L225 571L300 552L375 566L450 576L525 575L600 562L675 568L750 553L825 566L900 555L900 601L825 601L750 601L675 601L600 601L525 601L450 601L375 601L300 601L225 601L150 601L75 601L0 601Z" fill="#2418220e"/>
</svg>