<svg width="40" height="40" viewBox="0 0 40 40" fill="none" xmlns="http://www.w3.org/2000/svg">
<path d="M25.83 28.8147C25.5293 28.8147 25.2361 28.7194 24.9868 28.5361L20.6168 25.3319L18.4978 27.4949C18.3511 27.6415 18.1825 27.7368 17.9992 27.8028C17.3393 28.0081 16.6427 27.6489 16.4374 26.9963L14.8097 21.7611L10.425 20.4633C10.0951 20.368 9.82378 20.1114 9.69913 19.7888C9.4865 19.2168 9.77246 18.579 10.3444 18.359L28.5136 11.2761C28.7702 11.1808 29.0488 11.1588 29.3128 11.2174C30.0606 11.3861 30.5299 12.1266 30.3613 12.8745L27.2231 27.6855C27.1864 27.8835 27.0984 28.0741 26.9738 28.2354C26.7465 28.5434 26.4166 28.7414 26.0426 28.7927C25.9766 28.8074 25.9033 28.8147 25.83 28.8147ZM20.5728 24.2907C20.6681 24.2907 20.7561 24.3201 20.8367 24.3787L25.5147 27.8175C25.632 27.9055 25.7713 27.9422 25.9106 27.9128C26.0499 27.8908 26.1746 27.8175 26.2552 27.7075C26.2992 27.6489 26.3286 27.5755 26.3432 27.5022L29.4888 12.6839C29.5181 12.5519 29.4961 12.4199 29.4227 12.3026C29.3494 12.1926 29.2394 12.1119 29.1148 12.0826C29.0195 12.0606 28.9242 12.0679 28.8288 12.1046L10.6597 19.1875C10.5423 19.2315 10.491 19.3562 10.5277 19.4661C10.5497 19.5248 10.6083 19.5761 10.6743 19.5981L15.147 20.9179C15.2203 20.8299 15.3009 20.7566 15.3963 20.7126L25.8886 14.2456C25.9253 14.2236 25.9693 14.2016 26.0133 14.1943C26.3652 14.1063 26.7318 14.3263 26.8198 14.6782C26.8711 14.8762 26.8271 15.0815 26.7025 15.2428L18.1752 22.773L17.2733 26.703C17.332 26.8863 17.5299 26.9816 17.7132 26.9303C17.7646 26.9156 17.8159 26.8863 17.8599 26.8423L20.2428 24.4081C20.3382 24.3347 20.4555 24.2907 20.5728 24.2907ZM15.9841 21.4061C15.8896 21.4643 15.8229 21.5585 15.7995 21.6669V21.6669C15.7851 21.7335 15.7876 21.8027 15.8069 21.8681L16.7845 25.1851L17.31 22.6336C17.4067 22.3333 17.4493 22.245 17.6032 22.1131L23.9969 16.4746L15.9841 21.4061Z" fill="#EAEEF4"/>

</svg>
