<svg width="40" height="40" viewBox="0 0 40 40" fill="none" xmlns="http://www.w3.org/2000/svg">
<path fill-rule="evenodd" clip-rule="evenodd" d="M13.888 13.2821C15.3782 11.3808 17.728 10.5501 20.149 10.5498C22.9265 10.5694 25.0387 11.4979 26.4785 13.2758C27.1281 14.078 27.6254 15.0352 27.965 16.1445L26.9973 16.4037C26.7 15.4544 26.2755 14.622 25.7226 13.9391C24.4567 12.376 22.5608 11.5971 20.1471 11.5791L20.1419 11.5792C17.7452 11.597 15.877 12.3724 14.6541 13.9328C13.5209 15.3787 12.9597 17.434 12.9388 19.9969L12.9388 20.0027C12.9598 22.5656 13.5209 24.6209 14.6541 26.0668C15.877 27.6272 17.7453 28.4026 20.142 28.4204L20.1471 28.4204C22.3034 28.4045 23.7855 27.885 25.0187 26.6484C26.4484 25.2146 26.4294 23.4405 25.9619 22.3462C25.6811 21.6889 25.1778 21.1554 24.5229 20.7586L24.0655 20.4816L23.9947 21.0116C23.8535 22.0676 23.5377 22.8771 23.059 23.4895C22.4361 24.2865 21.5416 24.7327 20.3612 24.7977C19.4676 24.8466 18.621 24.6292 17.9744 24.2008C17.2173 23.6991 16.7807 22.9396 16.7337 22.0527C16.6869 21.1722 17.0084 20.4268 17.6098 19.8792C18.2169 19.3264 19.1296 18.9583 20.2798 18.8918C21.117 18.8436 21.8947 18.882 22.6092 19.0038L23.0923 19.0862L23.0135 18.6025C22.9078 17.9541 22.6893 17.4071 22.3372 16.9966C21.7352 16.2951 20.7944 16.0522 19.9259 16.1389C19.1774 16.2136 18.4237 16.5383 17.9215 17.0978L17.0868 16.5231C17.8105 15.6096 18.8966 15.1095 20.1982 15.1175C21.3967 15.1252 22.3156 15.5019 22.9546 16.1701C23.5976 16.8425 23.995 17.8496 24.0672 19.1862L24.079 19.4029L24.2782 19.4888C25.3767 19.9621 26.3214 20.7547 26.8145 21.8139C27.6828 23.6791 27.1545 25.9356 25.7045 27.3896C24.3093 28.7888 22.616 29.4324 20.149 29.4498C17.7279 29.4495 15.3782 28.6189 13.888 26.7175C12.4274 24.8537 11.9751 22.3909 11.95 19.9998C11.9751 17.6087 12.4274 15.1459 13.888 13.2821ZM22.7854 20.0901C22.0937 19.9383 20.8586 19.7902 19.7929 19.9591C19.2612 20.0435 18.7328 20.2125 18.3387 20.5352C17.9267 20.8726 17.6871 21.3584 17.7209 21.9959C17.7556 22.6501 18.1317 23.1221 18.6271 23.4086C19.1134 23.6898 19.7256 23.8027 20.3092 23.7698C20.8634 23.7392 21.5169 23.6123 22.0547 23.1048C22.5915 22.5983 22.955 21.768 23.0593 20.4598L23.0836 20.1555L22.7854 20.0901Z" fill="#F7F9FA"/>
</svg>
